{"glyphs":{"0":{"ha":765,"x_min":47,"x_max":724,"o":"m 374 46 q 408 47 393 44 q 424 51 417 49 q 467 76 449 58 q 475 86 471 81 q 513 163 499 115 q 538 300 529 214 q 544 583 549 424 q 511 818 538 742 q 490 868 501 847 q 482 882 483 879 q 446 919 465 906 q 396 935 422 933 q 361 933 378 936 q 340 928 347 931 q 308 910 324 922 q 291 892 300 903 q 274 867 282 881 q 268 856 271 861 q 243 788 254 828 q 221 574 224 704 q 240 224 217 356 q 265 136 251 168 q 288 94 274 114 q 307 72 297 81 q 325 60 315 65 q 360 49 340 51 q 374 46 371 46 m 418 -14 l 418 -12 q 279 7 347 -22 q 249 21 261 14 q 214 44 232 31 q 92 219 136 106 q 79 257 85 238 q 68 297 72 278 q 47 494 47 392 q 92 757 47 644 q 104 789 97 775 q 218 938 149 882 q 256 963 238 951 q 285 976 271 971 q 356 996 318 990 q 456 990 408 1004 q 514 965 485 983 q 549 943 531 957 q 671 765 626 882 q 715 547 707 674 q 689 285 724 406 q 675 243 683 265 q 619 135 654 189 q 600 106 611 121 q 550 50 574 71 q 515 24 531 33 q 485 7 500 14 q 418 -14 454 -8 z "},"1":{"ha":400,"x_min":42,"x_max":360,"o":"m 358 0 l 74 0 l 74 53 q 101 56 94 54 q 115 63 108 57 q 128 81 122 68 q 135 106 132 92 q 139 160 139 125 l 139 754 l 139 761 q 135 790 138 781 q 121 815 129 804 q 96 829 111 825 q 78 833 89 832 q 42 836 64 836 l 42 886 l 51 889 q 244 999 146 913 l 294 999 l 294 160 q 301 93 294 117 q 310 71 304 79 q 328 57 317 61 q 358 54 338 54 l 358 0 z "},"2":{"ha":719,"x_min":42,"x_max":679,"o":"m 611 0 l 42 0 l 42 43 q 110 143 93 121 q 361 417 194 260 q 419 482 396 453 q 438 507 424 489 q 458 540 447 521 q 475 576 467 557 q 483 596 479 585 q 493 631 490 617 q 497 651 496 638 q 503 686 501 671 q 499 790 507 738 q 461 888 489 849 q 438 913 450 903 q 385 935 414 931 q 325 929 353 939 q 301 917 311 924 q 288 900 293 910 q 279 883 282 892 q 275 872 276 875 q 265 810 271 861 q 260 774 263 788 q 249 744 256 757 q 242 733 246 740 q 210 704 228 714 q 157 696 186 692 q 121 713 136 699 q 101 738 108 724 q 92 774 93 754 q 93 803 90 783 q 154 914 101 864 q 332 996 226 985 q 374 999 350 999 q 401 997 389 999 q 451 990 428 996 q 479 982 461 988 q 518 967 501 975 q 557 943 539 957 q 586 919 574 932 q 649 833 626 881 q 661 801 654 819 q 668 776 667 783 q 675 728 672 753 q 669 640 678 682 q 649 579 661 608 q 629 543 642 565 q 551 451 597 494 q 428 359 510 417 q 311 272 347 301 q 182 139 236 210 l 444 139 q 511 143 485 139 q 536 150 525 146 q 541 153 538 151 q 546 154 544 154 q 590 190 574 165 q 613 236 601 206 l 664 226 l 611 0 z "},"3":{"ha":708,"x_min":42,"x_max":665,"o":"m 275 485 l 276 482 l 276 485 q 275 485 276 485 m 276 485 l 274 543 q 347 560 321 551 q 389 579 369 567 q 400 588 397 585 q 431 618 418 601 q 444 644 439 632 q 447 649 446 646 q 449 654 447 653 q 458 699 456 674 q 460 765 463 731 q 454 818 458 799 q 447 846 451 835 q 440 864 444 856 q 428 888 435 876 q 415 904 422 896 q 347 933 389 931 q 314 933 329 935 q 289 926 300 932 q 269 914 278 922 q 242 864 250 897 q 236 829 239 850 q 235 817 235 825 q 226 789 231 800 q 222 776 226 785 q 208 754 217 764 q 163 729 189 733 q 129 733 146 728 q 81 776 96 743 q 78 846 67 808 q 93 879 82 861 q 99 890 96 886 q 231 981 142 951 q 256 988 240 985 q 300 996 278 993 q 349 999 324 999 q 393 994 369 997 q 449 982 422 992 q 488 967 468 976 q 526 943 508 957 q 626 788 613 882 q 629 756 629 772 q 624 707 629 729 q 608 665 619 688 q 601 653 604 657 q 553 597 582 622 q 471 546 521 569 q 564 499 525 528 q 608 457 588 481 q 635 417 624 438 q 660 344 653 382 q 663 293 664 318 q 660 249 663 271 q 606 115 649 175 q 492 19 563 56 q 447 1 474 11 q 385 -12 418 -8 q 335 -17 361 -15 q 281 -14 311 -17 q 232 -6 260 -11 q 206 3 221 -3 q 93 67 136 25 q 60 107 72 86 q 53 122 54 118 q 42 169 42 146 q 63 227 42 204 q 114 251 83 250 q 149 246 133 251 q 172 232 163 240 q 193 210 183 222 q 215 168 206 193 q 242 108 226 135 q 257 86 249 94 q 283 63 271 69 q 360 49 314 44 q 433 85 403 54 q 460 121 449 100 q 486 211 479 160 q 488 343 496 281 q 468 415 482 383 q 447 447 458 433 q 399 485 428 472 q 276 485 356 500 z "},"4":{"ha":765,"x_min":43,"x_max":722,"o":"m 167 344 l 425 344 l 428 789 l 167 344 m 639 1 l 638 1 l 368 1 l 368 51 q 392 60 386 56 q 406 71 401 64 q 415 86 411 78 q 422 118 419 99 q 425 232 425 143 l 43 232 l 43 288 l 465 993 l 582 993 l 582 344 l 721 344 l 721 232 l 582 232 q 585 115 582 136 q 594 81 588 93 q 611 63 601 68 q 639 53 618 57 l 639 1 z "},"5":{"ha":711,"x_min":38,"x_max":668,"o":"m 160 439 l 158 439 l 96 446 l 113 993 q 179 974 151 981 q 211 968 196 971 q 251 964 233 965 q 315 960 290 960 q 471 976 408 958 q 503 986 485 979 q 519 992 514 990 q 563 1015 540 1001 l 597 985 q 539 914 574 946 q 375 831 472 853 q 179 822 289 811 l 174 594 q 189 613 181 603 q 256 658 218 640 q 346 682 297 678 q 372 683 354 683 q 414 679 397 682 q 457 669 435 676 q 628 519 572 632 q 646 475 636 501 q 654 443 650 460 q 663 322 667 383 q 644 226 658 272 q 631 192 638 207 q 565 90 607 135 q 460 14 519 42 q 421 -1 446 7 q 392 -10 407 -7 q 333 -18 365 -15 q 235 -12 286 -22 q 210 -7 215 -10 q 143 18 172 3 q 126 29 135 24 q 82 67 100 47 q 60 96 68 81 q 53 111 54 107 q 43 143 46 126 q 56 207 38 181 q 104 239 74 233 q 144 235 125 242 q 181 213 164 229 q 200 190 192 203 q 207 181 203 188 q 226 145 214 169 q 244 110 238 121 q 267 81 257 90 q 290 63 278 69 q 335 51 310 53 q 393 58 367 47 q 436 88 417 68 q 464 126 453 104 q 493 224 485 167 q 496 251 496 249 q 496 346 500 296 q 492 375 494 357 q 464 474 483 431 q 433 522 450 501 q 421 538 431 528 q 392 563 407 553 q 338 583 368 578 q 269 576 304 589 q 229 556 249 571 q 218 547 224 553 q 199 526 207 538 q 160 439 175 496 z "},"6":{"ha":713,"x_min":49,"x_max":668,"o":"m 494 300 q 485 460 497 396 q 465 525 478 499 q 439 567 457 547 q 418 582 429 576 q 389 593 404 590 q 376 594 379 594 q 353 594 367 596 q 290 571 317 592 q 263 540 275 558 q 260 536 263 539 q 258 532 258 533 q 231 460 240 501 q 221 338 221 410 q 231 197 222 250 q 244 146 236 169 q 290 71 260 96 q 306 60 297 64 q 339 47 322 51 q 351 46 349 46 q 390 49 374 44 q 428 67 413 54 q 454 99 443 79 q 482 174 471 126 q 486 194 483 182 q 494 300 493 239 m 264 847 q 215 574 224 754 q 299 644 249 622 q 467 651 378 681 q 536 615 503 639 q 557 599 549 606 q 589 567 575 583 q 606 543 599 553 q 631 503 622 519 q 649 458 640 483 q 657 426 654 442 q 665 371 663 401 q 667 338 667 360 q 664 294 667 318 q 610 133 654 203 q 588 101 600 117 q 569 82 576 89 q 535 49 550 61 q 513 32 521 38 q 478 13 493 19 q 326 -15 407 -24 q 194 40 251 -6 q 169 63 181 50 q 153 81 158 74 q 88 193 113 129 q 76 226 79 218 q 67 263 71 243 q 58 303 63 282 q 53 347 56 325 q 50 397 50 371 q 49 454 49 414 q 53 532 50 493 q 67 640 57 588 q 97 750 79 701 q 113 785 104 768 q 128 817 121 803 q 144 843 138 833 q 243 949 186 908 q 251 953 244 949 q 264 961 258 958 q 296 976 281 971 q 372 996 332 992 q 408 999 392 999 q 432 999 418 999 q 563 960 511 993 q 592 936 581 947 q 603 924 597 931 q 621 896 614 911 q 629 856 629 875 q 629 846 631 851 q 615 813 626 826 q 543 785 588 776 q 518 793 531 786 q 464 851 488 808 q 428 903 444 886 q 393 924 411 918 q 332 922 361 933 q 307 907 321 918 q 299 900 303 904 q 264 847 281 882 z "},"7":{"ha":699,"x_min":43,"x_max":656,"o":"m 378 0 l 197 0 q 249 296 208 150 q 397 654 297 476 q 525 856 449 749 l 283 856 q 178 849 217 857 q 153 840 164 844 q 128 821 139 832 q 111 797 119 813 q 96 746 104 781 l 43 749 l 64 994 l 654 994 l 654 942 q 510 678 568 815 q 461 547 483 617 q 435 458 447 507 q 417 379 424 414 q 378 0 383 228 z "},"8":{"ha":733,"x_min":42,"x_max":689,"o":"m 294 664 q 421 589 339 624 q 464 618 444 600 q 493 654 482 635 q 514 699 507 675 q 519 735 518 717 q 519 797 524 764 q 518 808 519 801 q 517 815 517 814 q 513 831 517 818 q 490 878 506 857 q 479 892 486 883 q 419 929 454 918 q 390 935 403 933 q 339 935 364 938 q 324 932 333 935 q 286 918 303 928 q 247 885 263 906 q 231 850 236 868 q 226 838 228 844 q 224 814 225 826 q 228 765 222 788 q 240 731 231 750 q 247 719 243 726 q 294 664 265 690 m 422 413 l 422 411 q 301 471 376 442 q 285 463 290 465 q 253 440 267 451 q 203 371 221 411 q 193 343 197 360 q 188 324 190 335 q 183 242 181 281 q 207 146 188 186 q 225 117 215 131 q 242 97 232 107 q 285 65 261 76 q 308 56 294 60 q 342 49 324 50 q 397 49 369 44 q 414 51 408 49 q 444 60 431 54 q 474 76 461 67 q 490 92 483 83 q 529 157 518 119 q 538 243 542 197 q 522 301 535 274 q 503 335 515 318 q 485 358 494 347 q 465 379 481 364 q 442 399 456 388 q 422 413 431 407 m 125 432 q 233 504 165 469 q 175 546 200 524 q 149 572 160 560 q 108 635 124 600 q 89 778 78 701 q 232 968 110 908 q 269 983 251 978 q 325 996 297 992 q 418 996 372 1001 q 474 983 447 992 q 547 949 513 971 q 567 933 558 940 q 581 921 576 925 q 607 890 596 906 q 636 835 625 865 q 640 726 653 783 q 625 682 635 704 q 610 657 617 668 q 575 615 596 636 q 558 603 568 610 q 489 558 529 579 q 565 513 535 535 q 649 425 615 475 q 664 396 657 411 q 674 372 671 379 q 686 317 683 347 q 689 285 689 304 q 685 240 689 264 q 633 111 674 169 q 522 19 592 53 q 478 1 504 10 q 449 -7 463 -4 q 278 -7 365 -26 q 106 92 172 17 q 90 111 97 103 q 71 143 81 125 q 46 218 53 179 q 43 254 43 239 q 49 307 43 281 q 65 353 54 331 q 72 367 68 358 q 125 432 93 401 z "},"9":{"ha":714,"x_min":42,"x_max":667,"o":"m 476 185 q 499 401 494 261 q 461 363 481 379 q 383 321 428 333 q 322 314 356 314 q 283 317 304 314 q 206 342 240 324 q 172 363 188 351 q 153 378 164 368 q 107 428 126 400 q 46 610 54 503 q 50 715 42 661 q 56 742 56 738 q 83 815 67 781 q 94 838 88 826 q 182 936 126 892 q 203 951 190 944 q 274 986 236 974 q 307 994 293 992 q 460 971 385 1007 q 510 939 485 958 q 525 926 517 933 q 631 750 594 863 q 642 717 635 739 q 650 681 646 699 q 657 639 653 663 q 661 596 658 624 q 665 549 664 581 q 665 496 665 532 q 663 424 665 461 q 653 349 658 382 q 621 225 644 286 q 578 138 604 181 q 481 36 538 75 q 461 24 472 29 q 428 7 443 14 q 351 -12 393 -8 q 314 -15 331 -15 q 289 -14 304 -15 q 179 11 225 -10 q 143 33 158 22 q 128 46 133 40 q 110 67 117 57 q 99 86 103 76 q 92 111 93 97 q 99 157 88 135 q 131 189 110 179 q 164 197 146 197 q 174 197 164 197 q 219 181 199 194 q 239 165 232 172 q 271 125 254 151 q 279 111 274 121 q 290 94 285 101 q 301 81 294 86 q 333 61 315 67 q 361 57 347 57 q 372 57 361 57 q 421 76 400 58 q 442 101 432 85 q 454 121 447 108 q 476 185 467 147 m 217 667 q 222 553 217 599 q 231 513 225 535 q 233 497 232 503 q 261 435 244 458 q 283 410 272 419 q 364 388 315 382 q 425 413 399 392 q 444 433 436 421 q 451 443 446 436 q 488 535 476 479 q 490 557 489 544 q 496 636 496 592 q 485 776 494 724 q 471 829 479 807 q 415 915 453 888 q 389 928 403 924 q 369 933 379 932 q 325 933 349 936 q 313 931 317 932 q 290 921 299 926 q 265 900 276 914 q 261 894 264 897 q 258 890 258 890 q 229 819 240 864 q 225 800 228 813 q 217 667 217 747 z "},"¤":{"ha":506,"x_min":46,"x_max":414,"o":"m 46 0 l 46 925 l 414 925 l 414 0 l 46 0 m 92 46 l 368 46 l 368 879 l 92 879 l 92 46 z "},"¦":{"ha":506,"x_min":46,"x_max":414,"o":"m 46 0 l 46 925 l 414 925 l 414 0 l 46 0 m 92 46 l 368 46 l 368 879 l 92 879 l 92 46 z "},"§":{"ha":506,"x_min":46,"x_max":414,"o":"m 46 0 l 46 925 l 414 925 l 414 0 l 46 0 m 92 46 l 368 46 l 368 879 l 92 879 l 92 46 z "},"ª":{"ha":506,"x_min":46,"x_max":414,"o":"m 46 0 l 46 925 l 414 925 l 414 0 l 46 0 m 92 46 l 368 46 l 368 879 l 92 879 l 92 46 z "},"¬":{"ha":506,"x_min":46,"x_max":414,"o":"m 46 0 l 46 925 l 414 925 l 414 0 l 46 0 m 92 46 l 368 46 l 368 879 l 92 879 l 92 46 z "},"­":{"ha":506,"x_min":46,"x_max":414,"o":"m 46 0 l 46 925 l 414 925 l 414 0 l 46 0 m 92 46 l 368 46 l 368 879 l 92 879 l 92 46 z "},"¯":{"ha":506,"x_min":46,"x_max":414,"o":"m 46 0 l 46 925 l 414 925 l 414 0 l 46 0 m 92 46 l 368 46 l 368 879 l 92 879 l 92 46 z "},"°":{"ha":506,"x_min":46,"x_max":414,"o":"m 46 0 l 46 925 l 414 925 l 414 0 l 46 0 m 92 46 l 368 46 l 368 879 l 92 879 l 92 46 z "},"²":{"ha":506,"x_min":46,"x_max":414,"o":"m 46 0 l 46 925 l 414 925 l 414 0 l 46 0 m 92 46 l 368 46 l 368 879 l 92 879 l 92 46 z "},"³":{"ha":506,"x_min":46,"x_max":414,"o":"m 46 0 l 46 925 l 414 925 l 414 0 l 46 0 m 92 46 l 368 46 l 368 879 l 92 879 l 92 46 z "},"µ":{"ha":506,"x_min":46,"x_max":414,"o":"m 46 0 l 46 925 l 414 925 l 414 0 l 46 0 m 92 46 l 368 46 l 368 879 l 92 879 l 92 46 z "},"¶":{"ha":506,"x_min":46,"x_max":414,"o":"m 46 0 l 46 925 l 414 925 l 414 0 l 46 0 m 92 46 l 368 46 l 368 879 l 92 879 l 92 46 z "},"·":{"ha":506,"x_min":46,"x_max":414,"o":"m 46 0 l 46 925 l 414 925 l 414 0 l 46 0 m 92 46 l 368 46 l 368 879 l 92 879 l 92 46 z "},"¹":{"ha":506,"x_min":46,"x_max":414,"o":"m 46 0 l 46 925 l 414 925 l 414 0 l 46 0 m 92 46 l 368 46 l 368 879 l 92 879 l 92 46 z "},"º":{"ha":506,"x_min":46,"x_max":414,"o":"m 46 0 l 46 925 l 414 925 l 414 0 l 46 0 m 92 46 l 368 46 l 368 879 l 92 879 l 92 46 z "},"\u0000":{"ha":1389,"x_min":0,"x_max":0,"o":""}," ":{"ha":278,"x_min":0,"x_max":0,"o":""},"!":{"ha":271,"x_min":44,"x_max":228,"o":"m 50 956 q 53 982 50 978 q 67 990 56 988 q 93 988 83 990 q 133 985 115 985 q 171 988 149 985 q 185 988 176 988 q 199 989 194 989 q 219 983 214 989 q 224 956 228 976 q 217 825 218 893 q 208 643 217 736 q 201 585 206 615 q 192 517 197 554 q 183 460 186 481 q 176 372 179 428 q 171 296 174 317 q 132 289 171 289 q 126 289 128 289 q 106 296 113 289 q 100 376 103 321 q 96 457 97 431 q 76 626 93 485 q 67 724 72 661 q 60 799 61 786 q 50 954 51 917 l 50 956 m 208 74 q 182 15 208 38 q 121 -7 156 -7 q 67 18 88 -7 q 44 75 44 47 q 68 135 44 108 q 128 160 93 160 q 183 133 161 160 q 208 74 208 106 z "},"\"":{"ha":508,"x_min":44,"x_max":463,"o":"m 306 636 l 306 638 l 269 676 q 303 713 283 690 q 340 776 332 749 q 349 815 349 797 q 342 838 349 828 q 322 860 338 844 q 300 885 306 875 q 293 908 294 897 q 293 932 290 919 q 314 975 297 958 q 356 993 333 992 q 371 994 364 994 q 410 983 393 994 q 440 957 429 972 q 454 928 449 944 q 460 907 458 915 q 460 874 463 892 q 459 868 460 872 q 458 863 458 864 q 424 774 450 818 q 411 756 415 763 q 306 636 375 703 m 81 636 l 81 638 l 44 676 q 78 713 58 690 q 115 776 107 749 q 124 815 124 797 q 117 838 124 828 q 97 860 113 844 q 75 885 81 875 q 68 908 69 897 q 68 932 65 919 q 89 975 72 958 q 131 993 108 992 q 146 994 139 994 q 185 983 168 994 q 215 957 204 972 q 229 928 224 944 q 235 907 233 915 q 235 874 238 892 q 234 868 235 872 q 233 863 233 864 q 199 774 225 818 q 186 756 190 763 q 81 636 150 703 z "},"#":{"ha":1072,"x_min":40,"x_max":1031,"o":"m 650 578 l 489 578 l 432 418 l 594 418 l 650 578 m 397 701 l 507 1010 l 643 1010 l 532 701 l 690 701 l 800 1010 l 936 1010 l 826 701 l 1031 701 l 988 578 l 783 578 l 728 418 l 944 418 l 901 296 l 685 296 l 575 -12 l 439 -12 l 549 296 l 389 296 l 279 -12 l 144 -12 l 254 296 l 40 296 l 86 418 l 297 418 l 354 578 l 125 578 l 171 701 l 397 701 z "},"$":{"ha":707,"x_min":44,"x_max":663,"o":"m 303 924 q 229 883 258 910 q 192 789 192 850 q 229 694 192 733 q 301 635 260 661 q 301 788 301 635 q 303 924 303 836 m 507 201 q 467 308 504 268 q 390 371 438 339 l 390 42 q 469 90 438 54 q 507 201 507 129 m 626 404 q 663 267 660 340 q 582 43 663 124 q 389 -49 507 -32 q 389 -57 389 -49 l 389 -100 q 388 -124 389 -115 l 385 -139 l 342 -139 q 324 -139 332 -139 l 315 -137 l 306 -133 l 303 -122 q 301 -101 301 -115 l 301 -54 q 267 -49 289 -54 q 225 -33 226 -33 l 189 -19 q 156 -15 163 -8 q 143 -33 147 -26 q 124 -58 133 -50 q 82 -72 107 -72 q 51 -39 56 -72 q 49 4 49 -26 q 50 53 49 36 q 51 90 51 68 q 52 124 51 103 q 53 154 53 144 q 57 218 53 183 q 69 247 58 239 q 107 254 82 260 l 110 253 q 142 231 132 253 q 153 199 149 217 q 161 163 158 176 q 171 135 164 153 q 232 64 192 88 q 301 38 264 44 l 301 422 l 218 468 q 132 531 163 503 q 69 613 92 569 q 44 724 44 658 q 65 838 44 788 q 124 926 88 892 q 213 986 158 961 q 304 1011 261 1006 l 304 1088 l 317 1092 q 333 1096 328 1096 l 346 1096 q 353 1095 347 1096 q 361 1094 358 1094 q 386 1083 378 1092 l 393 1076 l 392 1067 q 390 1051 390 1063 l 390 1014 l 390 1010 q 436 996 406 1007 q 493 967 472 981 l 496 967 q 504 979 497 971 q 522 1010 508 990 q 568 1028 538 1028 q 599 1000 593 1028 q 601 964 601 978 q 599 922 601 938 q 598 904 599 915 q 597 889 597 893 q 597 854 597 872 q 593 747 597 800 q 581 719 590 729 q 543 711 567 706 q 538 713 540 713 q 507 736 518 713 q 497 768 503 746 q 489 803 492 790 q 479 829 485 821 q 431 896 457 875 q 389 919 408 914 l 389 586 q 457 551 400 581 q 532 510 499 531 q 626 404 592 471 z "},"%":{"ha":1164,"x_min":43,"x_max":1118,"o":"m 893 14 q 915 15 906 13 q 925 17 922 15 q 954 35 943 24 q 969 54 964 44 q 990 113 982 75 q 1000 226 1000 156 q 993 331 1000 288 q 983 368 989 353 q 944 426 969 410 q 915 439 933 436 q 888 439 901 442 q 876 436 876 436 q 846 418 863 432 q 828 390 832 400 q 813 346 817 371 q 810 338 811 343 q 808 331 808 333 q 801 228 801 289 q 807 139 801 168 q 813 108 807 125 q 815 96 813 104 q 836 49 822 68 q 860 25 844 35 q 893 14 875 14 m 993 -10 q 901 -33 951 -33 q 808 -10 851 -33 q 783 6 796 -4 q 774 12 779 8 q 768 17 769 15 q 692 153 710 68 q 690 160 692 154 q 688 170 689 165 q 686 181 686 175 q 683 226 683 206 q 686 272 683 247 q 692 300 689 292 q 694 312 692 304 q 697 324 697 319 q 768 435 718 392 q 774 441 769 438 q 782 447 779 444 q 836 474 807 464 q 863 481 846 478 q 914 485 879 485 q 965 474 942 482 q 1019 447 994 464 q 1035 435 1033 436 q 1111 300 1092 385 q 1115 272 1114 288 q 1118 226 1118 247 q 1115 181 1118 206 q 1111 153 1114 165 q 1108 141 1110 149 q 1104 129 1106 133 q 1033 17 1085 63 q 1027 12 1032 15 q 1018 6 1022 8 q 993 -10 1010 -3 m 253 539 l 251 539 q 274 540 265 539 q 285 543 276 540 q 314 560 299 547 q 329 581 324 569 q 350 639 344 608 q 360 751 360 683 q 351 856 360 815 q 342 894 347 879 q 304 953 331 932 q 275 964 283 963 q 246 964 260 967 q 240 963 243 964 q 236 963 238 963 q 206 943 217 957 q 186 915 194 932 q 171 871 176 894 q 168 857 168 863 q 160 753 160 815 q 165 664 160 703 q 168 649 167 658 q 171 633 169 639 q 174 621 174 625 q 194 574 185 588 q 218 550 210 556 q 253 539 229 542 m 353 515 q 260 493 310 493 q 168 515 210 493 q 143 531 149 526 q 128 543 136 535 q 50 678 69 594 q 46 706 47 697 q 43 751 43 731 q 46 799 43 774 q 50 826 47 810 q 53 838 51 831 q 57 849 56 844 q 126 960 75 913 q 142 972 135 968 q 196 1000 167 989 q 208 1003 200 1001 q 221 1007 217 1006 q 274 1010 250 1011 q 325 1000 301 1007 q 379 972 357 988 q 393 960 385 968 q 469 825 451 911 q 471 818 469 824 q 474 808 472 813 q 475 797 475 803 q 478 751 478 772 q 475 706 478 731 q 469 678 472 686 q 467 667 469 675 q 464 656 464 658 q 393 543 444 589 q 378 531 385 535 q 368 524 378 531 q 353 515 358 518 m 456 -14 l 353 -14 l 711 999 l 815 999 l 456 -14 z "},"&":{"ha":924,"x_min":40,"x_max":881,"o":"m 533 151 q 538 155 535 153 q 542 158 540 157 q 346 574 428 381 q 232 489 268 536 q 189 386 197 444 q 186 351 186 369 q 189 325 186 338 q 215 235 193 282 q 250 182 228 208 q 264 165 261 168 q 375 100 315 111 q 475 110 428 90 q 533 151 506 122 m 872 -14 l 872 -12 l 633 -12 l 572 100 q 525 56 550 76 q 447 8 488 25 q 415 -3 435 3 q 374 -12 397 -8 q 201 15 281 -26 q 90 118 132 50 q 58 186 69 151 q 49 229 51 206 q 47 322 40 278 q 57 365 51 343 q 65 392 60 376 q 101 460 79 428 q 189 554 139 515 q 322 635 236 593 q 310 681 313 668 q 303 722 306 699 q 300 756 300 738 q 301 778 300 763 q 308 822 303 799 q 314 846 311 836 q 328 881 321 867 q 347 913 336 897 q 367 938 356 926 q 413 975 388 960 q 465 999 438 990 q 506 1008 483 1004 q 550 1011 529 1011 q 579 1010 565 1011 q 661 988 624 1004 q 749 901 728 957 q 753 854 757 879 q 733 813 749 829 q 688 792 715 794 q 625 806 653 788 q 583 856 601 821 q 575 877 581 863 q 567 899 569 892 q 553 919 560 911 q 533 933 543 929 q 481 933 507 944 q 458 918 468 928 q 433 863 438 896 q 432 835 431 849 q 440 788 433 811 q 481 678 449 756 q 642 313 544 525 q 683 435 671 382 q 694 532 699 499 q 686 558 692 547 q 632 604 671 597 l 632 654 l 881 654 l 881 606 q 872 603 878 604 q 864 600 867 601 q 843 588 854 596 q 819 563 831 578 q 778 482 803 542 q 685 240 735 376 q 751 125 742 142 q 794 74 774 92 q 806 65 796 74 q 872 38 831 47 l 872 -14 z "},"'":{"ha":282,"x_min":44,"x_max":238,"o":"m 81 636 l 79 638 l 44 676 q 78 713 64 696 q 115 776 104 746 q 124 815 124 799 q 117 838 124 828 q 97 860 113 844 q 75 885 81 875 q 68 908 68 897 q 68 932 65 921 q 89 975 72 957 q 131 993 106 990 q 185 983 160 997 q 215 957 203 974 q 229 928 225 943 q 235 907 233 918 q 235 874 236 890 q 234 867 235 871 q 233 863 233 864 q 199 774 225 819 q 193 767 197 774 q 186 756 189 760 q 81 636 151 704 z "},"(":{"ha":410,"x_min":47,"x_max":368,"o":"m 47 374 q 64 554 47 469 q 115 719 81 640 q 199 883 150 804 q 249 956 229 933 q 289 983 269 978 q 336 989 307 989 q 367 971 367 989 q 338 901 367 965 q 282 768 307 835 q 235 594 257 699 q 213 373 213 489 q 233 154 213 257 q 283 -24 257 49 q 339 -160 311 -99 q 367 -225 367 -219 q 335 -242 367 -242 q 288 -236 306 -242 q 250 -207 269 -231 q 199 -136 229 -183 q 115 28 149 -53 q 65 191 82 106 q 47 374 47 276 z "},")":{"ha":408,"x_min":42,"x_max":361,"o":"m 344 190 q 293 28 326 106 q 210 -136 260 -53 q 160 -207 178 -186 q 121 -236 139 -231 q 74 -242 103 -242 q 42 -225 42 -242 q 69 -160 42 -219 q 125 -24 100 -96 q 175 154 153 53 q 197 372 197 257 q 175 593 197 488 q 126 768 153 699 q 71 901 99 842 q 42 971 42 965 q 74 989 42 989 q 121 983 101 989 q 160 956 138 978 q 210 883 179 935 q 294 719 260 801 q 344 553 328 638 q 361 373 361 469 q 343 190 361 276 l 344 190 z "},"+":{"ha":779,"x_min":47,"x_max":732,"o":"m 731 554 l 731 432 l 450 432 l 450 151 l 328 151 l 328 432 l 47 432 l 47 554 l 328 554 l 328 835 l 450 835 l 450 554 l 731 554 z "},",":{"ha":290,"x_min":47,"x_max":240,"o":"m 83 -203 l 82 -203 l 47 -162 q 81 -126 67 -143 q 118 -62 107 -93 q 126 -24 126 -40 q 119 -1 126 -11 q 99 20 115 6 q 78 44 83 35 q 71 69 71 58 q 71 93 68 82 q 92 135 75 118 q 133 154 108 151 q 188 144 163 158 q 218 117 206 135 q 232 89 228 104 q 238 68 236 79 q 238 35 239 51 q 237 28 238 32 q 236 24 236 25 q 201 -65 228 -19 q 196 -73 200 -65 q 189 -83 192 -81 q 83 -203 154 -135 z "},"-":{"ha":515,"x_min":57,"x_max":458,"o":"m 57 299 l 57 421 l 458 421 l 458 299 l 57 299 z "},".":{"ha":260,"x_min":50,"x_max":213,"o":"m 53 65 q 53 88 50 75 q 76 132 57 114 q 131 153 99 153 q 154 150 142 153 q 163 146 161 147 q 189 128 178 139 q 204 99 200 115 q 204 51 211 75 q 201 43 201 43 q 176 13 193 24 q 143 -1 161 1 q 121 -3 132 -4 q 76 21 96 1 q 53 65 56 40 z "},"/":{"ha":544,"x_min":40,"x_max":504,"o":"m 144 -18 l 40 -18 l 400 993 l 503 993 l 144 -18 z "},":":{"ha":264,"x_min":50,"x_max":217,"o":"m 51 200 l 53 200 q 53 222 50 210 q 76 268 57 250 q 132 290 100 290 q 157 286 144 290 q 165 283 164 283 q 192 264 181 276 q 208 235 203 251 q 208 186 215 210 q 206 176 207 182 q 179 144 197 157 q 144 131 163 133 q 122 129 133 129 q 76 153 96 133 q 51 200 56 174 m 51 613 l 53 614 q 53 636 50 624 q 60 658 54 646 q 122 704 78 699 q 179 690 153 708 q 208 649 200 674 q 208 599 215 624 q 206 590 207 594 q 179 557 197 571 q 144 543 163 546 q 111 544 128 540 q 71 571 88 551 q 51 613 54 590 z "},";":{"ha":282,"x_min":43,"x_max":236,"o":"m 69 688 l 71 686 q 71 710 69 697 q 78 732 72 721 q 142 778 97 772 q 199 764 172 783 q 228 722 219 749 q 228 672 236 697 q 225 664 228 669 q 199 632 215 644 q 164 617 182 619 q 131 618 147 614 q 90 644 107 625 q 69 688 74 664 m 78 7 l 43 46 q 76 82 65 68 q 114 146 104 117 q 121 185 121 168 q 114 206 121 196 q 95 226 111 211 q 74 251 79 242 q 65 275 67 264 q 65 299 64 288 q 88 340 69 324 q 128 360 104 357 q 182 350 157 364 q 211 324 199 342 q 225 294 221 310 q 231 275 229 285 q 231 242 232 258 q 230 235 231 239 q 229 231 229 232 q 194 143 221 189 q 182 125 188 133 q 78 7 147 72 z "},"<":{"ha":661,"x_min":46,"x_max":618,"o":"m 499 286 l 617 204 l 617 194 q 614 168 617 178 q 607 154 611 161 q 606 151 607 153 q 604 147 604 149 q 603 135 603 144 l 603 103 l 574 118 q 432 194 489 163 q 319 263 372 229 q 203 338 249 307 q 56 431 150 371 l 46 436 l 46 547 l 56 553 q 160 615 131 596 q 242 667 203 640 q 311 715 268 685 q 382 763 347 740 q 463 814 421 788 q 567 872 515 844 l 596 888 l 596 854 q 596 840 596 840 q 599 832 597 836 q 600 827 599 831 q 601 822 601 824 q 604 799 604 814 l 604 789 l 596 782 q 481 696 525 731 q 385 621 404 638 q 296 551 340 586 q 272 534 288 546 q 244 512 257 522 q 219 493 231 501 q 315 418 242 475 q 408 350 376 372 q 499 286 443 325 z "},"=":{"ha":768,"x_min":57,"x_max":710,"o":"m 57 288 l 57 410 l 710 410 l 710 288 l 57 288 m 57 585 l 57 707 l 710 707 l 710 585 l 57 585 z "},">":{"ha":661,"x_min":43,"x_max":615,"o":"m 163 286 q 253 350 217 325 q 344 418 283 372 q 442 493 419 475 q 416 512 429 501 q 388 534 403 522 q 365 551 372 546 q 275 621 321 586 q 181 696 256 638 q 64 782 135 731 l 56 789 l 56 799 q 58 822 56 814 q 60 827 60 824 q 61 832 61 831 q 64 840 63 836 q 65 854 65 844 l 65 888 l 94 872 q 197 814 146 844 q 278 763 240 788 q 349 715 313 740 q 419 667 392 685 q 500 615 458 640 q 604 553 529 596 l 614 547 l 614 436 l 606 431 q 457 338 510 371 q 342 263 411 307 q 228 194 288 229 q 86 118 171 163 l 57 103 l 57 135 q 57 147 57 147 q 55 151 56 149 q 53 154 54 153 q 47 168 50 160 q 43 194 43 178 l 43 204 l 163 286 z "},"?":{"ha":650,"x_min":40,"x_max":607,"o":"m 274 238 l 271 238 l 201 238 l 199 544 q 213 544 203 544 q 226 544 222 544 q 322 551 278 542 q 356 563 340 556 q 378 572 368 567 q 417 601 400 585 q 443 636 431 617 q 450 649 449 647 q 468 707 463 675 q 471 726 469 714 q 469 796 474 761 q 467 818 468 806 q 451 864 461 843 q 435 890 443 878 q 419 907 425 901 q 357 946 394 933 q 308 953 333 953 q 290 953 296 953 q 274 950 281 951 q 221 914 239 942 q 206 857 208 893 q 203 821 204 831 q 183 772 197 792 q 160 751 175 760 q 135 743 149 744 q 125 742 129 742 q 106 742 114 740 q 65 763 82 746 q 43 821 44 783 q 65 899 42 858 q 96 938 76 919 q 108 949 106 947 q 133 968 118 958 q 151 979 150 978 q 183 993 171 989 q 264 1014 221 1008 q 304 1017 286 1017 q 354 1013 328 1017 q 386 1006 371 1010 q 419 994 400 1001 q 481 960 451 981 q 544 894 518 931 q 582 829 567 865 q 601 760 594 797 q 604 732 604 743 q 604 678 607 707 q 571 549 599 604 q 546 506 558 524 q 518 474 533 489 q 488 446 507 463 q 464 431 481 442 q 363 390 418 403 q 281 381 324 382 l 274 238 m 139 64 q 147 115 136 89 q 221 168 169 161 q 264 164 242 171 q 307 135 290 156 q 328 90 324 115 q 319 35 332 61 q 284 -4 308 11 q 233 -19 260 -19 q 171 5 199 -19 q 139 64 143 29 z "},"@":{"ha":1346,"x_min":47,"x_max":1301,"o":"m 1288 579 l 1288 581 q 1300 469 1300 528 q 1278 321 1300 396 q 1215 179 1256 246 q 1113 65 1175 114 q 974 0 1051 17 q 954 -3 967 -1 q 935 -3 947 -3 q 835 38 872 -3 q 800 92 813 63 q 776 71 788 79 q 715 28 750 47 q 644 -3 681 8 q 572 -15 607 -15 q 440 39 479 -15 q 403 169 403 89 q 425 246 403 210 q 475 304 444 278 q 540 349 507 331 q 604 378 571 365 q 707 414 654 396 q 794 440 747 428 l 794 539 q 772 636 794 600 q 694 667 754 667 q 629 654 653 667 q 590 624 603 640 q 571 590 576 607 q 561 558 565 572 q 519 502 551 525 q 450 479 488 479 q 408 513 415 479 q 404 546 404 531 q 442 638 404 592 q 524 713 475 678 q 629 768 574 747 q 736 790 689 790 q 768 788 746 790 q 803 782 779 786 q 839 774 824 779 q 868 763 856 769 q 944 678 929 731 q 958 574 958 629 q 957 440 958 499 q 956 307 956 381 l 956 260 q 957 188 956 224 q 965 147 960 154 q 971 142 967 143 q 1060 171 1018 126 q 1119 257 1096 206 q 1158 364 1144 307 q 1171 456 1171 419 q 1135 632 1171 551 q 1033 769 1097 711 q 886 860 971 826 q 708 892 801 892 q 504 849 594 892 q 350 732 414 806 q 251 560 286 658 q 217 353 217 461 q 250 160 217 247 q 344 4 283 72 q 508 -112 414 -71 q 718 -154 603 -154 q 813 -145 761 -154 q 914 -119 865 -136 q 1010 -76 964 -101 q 1081 -19 1051 -51 l 1089 -8 l 1139 -21 q 1172 -29 1161 -26 l 1213 -36 l 1185 -65 q 968 -224 1089 -169 q 707 -278 847 -278 q 508 -249 606 -278 q 331 -165 414 -221 q 186 -35 250 -111 q 85 140 122 43 q 56 257 64 196 q 47 376 47 317 q 101 624 47 506 q 249 832 156 743 q 463 965 343 921 q 871 988 665 1040 q 1026 925 954 967 q 1157 824 1099 883 q 1251 685 1217 764 q 1288 579 1275 635 m 649 117 q 706 131 676 117 q 757 167 736 146 q 778 196 765 178 q 792 226 788 211 l 796 279 l 796 322 l 796 338 q 788 336 793 338 q 750 324 765 329 q 713 310 728 315 q 678 297 685 299 q 607 254 639 283 q 578 192 578 231 q 594 135 578 154 q 649 117 608 117 z "},"A":{"ha":944,"x_min":47,"x_max":893,"o":"m 447 790 l 314 382 l 571 382 l 447 790 m 304 3 l 47 3 l 47 50 l 56 53 q 108 85 90 67 q 160 158 140 117 q 165 169 161 161 q 169 181 168 176 q 197 261 179 203 l 436 994 l 538 994 l 803 181 q 814 143 806 168 q 858 65 835 89 q 893 54 869 54 l 893 3 l 611 0 l 611 51 q 643 63 629 56 q 656 85 656 72 q 656 101 658 89 q 647 132 656 104 q 592 310 622 210 l 289 310 l 251 193 q 240 136 240 156 q 240 114 240 114 q 268 64 246 79 q 304 51 275 58 l 304 3 z "},"B":{"ha":888,"x_min":47,"x_max":839,"o":"m 418 1 l 47 1 l 47 54 q 74 56 67 54 q 86 63 81 58 q 99 81 93 68 q 106 104 103 92 q 108 158 108 122 l 108 836 q 103 904 108 882 q 93 925 99 918 q 76 939 88 935 q 47 943 68 943 l 47 994 l 271 1000 q 435 1001 399 1004 q 615 967 539 996 q 642 956 629 961 q 756 869 715 921 q 774 843 767 857 q 785 822 779 835 q 800 749 800 786 q 782 669 800 707 q 771 650 776 658 q 760 633 765 640 q 750 622 756 629 q 690 574 725 594 q 597 533 653 551 q 665 508 636 522 q 776 426 733 476 q 800 393 790 410 q 815 365 810 378 q 833 301 829 333 q 831 218 839 263 q 769 103 818 150 q 731 71 750 85 q 722 66 726 69 q 715 63 717 63 q 622 24 675 39 q 596 18 607 19 q 418 1 521 1 m 272 838 l 272 836 l 272 564 l 344 564 q 540 590 476 565 q 579 611 558 597 q 597 626 588 618 q 618 657 610 640 q 624 668 619 658 q 632 693 629 683 q 635 711 635 703 q 636 771 639 742 q 631 801 633 788 q 624 822 629 810 q 581 883 610 858 q 510 921 553 908 q 406 935 464 935 q 319 928 347 936 q 296 918 304 924 q 281 899 286 911 q 275 881 276 889 q 272 838 272 867 m 413 497 l 411 496 l 272 496 l 272 156 q 274 122 272 136 q 283 89 275 100 q 300 76 289 81 q 336 69 311 71 q 493 75 424 63 q 528 82 513 78 q 572 100 549 89 q 582 106 576 103 q 604 121 593 111 q 651 185 636 146 q 663 224 660 204 q 667 256 665 240 q 667 313 668 281 q 661 346 665 331 q 656 368 660 357 q 628 422 646 399 q 603 447 617 436 q 582 461 593 456 q 539 481 560 474 q 521 486 532 482 q 482 493 506 490 q 413 497 450 497 z "},"C":{"ha":940,"x_min":47,"x_max":892,"o":"m 846 271 l 846 269 l 892 238 q 843 164 865 192 q 818 135 831 147 q 676 24 756 61 q 496 -18 593 -18 q 447 -15 481 -18 q 343 4 393 -11 q 303 18 321 11 q 229 61 268 33 q 179 103 200 82 q 61 331 92 190 q 53 382 56 356 q 47 468 47 429 q 47 486 47 468 q 51 556 47 526 q 60 608 54 575 q 82 693 65 642 q 86 705 83 699 q 92 720 89 711 q 99 736 96 729 q 132 799 115 771 q 172 854 160 840 q 200 888 176 860 q 213 900 204 892 q 225 911 222 908 q 243 926 232 918 q 278 951 253 935 q 290 957 282 953 q 301 964 297 961 q 388 996 347 988 q 418 1003 399 1000 q 501 1010 454 1010 l 524 1010 q 678 978 597 1007 q 846 890 750 951 l 789 708 l 739 715 q 729 743 733 735 q 672 849 706 808 q 646 878 660 865 q 624 896 636 888 q 571 926 601 915 q 478 943 529 943 l 471 943 q 363 914 414 943 q 313 875 346 904 q 299 860 303 865 q 240 760 264 818 q 210 628 218 704 q 206 551 206 592 q 211 463 206 501 q 258 288 222 361 q 383 136 307 186 q 393 130 386 133 q 403 124 400 126 q 435 108 422 114 q 471 96 464 97 q 549 86 506 86 q 596 90 571 86 q 642 100 604 92 q 669 111 664 108 q 742 154 708 128 q 846 271 797 199 z "},"D":{"ha":997,"x_min":47,"x_max":944,"o":"m 274 836 l 274 835 l 274 142 q 274 129 274 142 q 279 99 274 115 q 301 78 288 82 q 324 71 308 74 q 356 68 346 68 q 388 68 356 68 q 499 75 453 68 q 543 85 532 81 q 601 104 575 92 q 669 149 640 121 q 714 207 696 174 q 749 297 733 239 q 756 325 756 325 q 768 494 768 396 q 751 674 768 596 q 713 782 738 732 q 696 813 710 788 q 689 822 694 814 q 681 833 683 829 q 601 899 647 875 q 479 932 553 925 q 418 935 440 935 q 349 929 381 935 q 308 918 318 924 q 288 900 290 906 q 276 875 281 892 q 274 836 274 867 m 418 0 l 418 1 l 47 1 l 47 53 q 61 53 51 53 q 74 56 71 54 q 86 63 85 61 q 99 79 92 67 q 104 104 103 92 q 108 158 108 122 l 108 836 q 101 904 108 881 q 93 925 100 915 q 76 939 86 936 q 47 942 69 942 l 47 994 q 329 1003 324 1003 l 378 1003 q 526 996 478 1003 q 581 986 550 992 q 597 981 585 985 q 617 976 610 978 l 671 956 q 843 813 774 907 q 935 590 913 717 q 944 486 944 532 q 944 463 944 478 q 943 440 943 447 q 908 282 935 346 q 900 263 906 276 q 892 243 894 250 q 858 190 869 206 q 819 143 847 175 q 804 130 814 139 q 790 117 794 121 q 732 75 765 96 q 597 21 669 39 q 418 0 508 0 z "},"E":{"ha":883,"x_min":47,"x_max":833,"o":"m 771 0 l 47 0 l 47 53 q 63 53 54 53 q 74 54 72 54 q 86 61 82 58 q 99 79 94 67 q 106 103 104 94 q 108 157 108 121 l 108 836 q 103 904 108 885 q 93 925 99 917 q 76 939 86 936 q 47 942 69 942 l 47 994 l 750 994 l 768 781 l 715 774 q 706 800 708 794 q 674 853 689 836 q 631 890 660 871 q 596 904 614 900 q 588 907 593 906 q 581 908 583 908 q 525 917 554 914 q 349 921 467 921 q 299 917 319 921 q 278 903 283 914 q 274 874 274 893 l 274 858 l 274 597 l 400 597 q 514 606 476 597 q 524 607 517 606 q 533 610 531 608 q 542 613 542 613 l 561 622 q 608 690 589 639 l 654 690 l 654 432 l 607 432 q 588 475 596 463 q 547 510 574 497 q 518 518 547 510 q 513 519 517 518 q 506 519 508 519 q 439 524 483 524 q 274 522 383 522 l 274 153 q 275 121 274 131 q 285 89 276 100 q 303 79 292 81 q 353 74 319 74 l 374 74 l 443 74 q 564 81 514 74 q 664 115 622 89 q 785 243 728 157 l 833 217 l 771 0 z "},"F":{"ha":808,"x_min":47,"x_max":760,"o":"m 336 1 l 47 1 l 47 54 q 74 56 69 54 q 88 63 81 58 q 99 81 94 69 q 106 104 101 86 q 110 158 110 122 l 110 836 q 103 904 110 881 q 94 925 97 921 q 78 939 89 936 q 47 942 71 942 l 47 994 l 740 994 l 760 785 l 713 774 q 689 825 706 799 q 679 840 685 835 q 658 865 672 851 q 592 904 633 890 q 535 915 563 913 q 444 919 489 919 q 314 914 400 919 q 286 910 288 910 q 281 908 285 910 l 278 907 q 276 904 278 907 q 275 900 275 901 q 274 885 274 899 l 274 597 l 406 597 q 504 603 472 597 q 550 615 528 606 q 593 650 575 624 q 611 696 601 664 l 657 696 l 657 436 l 611 436 q 586 485 597 469 q 532 515 565 510 q 464 522 504 522 l 401 522 l 274 522 l 274 158 q 281 90 274 114 q 289 69 282 79 q 306 57 296 60 q 336 53 317 53 l 336 1 z "},"G":{"ha":1011,"x_min":47,"x_max":961,"o":"m 693 519 q 683 521 686 521 q 683 535 683 521 q 683 568 683 535 l 958 568 l 958 519 q 942 519 958 519 q 926 514 935 519 q 911 494 914 504 q 903 456 903 478 l 903 219 q 903 213 903 217 q 904 207 904 208 q 919 164 906 178 q 961 151 932 151 l 961 113 q 696 10 819 42 q 519 -14 586 -14 l 508 -14 q 499 -14 508 -14 q 346 13 422 -14 q 210 97 279 38 q 115 210 150 151 q 100 239 107 226 q 64 343 76 289 q 56 379 57 365 q 47 479 47 428 q 58 600 47 536 q 69 643 64 625 q 92 707 83 688 q 167 831 119 772 q 211 881 185 854 q 258 921 231 900 q 364 978 310 957 q 419 994 390 988 q 456 1003 446 1001 q 489 1008 467 1006 q 556 1013 522 1013 q 581 1013 556 1013 q 628 1007 611 1010 q 658 1001 631 1007 q 710 989 683 996 q 764 969 739 981 q 901 896 822 947 l 860 714 l 818 717 q 771 801 799 760 q 763 813 768 806 q 756 822 757 821 q 728 853 740 842 q 706 874 722 860 q 679 894 689 888 q 610 928 642 917 q 574 938 601 931 q 515 943 544 943 q 450 936 485 943 q 350 889 392 925 q 311 849 331 872 q 304 840 308 846 q 299 833 300 835 q 251 733 265 782 q 242 703 249 726 q 238 685 240 697 q 235 669 236 674 q 233 651 235 664 q 229 631 231 638 q 228 618 229 626 q 225 601 226 610 q 224 582 224 592 q 221 500 221 540 q 224 417 221 461 q 227 388 225 404 q 229 368 229 371 q 233 347 231 360 q 235 329 235 333 q 238 313 236 325 q 242 296 240 301 q 289 179 258 233 q 311 147 296 167 q 329 126 315 140 q 428 65 368 85 q 454 57 438 60 q 496 51 468 54 q 531 50 504 50 q 567 51 557 50 q 607 57 594 54 q 658 74 635 63 q 707 106 690 89 q 736 149 728 124 q 744 193 744 168 l 744 435 q 735 488 744 465 q 731 494 732 493 q 693 519 717 515 z "},"H":{"ha":965,"x_min":47,"x_max":911,"o":"m 335 1 l 47 1 l 47 54 q 74 56 69 54 q 86 63 85 61 q 99 81 94 68 q 106 104 103 92 q 108 158 108 122 l 108 836 q 103 904 108 888 q 97 918 101 910 l 94 926 q 76 940 88 935 q 47 943 67 943 l 47 996 l 336 996 l 336 943 q 318 942 324 943 q 300 938 307 942 q 282 910 286 929 q 278 892 279 900 q 274 836 274 874 l 274 585 l 686 585 l 686 836 q 679 904 686 876 q 669 925 675 917 q 653 939 664 936 q 622 943 642 943 l 622 994 l 911 994 l 911 943 q 901 942 907 943 q 890 941 894 942 q 885 940 886 940 q 871 933 878 938 q 858 915 863 928 q 851 890 853 900 q 849 836 849 872 l 849 157 q 853 103 849 121 q 861 78 854 89 q 869 64 865 68 q 911 53 878 56 l 911 0 l 622 0 l 622 53 q 649 56 640 53 q 663 63 656 56 q 675 81 668 67 q 682 104 681 96 q 685 157 685 122 l 685 510 l 274 510 l 274 157 q 279 90 274 124 q 289 69 283 78 q 306 56 293 61 q 335 53 313 53 l 335 1 z "},"I":{"ha":392,"x_min":47,"x_max":338,"o":"m 338 1 l 47 1 l 47 54 q 74 56 69 54 q 88 63 81 58 q 99 81 93 67 q 106 104 104 90 q 110 158 110 122 l 110 836 q 103 904 110 886 q 94 925 101 911 q 76 939 89 935 q 47 943 65 943 l 47 994 l 338 994 l 338 943 q 329 942 335 942 q 321 942 324 942 q 303 936 313 942 q 285 910 290 931 q 279 892 283 908 q 276 836 276 874 l 276 157 q 282 90 276 124 q 292 69 286 78 q 308 56 299 60 q 338 53 315 53 l 338 1 z "},"J":{"ha":604,"x_min":39,"x_max":553,"o":"m 483 842 l 483 61 q 478 -54 485 -8 q 469 -93 475 -74 q 464 -108 467 -101 q 440 -156 454 -133 q 419 -185 432 -169 q 315 -257 375 -235 q 283 -267 303 -261 q 238 -274 261 -272 q 193 -276 217 -276 q 136 -271 163 -276 q 118 -267 129 -271 q 65 -235 83 -256 q 46 -169 39 -206 q 83 -115 53 -136 q 135 -98 107 -99 q 179 -107 164 -97 q 203 -124 192 -114 q 231 -157 215 -133 q 253 -193 250 -189 q 271 -203 261 -201 q 285 -201 281 -203 q 294 -189 292 -199 q 299 -131 299 -176 l 299 843 q 294 897 297 882 q 285 922 290 911 q 276 935 282 929 q 229 944 264 943 l 229 994 l 553 994 l 553 944 q 542 944 549 944 q 533 943 536 944 q 513 939 521 942 q 493 913 500 932 q 488 896 489 906 q 483 842 483 878 z "},"K":{"ha":940,"x_min":47,"x_max":885,"o":"m 335 1 l 47 1 l 47 54 q 74 56 67 54 q 86 63 81 58 q 99 81 94 69 q 106 104 103 92 q 108 158 108 122 l 108 835 q 103 904 108 882 q 93 925 99 917 q 76 939 88 935 q 47 942 68 942 l 47 994 l 335 994 l 335 942 q 326 942 332 942 q 317 940 321 942 q 299 936 307 940 q 281 910 288 929 q 276 890 279 903 q 272 835 272 872 l 272 451 q 558 775 499 701 q 624 860 607 835 q 631 874 628 867 q 636 889 632 878 q 636 906 638 896 q 625 931 635 922 q 586 943 615 939 l 586 993 l 883 993 l 883 943 l 872 942 q 828 924 858 939 q 756 874 785 900 q 646 751 707 828 l 507 599 l 731 226 q 786 135 758 178 q 839 68 819 83 q 857 57 850 61 q 885 51 864 54 l 885 1 l 575 1 l 575 54 l 588 54 q 606 60 599 54 q 617 76 614 65 q 615 96 617 86 q 583 161 610 114 q 394 479 583 161 l 272 347 l 272 158 q 279 90 272 113 q 288 71 282 78 q 304 57 294 60 q 335 54 313 54 l 335 1 z "},"L":{"ha":828,"x_min":47,"x_max":779,"o":"m 724 1 l 47 1 l 47 54 q 74 56 68 54 q 88 63 82 58 q 99 81 94 69 q 106 104 103 92 q 110 158 110 122 l 110 835 q 103 903 110 881 q 93 924 99 915 q 76 938 88 933 q 47 940 68 940 l 47 993 l 338 993 l 338 940 q 328 940 335 940 q 319 940 322 940 q 301 935 310 939 q 283 908 290 929 q 279 890 281 903 q 275 835 275 872 l 275 154 q 276 122 275 133 q 285 93 278 101 q 299 83 289 88 q 350 76 315 76 q 494 81 435 74 q 535 88 517 83 q 550 92 543 89 q 651 149 608 108 q 726 243 686 181 l 778 226 l 724 1 z "},"M":{"ha":1229,"x_min":47,"x_max":1178,"o":"m 313 1 l 47 1 l 47 51 l 57 54 q 103 82 83 60 q 114 96 108 88 q 132 128 125 114 q 138 142 136 136 q 160 235 151 179 l 246 813 q 246 872 247 856 q 235 914 244 899 q 222 928 231 921 q 186 946 213 936 l 186 994 l 424 994 l 638 258 l 836 994 l 1063 994 l 1063 943 l 1051 943 q 1025 933 1036 940 q 1011 915 1017 926 q 1007 864 1004 899 q 1010 843 1007 857 l 1104 185 q 1111 140 1107 158 q 1128 94 1118 114 q 1133 85 1129 89 q 1151 63 1142 69 q 1178 53 1160 56 l 1178 3 l 890 3 l 890 54 l 901 54 q 932 67 919 56 q 949 101 946 79 q 947 146 950 118 l 856 785 l 642 -8 l 554 -8 l 317 789 l 238 240 q 231 169 231 197 q 235 125 231 147 q 238 111 236 118 q 263 72 246 86 q 313 53 278 58 l 313 1 z "},"N":{"ha":997,"x_min":47,"x_max":949,"o":"m 132 143 q 138 211 138 171 l 138 828 q 135 868 138 850 q 133 882 135 874 q 121 914 129 901 q 94 936 110 929 q 57 943 83 940 l 57 994 l 282 994 l 804 265 l 804 700 q 788 871 803 819 q 778 894 783 882 q 758 922 769 911 q 704 944 740 938 l 704 996 l 947 996 l 947 949 q 901 903 915 929 q 890 878 894 890 q 885 854 886 865 q 882 838 883 846 q 878 739 878 797 q 878 -10 878 739 l 801 -10 l 213 815 l 213 224 q 219 146 214 175 q 229 115 224 129 q 235 103 231 110 q 261 68 244 81 q 307 51 276 57 l 307 1 l 47 1 l 47 49 q 68 57 58 53 q 118 106 101 74 q 132 143 126 121 z "},"O":{"ha":990,"x_min":33,"x_max":939,"o":"m 424 56 q 536 50 476 42 q 575 60 557 53 q 596 68 588 64 q 665 121 638 86 q 711 201 692 151 q 753 424 744 288 q 740 700 761 592 q 721 772 733 738 q 656 886 699 842 q 601 925 631 911 q 517 949 564 944 q 446 944 479 951 q 372 914 406 936 q 338 885 354 903 q 306 846 322 869 q 296 829 301 839 q 254 726 271 785 q 247 696 251 717 q 228 496 228 611 q 238 329 226 399 q 249 271 242 303 q 263 225 256 244 q 329 110 285 156 q 363 82 344 94 q 424 56 390 64 m 578 -8 q 404 -10 494 -24 q 374 -3 393 -8 q 329 11 349 4 q 239 63 281 31 q 201 94 219 76 q 178 118 188 107 q 79 292 113 193 q 51 576 33 426 q 142 813 68 708 q 272 946 201 899 q 299 963 281 951 q 342 982 319 972 q 499 1012 418 1013 q 647 985 579 1011 q 688 967 669 976 q 711 953 703 958 q 747 928 729 943 q 769 908 758 919 q 814 858 794 882 q 892 729 864 799 q 915 664 907 696 q 925 619 922 639 q 936 543 933 585 q 938 500 938 522 q 933 432 936 460 q 900 294 925 360 q 874 236 889 265 q 854 200 865 221 q 729 60 797 111 q 701 40 714 49 q 610 0 658 14 q 578 -8 596 -4 z "},"P":{"ha":886,"x_min":47,"x_max":839,"o":"m 336 0 l 335 1 l 47 1 l 47 53 q 74 56 68 54 q 88 63 82 57 q 99 79 94 68 q 106 104 103 90 q 110 158 110 122 l 110 836 q 103 906 110 883 q 94 926 99 918 q 76 940 88 936 q 47 943 68 943 l 47 994 l 226 1006 q 463 1007 392 1014 q 546 996 500 1004 q 706 936 636 978 q 740 913 724 925 q 763 893 751 903 q 804 840 788 869 q 831 775 821 813 q 835 744 833 758 q 835 686 838 717 q 783 560 828 613 q 743 519 768 539 q 726 507 732 511 q 626 460 683 478 q 597 451 615 456 q 565 444 581 447 q 528 439 563 444 q 478 433 507 435 q 382 431 431 429 q 274 439 332 431 l 274 157 q 281 90 275 113 q 289 69 283 76 q 306 56 296 60 q 336 53 314 53 l 336 0 m 274 861 l 274 504 q 293 501 281 503 q 476 504 393 490 q 515 514 497 508 q 565 533 540 521 q 588 546 578 539 q 615 568 604 557 q 665 668 656 608 q 669 721 669 689 q 668 756 669 732 q 661 790 665 775 q 654 815 658 801 q 628 860 643 840 q 594 894 613 879 q 582 903 588 900 q 482 940 539 931 q 349 943 419 950 q 329 940 338 942 q 326 938 328 939 q 322 938 324 938 q 301 929 307 932 q 282 911 289 924 q 274 861 274 894 z "},"Q":{"ha":1007,"x_min":42,"x_max":958,"o":"m 592 188 q 656 106 625 157 q 674 122 665 114 q 697 156 689 140 q 701 163 699 158 q 704 168 704 167 q 718 197 714 185 q 739 260 732 229 q 746 290 743 274 q 760 410 756 339 q 747 696 769 586 q 729 768 739 739 q 663 883 706 839 q 628 911 647 899 q 564 940 600 931 q 518 947 542 946 q 443 943 479 950 q 367 913 401 935 q 332 883 349 900 q 300 843 317 868 q 290 826 296 836 q 249 725 264 781 q 242 694 246 714 q 222 493 222 613 q 232 328 221 396 q 243 268 236 301 q 257 222 249 249 q 324 110 281 153 q 357 82 338 94 q 419 54 383 64 q 526 49 475 40 q 493 107 508 85 q 471 132 479 124 q 433 163 451 153 q 418 171 424 169 q 382 175 399 178 q 339 154 365 174 l 308 193 q 358 228 338 215 q 393 243 374 236 q 419 249 406 247 q 472 250 446 254 q 494 244 482 249 q 524 233 510 240 q 550 219 538 228 q 575 203 561 213 q 592 188 582 197 m 765 92 q 701 39 736 64 q 735 -10 717 14 q 764 -40 744 -24 q 776 -49 771 -46 q 811 -65 794 -61 q 847 -71 828 -71 q 874 -67 861 -71 q 908 -46 893 -61 q 929 -24 911 -44 l 958 -62 q 913 -119 939 -94 q 808 -176 868 -164 q 729 -176 769 -185 q 708 -169 719 -174 q 690 -162 697 -165 q 667 -149 678 -157 q 644 -132 653 -139 q 603 -86 622 -112 q 589 -67 594 -75 q 558 -12 574 -43 q 404 -11 490 -25 q 372 -4 389 -8 q 328 10 353 0 q 282 32 303 19 q 197 97 235 58 q 157 142 174 121 q 125 189 143 160 q 107 222 115 206 q 92 254 100 235 q 53 408 64 322 q 51 574 42 493 q 140 810 68 706 q 274 944 203 899 q 299 961 282 951 q 343 982 319 972 q 499 1010 418 1011 q 647 983 579 1010 q 689 965 669 975 q 713 951 703 957 q 747 926 732 939 q 768 908 761 915 q 804 869 789 888 q 899 715 864 801 q 918 654 911 683 q 933 578 928 615 q 938 501 938 544 q 935 450 938 474 q 921 360 931 401 q 907 312 915 338 q 885 257 899 286 q 857 204 875 235 q 819 151 839 175 q 765 92 796 121 z "},"R":{"ha":917,"x_min":47,"x_max":868,"o":"m 274 847 l 274 513 q 390 508 317 506 q 547 535 486 511 q 590 557 572 546 q 618 579 604 567 q 664 672 656 617 q 668 728 669 699 q 667 754 668 740 q 660 790 664 774 q 640 840 653 818 q 590 896 621 874 q 542 924 571 911 q 522 931 538 925 q 483 939 504 936 q 346 940 408 951 q 314 932 328 938 q 288 911 297 925 q 276 886 281 901 q 274 847 274 872 m 335 0 l 47 0 l 47 51 q 74 54 67 53 q 86 61 81 57 q 99 78 94 67 q 106 103 103 90 q 108 157 108 121 l 108 835 q 103 903 108 881 q 93 924 99 915 q 76 938 88 933 q 47 940 68 940 l 47 992 l 279 1004 q 447 1006 353 1010 q 613 981 540 1003 q 738 919 683 958 q 771 890 756 906 q 793 867 785 878 q 826 810 814 840 q 836 654 858 732 q 811 599 829 628 q 800 582 804 588 q 726 514 771 543 q 582 457 671 478 q 679 204 628 313 q 868 -62 760 32 l 868 -103 l 853 -111 q 715 -31 779 -79 q 618 60 663 13 q 576 108 599 82 q 519 193 547 147 q 401 444 456 297 q 274 446 322 443 l 274 157 q 279 90 274 113 q 288 69 283 76 q 306 56 294 60 q 335 53 314 53 l 335 0 z "},"S":{"ha":785,"x_min":44,"x_max":736,"o":"m 208 17 l 211 17 q 44 115 118 50 l 101 321 l 151 311 q 160 278 157 290 q 190 196 172 232 q 265 100 219 139 q 294 81 278 90 q 319 68 308 72 q 382 51 347 56 q 413 49 396 49 q 433 50 421 49 q 539 85 499 56 q 557 101 549 93 q 597 167 586 129 q 604 219 604 194 q 599 272 606 247 q 569 331 592 306 q 524 374 550 354 q 518 377 521 375 q 513 381 515 379 q 507 383 510 382 q 381 440 464 411 q 281 476 331 456 q 215 510 240 494 q 201 519 208 514 q 157 558 178 538 q 92 674 107 611 q 83 739 83 704 q 96 818 83 781 q 235 976 131 925 q 276 993 254 985 q 335 1006 306 1001 q 422 1007 378 1011 q 474 1000 447 1006 q 519 988 503 993 q 568 971 546 981 q 688 907 617 953 l 640 721 l 593 731 q 574 790 586 760 q 563 815 568 804 q 451 925 522 894 q 435 932 443 929 q 375 942 403 942 q 354 940 367 942 q 282 922 311 938 q 260 910 269 917 q 244 896 253 904 q 211 843 221 875 q 204 800 204 822 q 207 771 204 789 q 213 747 210 756 q 221 729 217 736 q 265 679 235 706 q 325 643 289 661 q 415 606 356 628 q 479 581 474 583 q 638 496 592 533 q 714 397 692 454 q 724 367 719 385 q 732 322 729 346 q 731 242 736 279 q 718 190 726 214 q 703 151 713 171 q 568 21 660 65 q 522 1 549 11 q 489 -7 506 -4 q 301 -8 401 -26 q 265 -1 279 -4 q 208 17 236 7 z "},"T":{"ha":958,"x_min":44,"x_max":911,"o":"m 624 -1 l 332 -1 l 332 51 q 358 54 353 51 q 371 60 367 56 q 383 78 378 65 q 390 101 388 89 q 393 156 393 119 l 393 894 q 392 915 393 910 q 376 919 389 919 q 310 917 347 921 q 263 910 286 915 q 240 901 247 906 q 224 896 232 899 q 175 864 197 883 q 157 847 169 858 q 96 757 129 817 l 44 778 l 101 994 l 854 994 l 910 778 l 858 757 q 797 847 825 818 q 747 888 774 872 q 715 903 733 896 q 703 907 710 904 q 678 913 694 910 q 585 921 642 921 q 567 918 572 921 q 563 911 564 917 q 561 894 561 907 l 561 157 q 567 90 561 114 q 576 69 572 76 q 594 54 583 58 q 624 51 603 51 l 624 -1 z "},"U":{"ha":979,"x_min":46,"x_max":928,"o":"m 107 388 l 107 838 q 100 904 107 883 q 92 926 97 918 q 75 940 85 936 q 46 943 67 943 l 46 994 l 335 994 l 335 943 q 327 943 333 943 q 317 942 321 943 q 300 938 306 940 q 282 910 289 931 q 278 892 278 900 q 274 838 274 874 l 274 361 q 279 257 274 297 q 286 219 282 238 q 293 196 292 201 q 318 144 303 168 q 368 99 339 115 q 400 85 383 92 q 421 79 406 83 q 515 71 460 69 q 551 72 533 71 q 574 75 563 74 q 625 86 603 79 q 651 97 639 90 q 690 121 674 108 q 703 132 697 126 q 732 169 718 147 q 749 210 743 189 q 754 228 753 221 q 768 394 768 289 q 769 506 769 447 q 769 638 769 565 q 768 749 768 710 q 767 793 768 771 q 758 858 764 835 q 744 897 753 882 q 725 924 736 914 q 675 944 710 939 l 675 994 l 928 994 l 928 946 q 919 943 925 944 q 911 940 914 942 q 872 911 886 932 q 847 842 854 886 q 842 743 842 810 l 842 431 q 842 407 842 428 q 842 382 842 386 q 842 359 842 378 q 841 334 842 340 q 840 311 840 328 q 838 286 839 294 q 835 263 836 278 q 831 238 833 247 q 826 215 829 228 q 819 190 822 201 q 810 163 815 176 q 799 139 804 149 q 794 132 797 138 q 790 124 792 126 q 778 107 783 114 q 758 83 769 96 q 733 61 747 72 q 708 43 719 50 q 692 32 699 36 q 563 -10 638 3 q 528 -12 547 -11 q 475 -15 504 -15 q 415 -12 446 -15 q 256 33 325 -6 q 142 147 176 78 q 119 213 126 178 q 111 256 114 236 q 107 388 106 313 z "},"V":{"ha":938,"x_min":47,"x_max":886,"o":"m 515 1 l 415 1 l 133 826 q 106 894 121 868 q 81 928 96 914 q 71 936 76 932 q 47 946 65 939 l 47 994 l 328 994 l 328 944 q 299 938 306 942 q 283 913 285 929 q 293 863 282 899 l 508 218 l 693 810 q 698 836 696 821 q 700 861 700 851 q 699 875 700 867 q 679 924 696 904 q 638 946 664 942 l 638 994 l 886 994 l 886 947 q 821 903 846 931 q 756 769 781 857 l 515 1 z "},"W":{"ha":1385,"x_min":47,"x_max":1333,"o":"m 539 0 l 440 0 l 143 826 q 108 899 125 875 q 79 931 96 918 q 47 947 68 939 l 47 996 l 332 996 l 332 946 q 314 942 319 943 q 294 931 301 938 q 288 913 289 922 q 289 889 286 901 q 297 861 292 878 l 521 233 l 649 682 l 614 797 q 578 903 593 871 q 560 928 569 919 q 553 935 557 932 q 511 943 540 943 l 511 996 l 803 996 l 803 944 q 774 940 782 943 q 756 921 761 935 q 753 894 753 913 q 760 860 754 882 l 943 232 q 1064 582 1033 489 q 1118 763 1104 711 q 1128 811 1125 792 q 1132 860 1132 842 q 1132 878 1132 872 q 1129 892 1131 888 q 1108 932 1124 918 q 1067 944 1096 942 l 1067 996 l 1333 996 l 1333 946 l 1322 943 q 1304 938 1313 942 q 1286 925 1299 935 q 1274 910 1283 921 q 1242 851 1258 892 q 1179 689 1213 785 l 1014 210 q 950 0 990 140 l 851 0 l 688 553 l 581 179 q 539 0 561 110 z "},"X":{"ha":989,"x_min":47,"x_max":936,"o":"m 336 -1 l 335 0 l 47 0 l 47 50 l 57 51 q 88 67 69 54 q 140 106 119 88 q 158 124 150 114 q 249 240 201 167 q 324 360 271 276 q 406 490 376 444 l 200 806 q 171 851 182 835 q 143 888 154 875 q 93 933 121 914 q 63 943 81 942 l 63 994 l 378 994 l 378 942 q 351 939 357 942 q 336 910 335 931 q 350 876 339 894 q 369 847 354 868 l 518 615 l 613 765 q 626 790 622 782 q 653 863 647 831 q 654 886 654 875 q 650 911 653 901 q 631 935 643 926 q 593 942 619 940 l 593 994 l 886 994 l 886 946 l 878 942 q 814 904 849 932 q 725 800 767 864 q 638 665 693 753 q 564 549 582 578 l 838 136 q 846 122 840 132 q 871 88 858 103 q 901 61 883 72 q 936 50 913 53 l 936 -1 l 613 -1 l 613 50 q 646 58 638 53 q 661 74 658 64 q 663 85 663 78 q 657 104 663 93 q 624 161 651 118 l 451 425 l 340 238 q 311 186 322 208 q 290 128 296 157 q 293 79 285 100 q 336 49 301 57 l 336 -1 z "},"Y":{"ha":965,"x_min":47,"x_max":914,"o":"m 621 0 l 332 0 l 332 53 q 358 56 353 54 q 372 63 367 57 q 385 81 379 68 q 392 104 389 92 q 396 157 396 125 l 396 400 l 172 801 q 113 903 133 874 q 89 929 100 919 q 47 944 74 942 l 47 994 l 346 994 l 346 944 q 326 942 333 943 q 308 935 314 939 q 303 918 301 929 q 307 900 303 910 q 349 813 317 874 l 522 496 l 669 767 q 693 819 683 793 q 707 869 703 844 q 707 897 708 889 q 699 921 706 910 q 646 943 683 942 l 646 994 l 913 994 l 913 944 q 878 938 889 942 q 854 922 867 932 q 832 899 843 913 q 765 788 808 867 l 558 410 l 558 157 q 565 90 560 113 q 574 69 569 76 q 590 56 581 60 q 621 53 600 53 l 621 0 z "},"Z":{"ha":906,"x_min":47,"x_max":858,"o":"m 792 1 l 47 1 l 47 40 l 626 921 q 404 915 447 921 q 364 910 386 914 q 349 904 351 906 q 249 847 292 888 q 171 751 213 814 l 124 768 l 168 994 l 849 994 l 857 978 l 261 76 l 468 76 q 604 93 551 76 q 638 104 621 97 q 663 117 650 111 q 688 133 679 128 q 738 178 715 153 q 767 214 754 197 q 797 261 783 236 l 853 243 l 792 1 z "},"[":{"ha":494,"x_min":57,"x_max":450,"o":"m 415 -193 l 414 -193 q 444 -243 446 -211 q 424 -272 440 -267 q 363 -268 397 -283 q 333 -261 347 -262 q 261 -253 296 -254 q 189 -258 224 -251 q 149 -269 169 -261 q 97 -279 124 -279 q 61 -260 71 -279 q 57 -233 57 -249 l 60 969 q 61 983 60 974 q 78 1007 63 1000 q 100 1013 86 1013 q 164 1004 132 1013 q 219 993 194 996 q 250 989 233 990 q 372 999 311 983 q 390 1006 382 1001 q 444 994 431 1021 q 450 975 450 985 q 419 922 450 940 q 367 901 396 908 q 310 892 342 894 q 242 890 265 889 q 201 888 213 894 q 197 876 197 885 q 192 728 192 800 q 190 581 190 681 q 189 232 190 461 q 192 -117 189 42 q 194 -142 192 -125 q 197 -157 197 -157 q 217 -160 203 -161 q 254 -160 232 -160 q 299 -161 274 -160 q 360 -171 329 -164 q 415 -193 392 -179 z "},"\\":{"ha":544,"x_min":40,"x_max":504,"o":"m 40 993 l 144 993 l 503 -18 l 400 -18 l 40 993 z "},"]":{"ha":494,"x_min":43,"x_max":436,"o":"m 78 -194 q 133 -172 101 -181 q 194 -162 163 -165 q 238 -160 218 -160 q 276 -161 261 -160 q 294 -157 290 -161 q 299 -143 297 -154 q 301 -118 301 -126 q 303 231 304 40 q 303 579 303 460 q 301 728 303 679 q 296 875 301 799 q 292 886 296 883 q 250 890 281 894 q 182 890 228 888 q 125 900 151 893 q 72 922 96 907 q 43 974 43 940 q 47 993 43 985 q 101 1004 61 1021 q 121 999 110 1001 q 243 989 181 983 q 274 993 258 990 q 329 1003 299 996 q 393 1011 361 1011 q 415 1006 407 1011 q 432 982 431 999 q 433 969 433 974 l 436 -235 q 431 -260 436 -249 q 395 -281 422 -281 q 344 -271 368 -281 q 304 -258 324 -262 q 232 -254 269 -253 q 158 -261 196 -254 q 131 -269 144 -264 q 69 -274 96 -283 q 49 -244 51 -267 q 78 -193 47 -212 l 78 -194 z "},"^":{"ha":518,"x_min":49,"x_max":469,"o":"m 310 1000 l 468 824 l 429 782 l 263 911 l 256 911 l 88 782 l 49 824 l 217 1000 l 310 1000 z "},"_":{"ha":953,"x_min":68,"x_max":885,"o":"m 68 -278 l 68 -156 l 883 -156 l 883 -278 l 68 -278 z "},"`":{"ha":365,"x_min":53,"x_max":313,"o":"m 169 994 l 313 843 l 279 810 l 53 965 l 53 994 l 169 994 z "},"a":{"ha":713,"x_min":44,"x_max":665,"o":"m 419 164 l 419 397 q 300 339 343 367 q 250 300 275 324 q 206 231 215 265 q 201 169 197 201 q 231 107 207 131 q 311 86 264 72 q 336 94 322 89 q 419 164 378 114 m 618 108 l 619 107 l 664 72 q 567 -10 617 7 q 525 -17 546 -17 q 483 -11 503 -17 q 436 26 453 0 q 422 72 425 44 q 375 38 394 50 q 350 24 365 32 q 315 6 332 13 q 279 -7 301 0 q 240 -14 258 -12 q 185 -14 213 -18 q 168 -11 175 -14 q 124 4 144 -7 q 78 46 96 19 q 56 90 63 67 q 49 124 51 103 q 49 182 44 153 q 58 218 51 200 q 67 239 61 226 q 110 296 81 267 q 229 385 165 350 q 419 465 307 426 l 419 558 q 419 581 419 565 q 410 626 417 608 q 408 631 410 628 q 406 635 407 633 q 385 660 397 651 q 322 668 360 676 q 286 646 300 663 q 274 626 279 638 q 262 592 268 614 q 251 560 256 569 q 229 524 243 539 q 192 499 214 506 q 144 496 168 490 q 100 526 117 503 q 94 617 72 567 q 106 639 99 628 q 126 663 115 651 q 269 728 179 713 q 297 732 282 731 q 339 735 319 735 q 385 733 363 736 q 457 721 422 732 q 499 701 479 713 q 553 633 535 676 q 557 622 554 629 q 563 601 560 613 q 569 531 569 571 l 569 121 q 575 82 569 93 q 583 74 578 75 q 599 77 592 72 q 618 108 606 82 z "},"b":{"ha":750,"x_min":46,"x_max":700,"o":"m 289 583 q 253 538 269 564 l 253 235 q 260 164 253 197 q 269 135 264 149 q 278 118 272 128 q 318 72 293 89 q 356 56 336 61 q 392 51 375 51 q 400 51 396 51 q 406 51 404 51 q 444 63 428 54 q 476 86 463 72 q 494 108 485 93 q 500 117 496 111 q 528 196 518 151 q 538 267 535 222 q 529 467 544 383 q 515 521 524 496 q 465 601 497 574 q 449 613 457 608 q 414 625 432 622 q 389 626 404 626 q 374 626 378 626 q 324 610 349 624 q 289 583 306 599 m 72 44 l 46 86 q 83 125 74 104 q 96 163 92 143 q 103 232 103 190 l 103 867 q 94 919 101 906 q 78 935 89 929 q 46 940 72 938 l 46 986 q 111 1008 81 993 q 138 1022 121 1013 q 210 1082 178 1046 l 253 1082 l 253 638 q 338 708 292 685 q 378 725 358 719 q 447 736 413 736 q 561 707 510 736 q 606 672 583 694 q 618 658 613 665 q 649 614 636 638 q 694 433 689 542 q 682 268 700 350 q 633 135 668 196 q 529 25 592 64 q 508 13 522 19 q 474 -1 494 6 q 297 -1 396 -28 q 229 26 272 6 q 169 51 186 46 q 139 60 154 57 q 117 63 124 63 q 72 44 103 61 z "},"c":{"ha":658,"x_min":39,"x_max":608,"o":"m 544 164 l 543 163 q 564 186 551 171 l 608 154 q 488 32 550 72 q 357 -15 425 -8 q 332 -15 350 -15 q 253 -3 289 -14 q 225 7 238 1 q 178 35 199 19 q 160 49 168 42 q 114 99 136 69 q 63 217 78 150 q 51 410 39 310 q 128 613 65 531 q 158 649 143 632 q 186 672 169 658 q 310 728 239 714 q 439 725 381 742 q 560 651 517 706 q 588 542 603 596 q 564 506 581 519 q 528 490 547 493 q 507 489 518 489 q 461 506 479 490 q 449 518 453 511 q 436 540 440 529 q 424 581 431 554 q 414 618 418 607 q 396 644 407 635 q 363 664 382 660 q 317 665 342 669 q 260 635 285 658 q 243 613 251 625 q 238 604 242 610 q 207 507 215 563 q 203 485 204 494 q 199 401 199 450 q 219 254 201 314 q 263 165 235 201 q 282 143 272 153 q 317 115 299 126 q 399 94 354 93 q 447 103 421 96 q 463 107 454 104 q 544 164 506 124 z "},"d":{"ha":751,"x_min":46,"x_max":701,"o":"m 421 99 q 497 175 464 121 l 497 431 q 493 500 497 471 q 454 611 483 569 q 410 653 435 639 q 342 671 379 671 q 331 671 342 671 q 308 667 321 669 q 265 640 285 660 q 225 569 242 615 q 203 360 199 486 q 232 190 207 256 q 256 143 243 164 q 265 131 260 136 q 286 110 275 118 q 322 89 304 94 q 381 85 350 79 q 404 92 390 86 q 421 99 411 94 m 497 4 l 497 72 q 472 47 485 58 q 451 32 463 39 q 418 11 433 19 q 303 -17 364 -17 q 271 -15 289 -17 q 186 14 225 -8 q 140 50 161 29 q 126 64 132 57 q 76 150 96 100 q 47 331 46 228 q 64 476 47 407 q 131 626 83 561 q 160 660 144 644 q 185 682 176 675 q 311 735 242 726 q 343 736 325 736 q 364 736 351 736 q 382 733 369 735 q 419 725 404 731 q 446 714 432 721 q 497 679 474 701 l 497 868 q 489 921 497 906 q 472 936 483 932 q 440 942 465 939 l 440 988 q 504 1010 475 996 q 532 1024 515 1014 q 604 1083 571 1046 l 647 1083 l 647 138 q 656 81 647 99 q 665 67 658 71 q 700 60 674 60 l 700 4 l 497 4 z "},"e":{"ha":679,"x_min":38,"x_max":632,"o":"m 210 553 l 210 551 q 201 456 203 517 l 396 456 q 439 457 424 456 q 451 461 447 458 q 456 475 456 464 q 453 529 454 511 q 443 574 450 556 q 438 593 440 585 q 426 618 433 606 q 415 633 421 626 q 319 672 381 678 q 274 658 293 669 q 233 615 250 644 q 210 553 217 588 m 560 161 q 579 186 567 169 l 631 154 q 585 92 610 119 q 563 68 568 74 q 494 17 531 36 q 446 -4 474 6 q 375 -18 410 -15 q 264 -4 318 -22 q 188 35 224 8 q 165 51 178 40 q 117 106 136 76 q 51 276 67 176 q 63 490 38 383 q 125 631 82 571 q 151 661 138 647 q 176 683 168 676 q 235 718 203 704 q 338 738 285 738 q 458 707 404 738 q 504 674 482 694 q 518 660 510 668 q 539 632 531 646 q 594 496 578 576 q 600 464 597 481 q 607 382 606 422 l 201 382 q 203 357 203 365 q 215 272 207 310 q 267 163 232 208 q 286 140 275 151 q 303 125 294 132 q 414 89 351 88 q 465 97 440 90 q 481 103 469 99 q 560 161 524 119 z "},"f":{"ha":453,"x_min":44,"x_max":408,"o":"m 322 0 l 78 0 l 78 53 l 90 53 q 101 54 97 53 q 115 63 110 56 q 124 85 121 71 q 128 125 128 99 l 128 599 l 44 599 l 44 669 l 126 669 q 121 760 125 700 q 119 858 115 822 q 178 978 129 935 q 207 997 190 989 q 254 1013 229 1008 q 336 1004 300 1018 q 390 961 374 989 q 403 903 407 933 q 357 849 396 860 q 296 857 324 839 q 276 876 285 864 q 260 914 267 890 q 247 935 253 931 q 238 936 243 936 q 226 935 231 936 q 215 907 215 928 q 218 889 215 900 q 233 849 221 882 q 249 801 244 815 q 260 761 253 788 q 269 713 267 735 q 272 669 272 692 l 400 669 l 400 599 l 272 599 l 272 125 q 279 72 272 89 q 289 60 283 64 q 322 53 296 53 l 322 0 z "},"g":{"ha":800,"x_min":31,"x_max":754,"o":"m 475 -32 l 476 -31 q 244 10 396 -11 q 215 -12 229 1 q 176 -89 182 -43 q 190 -157 172 -126 q 207 -179 196 -168 q 221 -192 217 -187 q 256 -210 238 -201 q 269 -214 264 -212 q 335 -225 296 -222 q 357 -225 340 -225 q 432 -221 393 -225 q 451 -218 444 -219 q 468 -214 458 -217 q 488 -208 481 -211 q 532 -187 514 -199 q 560 -160 550 -175 q 572 -122 571 -143 q 569 -93 574 -106 q 549 -62 564 -76 q 475 -32 524 -44 m 233 503 l 235 503 q 240 401 232 443 q 249 369 243 386 q 253 357 250 364 q 264 336 258 347 q 303 304 281 314 q 360 297 328 294 q 407 314 386 300 q 426 333 417 321 q 438 349 432 340 q 451 382 444 361 q 456 396 453 388 q 461 426 460 410 q 463 447 461 431 q 465 483 465 467 q 460 557 465 524 q 431 640 453 608 q 400 669 418 660 q 372 679 388 676 q 361 681 365 681 q 319 678 339 683 q 281 657 296 672 q 261 631 269 646 q 250 606 254 619 q 240 571 244 589 q 233 503 235 543 m 124 3 l 122 3 q 164 29 139 15 q 125 49 140 39 q 81 90 96 67 q 67 132 69 110 q 121 238 64 186 q 186 282 144 260 q 151 310 167 296 q 104 371 121 338 q 81 457 85 410 q 79 481 79 464 q 82 517 79 499 q 128 626 92 575 q 226 707 164 676 q 264 724 246 717 q 292 731 278 728 q 315 735 307 733 q 367 739 339 739 q 436 729 403 739 q 542 667 494 714 q 554 676 546 669 q 625 729 597 717 q 704 738 672 751 q 733 715 721 731 q 750 679 747 699 q 738 631 753 654 q 689 604 722 608 q 651 607 671 601 q 603 632 632 613 q 585 618 597 629 q 600 590 594 603 q 607 569 603 583 q 613 546 611 558 q 617 515 617 529 q 606 418 621 465 q 590 383 597 397 q 474 271 553 308 q 436 254 453 261 q 408 247 422 250 q 385 243 393 244 q 336 239 358 239 q 301 240 315 239 q 275 246 290 242 q 247 253 258 249 q 204 222 218 235 q 188 200 192 210 q 185 183 185 193 q 193 168 185 175 q 229 153 203 160 q 422 115 238 151 q 574 85 550 90 q 622 61 599 78 q 654 35 642 47 q 668 19 663 28 q 700 -61 694 -15 q 664 -190 708 -135 q 632 -221 651 -206 q 619 -229 629 -222 q 593 -246 610 -236 q 463 -285 539 -274 q 428 -287 443 -286 q 368 -290 390 -290 q 156 -260 240 -292 q 67 -196 96 -235 q 51 -168 58 -185 q 65 -58 31 -111 q 124 3 86 -24 z "},"h":{"ha":725,"x_min":47,"x_max":674,"o":"m 307 1 l 50 1 l 50 58 l 63 58 q 75 60 71 58 q 90 69 85 63 q 100 93 96 78 q 103 135 103 107 l 103 868 q 96 924 103 907 q 79 938 90 933 q 47 943 72 940 l 47 989 q 113 1011 82 997 q 139 1025 128 1018 q 211 1085 179 1050 l 256 1085 l 256 621 q 360 685 306 653 q 411 713 394 704 q 460 730 428 721 q 518 736 492 739 q 600 679 574 729 q 614 643 610 661 q 617 629 615 635 q 621 589 621 608 l 621 135 q 628 78 621 96 q 638 64 632 68 q 674 57 646 57 l 674 1 l 415 1 l 415 57 q 440 60 435 57 q 454 68 450 63 q 464 92 461 76 q 467 135 467 106 l 467 526 q 465 564 467 551 q 460 588 464 578 q 446 603 456 599 q 424 608 438 607 q 411 608 424 608 q 388 604 407 608 q 353 594 371 601 q 254 544 313 581 l 254 135 q 261 78 254 96 q 271 64 265 69 q 307 57 279 58 l 307 1 z "},"i":{"ha":347,"x_min":46,"x_max":296,"o":"m 296 1 l 294 1 l 49 1 l 49 54 l 61 54 q 72 57 68 54 q 86 65 81 58 q 96 88 92 72 q 99 128 99 100 l 99 515 q 97 539 99 524 q 94 560 96 554 q 85 576 90 571 q 46 588 76 585 l 46 631 q 130 665 90 642 q 201 722 169 688 l 246 722 l 246 128 q 253 74 246 90 q 261 61 256 65 q 296 54 269 56 l 296 1 m 186 806 q 160 806 171 803 q 99 838 122 810 q 75 901 75 867 q 81 928 75 913 q 82 933 81 929 q 83 938 83 936 q 133 986 100 971 q 171 994 150 994 q 200 990 185 994 q 210 986 203 989 q 242 964 229 978 q 261 929 256 947 q 261 871 269 900 q 260 865 261 868 q 257 861 258 863 q 226 822 247 838 q 186 806 208 810 z "},"j":{"ha":372,"x_min":43,"x_max":328,"o":"m 157 10 l 157 518 q 149 571 157 556 q 135 585 144 581 q 104 590 126 588 l 104 633 q 188 665 150 643 q 260 724 226 688 l 303 724 l 303 39 q 303 13 303 29 q 308 -42 304 -6 q 313 -97 311 -78 q 310 -154 314 -117 q 303 -185 307 -174 q 294 -208 300 -194 q 183 -289 261 -278 q 161 -290 176 -290 q 147 -290 161 -290 q 115 -285 131 -290 q 100 -279 104 -281 q 63 -247 76 -268 q 44 -194 44 -224 q 58 -149 44 -164 q 114 -122 79 -119 q 129 -125 119 -122 q 151 -137 140 -129 q 174 -169 164 -150 q 190 -203 188 -200 q 197 -206 194 -207 q 199 -178 200 -196 q 181 -109 197 -153 q 161 -46 164 -65 q 157 10 157 -24 m 243 807 l 243 806 q 163 833 197 799 q 135 914 126 868 q 164 968 140 946 q 229 994 192 994 q 257 990 243 994 q 268 986 260 989 q 299 964 285 979 q 318 929 313 947 q 318 871 328 900 q 317 866 318 869 q 314 861 315 863 q 283 824 304 839 q 243 807 265 810 z "},"k":{"ha":749,"x_min":47,"x_max":697,"o":"m 308 1 l 310 0 l 50 0 l 50 57 l 63 57 q 76 58 71 57 q 90 68 85 61 q 100 92 97 76 q 104 135 104 106 l 104 871 q 96 926 103 913 q 79 940 90 936 q 47 946 74 943 l 47 993 q 113 1015 79 1000 q 139 1029 131 1025 q 213 1090 181 1054 l 257 1090 l 257 360 l 375 493 q 440 578 422 542 q 446 588 443 582 q 456 633 458 617 q 447 653 454 646 q 434 663 440 661 q 417 668 428 665 l 417 721 l 688 721 l 688 668 q 671 665 681 667 q 651 657 664 663 q 625 643 636 650 q 574 597 603 628 q 490 508 544 567 q 422 436 436 450 l 588 167 q 650 78 625 103 q 667 63 658 68 q 696 57 676 57 l 696 1 l 418 1 l 418 57 l 432 57 q 444 58 438 57 q 453 63 451 60 q 447 96 457 72 q 432 124 439 111 l 313 322 l 256 261 l 256 135 q 263 78 256 96 q 272 64 267 68 q 308 57 281 57 l 308 1 z "},"l":{"ha":364,"x_min":47,"x_max":314,"o":"m 313 0 l 50 0 l 50 57 l 63 57 q 76 58 71 57 q 90 68 85 61 q 100 92 97 76 q 104 135 104 106 l 104 872 q 96 926 103 913 q 79 942 90 938 q 47 947 74 944 l 47 993 q 113 1015 79 1000 q 139 1031 131 1025 q 213 1090 181 1054 l 260 1090 l 260 135 q 267 76 260 96 q 276 64 271 68 q 313 57 285 57 l 313 0 z "},"m":{"ha":1090,"x_min":47,"x_max":1039,"o":"m 308 0 l 50 0 l 50 57 l 63 57 q 75 58 71 57 q 90 68 85 61 q 100 92 96 76 q 103 135 103 106 l 103 519 q 96 575 103 558 q 79 589 90 585 q 47 594 74 592 l 47 640 q 113 663 82 649 q 139 676 128 669 q 213 736 179 700 l 256 736 l 256 619 q 361 685 306 653 q 496 736 446 733 q 522 735 507 738 q 597 694 572 729 q 621 619 619 667 q 726 685 667 649 q 777 712 760 703 q 826 730 794 721 q 883 735 857 739 q 965 679 939 729 q 979 643 975 663 q 982 629 981 635 q 985 588 985 608 l 985 133 q 993 76 985 94 q 1003 63 996 68 q 1038 56 1010 57 l 1038 0 l 781 0 l 781 56 q 807 58 801 57 q 822 68 817 61 q 831 90 828 76 q 835 133 835 104 l 835 526 q 831 572 833 561 q 822 593 826 588 q 801 607 815 603 q 785 608 793 608 q 771 608 776 608 q 753 604 765 607 q 718 594 738 601 q 621 544 679 579 l 621 133 q 629 76 621 94 q 638 63 632 68 q 674 56 646 57 l 674 0 l 415 0 l 415 56 q 442 58 436 57 q 456 68 451 61 q 465 90 463 76 q 468 133 468 104 l 468 526 q 467 564 468 551 q 461 588 465 578 q 447 603 456 597 q 425 608 439 607 l 413 608 q 389 604 408 608 q 354 594 372 601 q 256 544 314 579 l 256 135 q 263 76 256 96 q 272 64 267 68 q 308 57 281 57 l 308 0 z "},"n":{"ha":726,"x_min":47,"x_max":675,"o":"m 308 0 l 308 1 l 308 0 m 308 1 l 50 1 l 50 57 l 63 57 q 75 60 71 57 q 90 69 85 63 q 100 93 96 78 q 103 135 103 107 l 103 521 q 97 571 103 556 q 85 586 93 582 q 47 596 76 592 l 47 642 q 113 664 82 649 q 139 678 128 671 q 213 738 179 700 l 256 738 l 256 621 q 361 685 306 653 q 413 713 396 704 q 460 731 429 722 q 518 736 492 739 q 601 679 574 729 q 615 643 611 661 q 618 629 617 635 q 621 589 621 608 l 621 135 q 629 76 621 96 q 639 64 632 68 q 674 57 646 57 l 674 0 l 415 0 l 415 57 q 442 58 436 57 q 457 68 451 61 q 465 90 463 76 q 468 135 468 106 l 468 526 q 467 564 468 551 q 461 588 465 578 q 447 603 457 599 q 426 608 439 607 l 413 608 q 389 604 408 608 q 354 594 372 601 q 256 544 314 581 l 256 135 q 263 76 256 96 q 272 64 267 68 q 308 57 281 57 l 308 1 z "},"o":{"ha":738,"x_min":47,"x_max":683,"o":"m 354 47 q 386 49 372 46 q 401 51 394 50 q 444 78 426 60 q 467 107 456 89 q 497 193 485 139 q 511 358 511 260 q 500 510 511 450 q 486 565 494 543 q 431 651 467 625 q 388 668 411 664 q 346 668 365 672 q 331 665 338 667 q 286 638 306 658 q 258 597 271 621 q 235 532 244 568 q 231 510 232 519 q 219 360 219 450 q 228 229 219 281 q 235 185 229 210 q 240 168 236 181 q 271 99 253 125 q 304 64 285 76 q 354 47 325 50 m 501 13 l 500 13 q 366 -19 439 -19 q 229 13 293 -19 q 193 35 215 21 q 171 53 181 44 q 58 251 86 128 q 51 292 56 267 q 47 359 47 325 q 51 426 47 393 q 58 467 54 443 q 67 500 63 485 q 169 664 96 600 q 192 682 179 674 q 271 721 229 708 q 308 731 286 726 q 383 736 346 738 q 460 721 424 733 q 538 682 501 708 q 560 664 547 675 q 672 468 644 592 q 679 426 675 450 q 683 360 683 394 q 679 293 683 325 q 671 251 676 275 q 663 218 668 235 q 560 53 633 118 q 538 36 553 47 q 501 13 521 24 z "},"p":{"ha":763,"x_min":44,"x_max":708,"o":"m 315 603 q 254 540 285 582 l 254 311 q 279 143 256 204 q 299 104 288 122 q 307 93 303 99 q 325 74 314 83 q 374 51 346 56 q 419 50 397 47 q 424 51 421 50 q 429 51 428 51 q 474 74 454 58 q 506 111 492 89 q 543 236 532 157 q 549 376 551 307 q 522 524 544 467 q 501 567 513 547 q 492 579 499 569 q 449 615 474 603 q 393 628 422 628 q 369 625 381 628 q 329 611 349 621 q 315 603 322 607 m 307 -317 l 49 -317 l 49 -260 l 61 -260 q 74 -258 69 -260 q 89 -249 83 -256 q 99 -225 94 -240 q 101 -182 101 -211 l 101 522 q 93 576 101 560 q 76 590 88 586 q 44 596 71 593 l 44 643 q 110 665 76 650 q 136 679 128 675 q 210 740 178 704 l 254 740 l 254 638 q 361 721 306 697 q 385 729 374 726 q 457 740 422 740 q 488 739 471 740 q 565 713 529 733 q 611 676 590 697 q 635 649 624 665 q 707 414 700 561 q 707 372 708 389 q 704 315 707 344 q 675 186 696 243 q 563 31 636 86 q 524 7 544 17 q 492 -7 507 -1 q 454 -17 472 -14 q 317 1 382 -29 q 289 17 306 7 q 272 29 278 24 q 254 44 265 33 l 254 -182 q 261 -240 254 -221 q 271 -253 265 -249 q 307 -260 279 -260 l 307 -317 z "},"q":{"ha":749,"x_min":47,"x_max":700,"o":"m 457 129 q 494 174 476 147 l 494 463 q 489 538 494 510 q 482 567 488 551 q 476 586 481 574 q 464 611 471 599 q 453 628 458 622 q 436 644 446 636 q 386 668 415 663 q 335 668 360 672 q 293 654 313 665 q 263 626 275 643 q 246 601 253 617 q 219 532 229 575 q 215 514 215 514 q 206 383 206 461 q 229 199 206 272 q 272 124 246 150 q 322 93 294 101 q 376 88 347 85 q 424 104 400 92 q 457 129 442 114 m 700 -312 l 700 -314 l 442 -314 l 442 -258 l 454 -258 q 467 -257 463 -258 q 482 -246 476 -254 q 492 -224 488 -237 q 494 -181 494 -210 l 494 71 q 410 7 456 29 q 371 -10 389 -4 q 340 -17 354 -14 q 306 -19 319 -19 q 186 13 240 -19 q 139 49 160 26 q 126 63 131 56 q 94 108 108 82 q 49 288 54 179 q 47 321 47 297 q 49 363 47 343 q 69 483 53 425 q 179 663 101 594 q 203 681 193 674 q 239 704 225 696 q 328 732 281 725 q 372 736 351 736 q 432 729 401 736 q 490 710 463 722 q 510 699 499 706 q 549 674 531 688 l 603 736 l 647 736 l 647 -179 q 654 -236 647 -218 q 664 -250 658 -246 q 700 -257 672 -257 l 700 -312 z "},"r":{"ha":558,"x_min":47,"x_max":507,"o":"m 306 1 l 50 1 l 50 57 l 63 57 q 75 58 71 57 q 90 68 83 60 q 99 90 96 76 q 101 132 101 104 l 101 510 q 96 560 101 546 q 85 574 92 569 q 47 582 75 581 l 47 628 q 111 649 81 635 q 138 663 121 654 q 208 722 176 686 l 254 722 l 254 613 q 299 660 278 640 q 351 699 322 682 q 435 721 397 726 q 494 682 475 717 q 507 628 507 658 q 489 573 507 597 q 443 540 471 549 q 410 536 429 536 q 374 544 399 536 q 324 558 335 558 q 308 557 314 558 q 282 543 296 554 q 254 514 269 533 l 254 132 q 261 76 254 93 q 271 63 265 68 q 306 56 279 57 l 306 1 z "},"s":{"ha":613,"x_min":44,"x_max":565,"o":"m 99 47 q 44 86 74 63 l 99 249 l 146 238 q 160 183 150 210 q 169 163 167 168 q 251 69 199 99 q 278 57 263 61 q 326 49 303 49 q 346 50 335 49 q 406 79 382 56 q 435 135 431 103 q 436 160 438 147 q 433 179 435 171 q 397 229 426 204 q 368 250 385 240 q 271 294 343 264 q 163 349 199 324 q 115 392 139 365 q 82 449 92 418 q 74 485 75 465 q 74 551 68 518 q 82 592 76 574 q 93 621 88 607 q 132 672 108 650 q 154 692 140 682 q 171 703 164 699 q 264 735 211 726 q 307 738 286 738 q 315 738 310 738 q 324 738 321 738 q 354 733 333 738 q 374 729 360 733 q 438 707 407 721 q 460 696 450 700 q 525 651 494 675 l 472 503 l 428 514 q 424 536 425 526 q 404 589 415 565 q 389 614 397 603 q 376 629 385 622 q 354 650 365 642 q 333 661 344 657 q 269 669 304 675 q 194 618 217 661 q 186 556 178 586 q 206 522 192 536 q 240 490 221 504 q 319 453 268 472 q 429 406 385 429 q 514 342 478 381 q 557 264 546 307 q 560 244 558 253 q 560 176 564 211 q 551 136 557 154 q 539 107 546 121 q 499 51 524 76 q 474 32 488 40 q 457 19 463 24 q 354 -15 413 -7 q 306 -18 331 -18 q 295 -18 301 -18 q 286 -18 289 -18 q 250 -14 272 -17 q 228 -10 231 -10 q 189 3 206 -4 q 150 18 169 10 q 99 47 125 31 z "},"t":{"ha":461,"x_min":46,"x_max":413,"o":"m 132 135 l 133 135 l 133 633 l 46 633 l 46 686 q 88 719 67 701 q 122 757 106 736 q 146 789 135 772 q 163 819 158 811 q 174 843 167 826 q 217 994 200 904 l 282 994 l 282 707 l 403 707 l 403 633 l 285 633 l 285 185 q 285 175 285 182 q 286 164 286 168 q 297 113 288 128 q 310 103 303 106 q 329 101 318 100 q 374 129 349 104 l 413 97 q 399 72 401 76 q 350 17 378 38 q 293 -10 325 -3 q 254 -15 274 -15 q 200 -6 224 -15 q 156 31 172 6 q 144 54 149 43 q 139 69 140 67 q 132 135 132 96 z "},"u":{"ha":806,"x_min":44,"x_max":756,"o":"m 754 -1 l 754 0 l 511 0 l 511 90 q 474 67 493 79 q 276 -15 354 -4 q 240 -19 254 -19 q 224 -18 235 -19 q 131 36 161 -12 q 115 71 121 50 q 113 83 114 76 q 108 122 108 103 l 108 515 q 108 531 108 521 q 103 558 106 550 q 92 576 99 569 q 44 588 81 583 l 44 631 q 132 658 92 640 q 226 722 183 682 l 275 722 l 275 182 q 278 143 275 156 q 288 124 282 131 q 300 115 293 118 q 318 110 308 111 q 349 110 335 108 q 513 165 413 117 l 513 492 q 507 550 513 532 q 500 564 504 557 q 483 578 493 574 q 451 586 476 582 l 451 631 q 633 721 542 653 l 681 721 l 681 154 q 688 93 682 113 q 696 74 690 82 q 718 57 704 63 q 754 51 728 53 l 754 -1 z "},"v":{"ha":699,"x_min":46,"x_max":650,"o":"m 388 1 l 386 1 l 300 1 l 106 589 q 84 641 94 625 q 64 664 74 657 q 46 669 61 667 l 46 721 l 294 721 l 294 668 l 282 668 q 263 661 268 667 q 260 603 249 651 q 268 569 263 586 l 382 215 l 476 533 q 483 563 479 546 q 485 574 485 572 q 486 604 488 588 q 482 632 486 621 q 476 646 479 642 q 438 671 467 663 l 438 721 l 649 721 l 649 672 l 642 668 q 621 654 631 664 q 589 613 601 635 q 581 597 586 608 q 544 506 563 564 q 388 1 494 343 z "},"w":{"ha":1081,"x_min":46,"x_max":1032,"o":"m 408 0 l 407 0 l 315 0 l 125 546 q 89 635 101 610 q 68 661 79 653 q 46 668 64 665 l 46 721 l 301 721 l 301 668 l 290 667 q 261 639 264 663 q 261 629 260 635 q 268 604 261 628 l 392 215 l 482 567 q 460 632 468 615 q 442 657 450 650 q 407 667 431 665 l 407 721 l 672 721 l 672 669 q 642 656 649 663 q 633 636 635 649 q 640 604 633 626 l 746 215 l 815 446 q 842 554 835 510 q 844 613 847 596 q 836 640 842 629 q 796 671 825 661 l 796 721 l 1031 721 l 1031 671 q 1013 664 1018 667 q 989 644 1000 657 q 943 578 963 617 q 897 458 919 532 l 753 0 l 661 0 l 528 451 l 408 0 z "},"x":{"ha":743,"x_min":49,"x_max":689,"o":"m 342 281 l 265 156 q 247 113 251 135 q 263 60 239 69 q 292 56 269 57 l 292 0 l 49 0 l 49 56 q 81 61 68 57 q 99 71 86 63 q 121 88 111 78 q 172 151 143 107 l 303 353 l 175 585 q 118 658 146 638 q 108 664 113 663 q 90 664 108 664 l 90 719 l 343 719 l 343 667 l 332 665 q 322 661 326 664 q 315 649 317 658 q 321 626 315 639 l 401 481 l 460 576 q 471 600 467 589 q 475 608 474 607 q 474 646 481 631 q 432 665 465 664 l 432 719 l 664 719 l 664 667 q 629 657 644 664 q 597 633 613 647 q 547 571 574 613 q 442 411 543 564 l 601 126 q 607 117 604 122 q 635 81 621 94 q 650 67 642 72 q 689 56 664 57 l 689 0 l 415 0 l 415 57 l 433 57 q 443 58 439 57 q 451 68 451 61 q 443 97 453 79 l 342 281 z "},"y":{"ha":717,"x_min":46,"x_max":668,"o":"m 269 -86 l 268 -86 q 303 32 281 -58 l 117 579 q 93 635 106 617 q 71 661 83 651 q 46 669 64 667 l 46 721 l 300 721 l 300 669 q 272 661 279 665 q 260 642 261 654 q 260 631 258 636 q 317 453 272 593 q 386 239 361 314 l 483 540 q 490 563 488 553 q 493 585 492 572 q 494 599 494 593 q 493 632 496 618 q 492 639 493 635 q 478 658 486 651 q 465 666 471 664 q 446 669 458 668 l 446 721 l 667 721 l 667 671 l 658 668 q 611 628 636 661 q 588 589 599 611 q 549 490 567 547 l 360 -42 q 324 -142 343 -94 q 290 -207 307 -182 q 281 -221 282 -219 q 225 -275 251 -260 q 186 -289 207 -286 q 163 -292 178 -292 q 144 -290 154 -292 q 111 -281 128 -287 q 64 -197 57 -254 q 79 -158 67 -176 q 96 -140 88 -147 q 144 -125 118 -124 q 169 -132 157 -126 q 211 -146 203 -144 q 238 -135 225 -147 q 264 -97 250 -124 q 266 -92 264 -96 q 269 -86 268 -87 z "},"z":{"ha":715,"x_min":46,"x_max":665,"o":"m 56 1 l 46 19 l 458 644 q 390 644 390 644 q 293 629 331 643 q 222 590 256 617 q 157 517 192 565 l 111 528 l 160 721 l 658 721 l 658 674 l 264 78 q 411 85 357 76 q 482 106 447 92 q 535 136 511 118 q 554 153 546 146 q 614 225 582 178 l 665 210 l 606 1 l 56 1 z "},"{":{"ha":592,"x_min":40,"x_max":547,"o":"m 510 -183 l 511 -185 q 540 -201 531 -182 q 546 -230 547 -215 q 539 -256 544 -244 q 510 -275 529 -275 q 407 -268 456 -275 q 322 -243 358 -262 q 265 -185 286 -221 q 246 -93 246 -150 l 247 267 q 236 308 247 292 q 206 340 225 326 q 161 364 186 356 q 106 382 136 374 l 40 400 l 106 418 q 161 436 132 425 q 206 461 186 446 q 236 493 225 475 q 247 533 247 511 l 246 818 q 265 911 246 876 q 322 969 285 949 q 407 996 357 989 q 510 1001 451 1001 q 540 985 531 1001 q 547 957 547 972 q 540 931 547 943 q 510 913 531 913 q 439 907 468 913 q 399 890 413 901 q 379 863 385 879 q 374 814 374 843 l 374 553 q 371 493 374 518 q 356 444 367 464 q 321 407 343 421 q 317 406 319 407 q 313 403 314 404 q 321 397 318 399 q 355 358 343 381 q 369 308 367 336 q 372 251 372 285 l 372 -85 q 379 -133 372 -114 q 399 -161 385 -150 q 439 -178 413 -172 q 510 -183 467 -183 z "},"|":{"ha":217,"x_min":58,"x_max":157,"o":"m 157 -278 l 58 -278 l 58 1111 l 157 1111 l 157 -278 z "},"}":{"ha":592,"x_min":43,"x_max":550,"o":"m 81 -183 q 151 -178 122 -183 q 192 -161 178 -172 q 211 -133 206 -150 q 217 -85 217 -114 l 217 251 q 219 308 217 285 q 235 358 224 336 q 269 397 246 381 q 278 403 272 399 q 274 406 276 404 q 269 407 271 407 q 235 444 247 421 q 219 493 224 464 q 217 553 217 518 l 217 814 q 211 863 217 843 q 192 890 206 879 q 151 907 176 901 q 81 913 122 913 q 50 931 60 913 q 43 957 43 943 q 50 985 43 972 q 81 1001 60 1001 q 183 996 139 1001 q 268 969 232 989 q 325 911 306 949 q 344 818 344 876 l 343 533 q 354 493 343 511 q 383 461 365 475 q 429 436 404 446 q 485 418 458 425 l 550 400 l 485 382 q 429 364 454 374 q 383 340 404 356 q 354 308 365 326 q 343 267 343 292 l 344 -93 q 325 -185 344 -150 q 267 -243 304 -221 q 183 -268 232 -262 q 81 -275 133 -275 q 51 -256 60 -275 q 44 -230 46 -244 q 50 -201 43 -215 q 79 -185 60 -182 l 81 -183 z "},"~":{"ha":857,"x_min":49,"x_max":807,"o":"m 767 603 l 767 601 l 807 572 l 801 556 q 769 482 789 515 q 722 418 749 446 q 656 371 694 389 q 572 351 617 351 q 482 375 524 351 q 413 418 447 394 q 346 460 378 442 q 281 475 317 475 q 235 468 250 475 q 206 447 219 460 q 178 415 190 431 q 135 374 161 393 l 119 363 l 106 374 q 61 415 89 386 l 49 429 l 58 446 q 71 471 64 457 q 156 589 100 547 q 297 631 213 631 q 385 610 342 631 q 461 567 422 592 q 529 525 497 543 q 650 536 604 486 q 700 607 681 569 l 710 624 l 728 621 q 767 603 751 615 z "},"¡":{"ha":274,"x_min":46,"x_max":229,"o":"m 61 -47 q 78 125 72 89 q 97 296 96 283 q 101 376 99 322 q 107 456 104 431 q 128 464 115 463 q 153 462 133 464 q 172 457 172 460 q 178 379 176 435 q 183 292 179 324 q 196 209 186 274 q 208 108 206 144 q 218 -74 217 26 q 225 -203 219 -151 q 221 -231 228 -224 q 200 -237 215 -237 q 172 -235 189 -237 q 135 -233 154 -233 q 94 -236 110 -233 q 68 -237 78 -239 q 54 -231 58 -237 q 51 -203 50 -224 q 61 -47 54 -140 m 185 619 q 128 593 160 593 q 69 618 93 593 q 46 678 46 643 q 67 734 46 708 q 121 760 89 760 q 182 738 156 760 q 208 679 208 717 q 185 619 208 646 z "},"¢":{"ha":647,"x_min":38,"x_max":607,"o":"m 217 253 q 236 204 225 226 l 365 663 q 361 663 361 663 q 314 664 339 668 q 258 633 282 658 q 242 611 249 624 q 236 603 239 608 q 204 507 214 563 q 201 483 201 493 q 197 400 197 449 q 217 253 199 313 m 563 185 l 563 186 l 606 154 q 486 32 549 72 q 356 -15 424 -10 q 331 -17 349 -17 q 279 -10 308 -15 l 203 -278 l 100 -278 l 186 26 q 181 30 185 28 q 176 33 178 32 q 158 47 167 40 q 113 99 135 68 q 61 215 76 150 q 50 408 38 308 q 126 613 64 531 q 157 647 142 632 q 185 671 168 658 q 385 732 271 739 l 458 994 l 563 994 l 482 708 q 557 650 529 685 q 585 540 601 594 q 561 504 579 518 q 525 489 546 492 q 504 489 517 488 q 458 504 476 490 q 446 518 451 511 q 435 539 439 529 l 314 114 q 396 93 353 92 q 446 101 419 94 q 461 106 453 103 q 542 163 504 122 q 563 185 550 169 z "},"£":{"ha":796,"x_min":43,"x_max":754,"o":"m 753 179 q 747 157 753 172 q 736 121 744 143 q 729 102 733 114 q 724 85 725 90 q 714 61 722 81 q 688 18 701 35 q 658 -8 675 1 q 619 -21 642 -17 q 568 -24 600 -24 q 481 -4 524 -24 q 401 35 438 14 q 338 76 364 57 q 296 94 310 94 l 294 90 q 253 60 272 79 q 210 24 229 40 q 165 -6 190 8 q 114 -18 142 -18 q 64 -3 85 -18 q 43 47 43 14 q 56 93 43 82 q 86 107 67 106 q 125 107 103 110 q 169 110 147 104 q 221 131 194 115 q 272 168 249 146 q 311 217 296 190 q 325 269 326 244 q 300 390 322 329 q 286 420 294 408 q 265 446 278 432 q 244 471 253 460 q 217 469 226 469 l 129 469 q 108 469 115 469 q 88 471 96 468 q 71 479 78 474 q 65 526 65 485 q 78 550 65 544 q 108 556 92 556 q 164 554 139 556 q 221 553 201 553 q 186 644 201 594 q 171 742 171 692 q 204 872 171 814 q 303 964 238 929 q 354 986 328 979 q 410 1001 390 996 q 479 1010 446 1010 q 588 993 532 1010 q 685 943 643 976 q 710 915 699 932 q 721 881 721 900 q 715 851 721 867 q 706 825 711 840 q 699 803 703 819 q 690 775 696 788 q 679 749 686 761 q 664 733 672 738 q 635 751 640 736 q 629 788 629 767 q 625 840 629 814 q 606 896 621 871 q 567 935 590 919 q 514 958 542 950 q 456 965 485 965 q 339 924 382 965 q 294 808 294 881 q 303 749 294 783 q 325 679 314 711 q 353 610 339 640 q 379 553 371 572 l 617 553 q 631 547 626 553 q 636 532 636 540 q 633 522 636 522 q 625 476 633 481 q 615 472 621 472 q 604 471 607 471 q 504 471 538 471 q 406 469 439 469 q 415 451 408 460 q 426 431 422 443 q 435 363 435 399 q 403 247 435 303 q 369 190 389 222 q 326 140 351 160 q 347 138 340 138 q 369 136 363 138 q 471 114 419 129 q 574 100 521 100 q 639 114 613 100 q 686 144 665 128 q 721 175 708 163 q 746 190 735 190 q 753 188 750 190 q 753 182 753 183 q 754 176 754 179 l 753 179 z "},"¥":{"ha":950,"x_min":42,"x_max":908,"o":"m 640 997 l 642 997 l 907 997 l 907 947 q 872 939 883 944 q 849 924 861 935 q 828 901 838 915 q 760 790 804 868 l 599 494 l 822 494 l 822 396 l 554 396 l 554 321 l 822 321 l 822 222 l 554 222 l 554 160 q 560 93 554 115 q 569 72 564 79 q 586 58 575 63 q 615 56 594 56 l 615 3 l 326 3 l 326 56 q 353 58 347 57 q 367 65 361 60 q 379 83 374 71 q 386 107 383 94 q 390 160 390 128 l 390 222 l 140 222 l 140 321 l 390 321 l 390 396 l 140 396 l 140 494 l 339 494 l 167 804 q 107 906 128 876 q 83 932 94 922 q 42 947 68 944 l 42 997 l 340 997 l 340 946 q 321 944 328 946 q 303 938 308 942 q 297 921 296 931 q 301 901 297 911 q 343 815 311 876 l 517 499 l 664 769 q 688 822 678 794 q 701 872 697 846 q 701 899 703 890 q 693 924 700 913 q 640 946 678 944 l 640 997 z "},"¨":{"ha":489,"x_min":57,"x_max":432,"o":"m 314 872 l 314 994 l 431 994 l 431 872 l 314 872 m 57 872 l 57 994 l 174 994 l 174 872 l 57 872 z "},"©":{"ha":1097,"x_min":46,"x_max":1051,"o":"m 847 799 q 785 860 847 799 q 549 922 724 922 q 249 799 374 922 q 125 500 125 675 q 249 201 125 325 q 549 76 374 76 q 847 201 724 76 q 971 500 971 325 q 847 799 971 675 m 800 65 q 742 31 800 65 q 549 -3 685 -3 q 297 65 413 -3 q 113 248 181 132 q 46 500 46 364 q 113 751 46 636 q 297 934 181 867 q 549 1001 413 1001 q 800 934 685 1001 q 983 751 915 867 q 1050 500 1050 636 q 983 248 1050 364 q 800 65 915 132 m 742 324 l 742 322 q 760 343 751 333 l 800 315 q 692 206 746 240 q 575 164 636 169 q 553 163 568 163 q 482 174 514 165 q 457 183 471 178 q 414 208 436 193 q 399 221 404 215 q 357 267 376 240 q 311 371 325 313 q 301 544 290 456 q 369 726 314 651 q 397 757 383 744 q 422 779 408 769 q 533 829 469 817 q 647 826 596 842 q 756 760 717 808 q 781 663 794 711 q 760 631 775 643 q 728 617 746 619 q 708 617 725 617 q 667 631 683 618 q 656 643 661 635 q 644 663 649 653 q 635 698 640 674 q 625 732 629 722 q 610 756 618 746 q 579 772 596 769 q 539 774 560 776 q 488 746 510 768 q 472 726 481 738 q 469 722 471 725 q 468 718 468 719 q 439 632 447 683 q 438 623 439 631 q 436 611 436 615 q 433 538 433 583 q 450 406 435 457 q 489 326 464 360 q 506 307 496 317 q 538 282 522 290 q 611 263 571 261 q 656 269 632 264 q 669 274 664 272 q 742 324 707 288 z "},"«":{"ha":697,"x_min":47,"x_max":651,"o":"m 478 360 l 651 92 l 578 33 l 315 326 l 315 393 l 578 688 l 651 629 l 478 360 m 382 629 l 210 360 l 382 92 l 308 33 l 47 326 l 47 393 l 308 688 l 382 629 z "},"®":{"ha":1097,"x_min":46,"x_max":1051,"o":"m 497 246 l 497 244 l 335 244 l 335 275 q 350 276 346 275 q 357 279 353 276 q 364 290 361 283 q 368 304 367 297 q 369 335 369 314 l 369 718 q 367 757 369 744 q 361 769 364 765 q 351 777 357 775 q 335 779 346 779 l 335 808 l 467 815 q 656 801 594 821 q 726 768 696 789 q 746 751 736 760 q 758 738 757 739 q 776 704 769 722 q 782 617 794 663 q 768 585 778 600 q 761 576 767 583 q 721 538 746 554 q 638 506 689 517 q 693 361 664 422 q 800 210 738 264 l 800 188 l 792 182 q 714 228 750 200 q 658 279 686 250 q 636 307 647 292 q 603 354 619 328 q 536 497 565 415 q 463 497 488 496 l 463 335 q 467 296 463 307 q 471 285 468 290 q 481 276 475 279 q 497 275 488 275 l 497 246 m 847 799 q 785 860 847 799 q 549 922 724 922 q 249 799 374 922 q 125 500 125 675 q 249 201 125 325 q 549 76 374 76 q 847 201 724 76 q 971 500 971 325 q 847 799 971 675 m 800 65 q 742 31 800 65 q 549 -3 685 -3 q 297 65 413 -3 q 113 248 181 132 q 46 500 46 364 q 113 751 46 636 q 297 934 181 867 q 549 1001 413 1001 q 800 934 685 1001 q 983 751 915 867 q 1050 500 1050 636 q 983 248 1050 364 q 800 65 915 132 m 463 726 l 463 536 q 529 535 489 533 q 618 549 582 535 q 643 563 633 556 q 658 574 651 568 q 685 626 679 594 q 688 658 688 640 q 686 674 686 668 q 682 694 685 683 q 671 722 679 708 q 643 754 660 740 q 615 769 631 763 q 612 770 614 769 q 608 772 610 771 q 604 774 606 772 q 582 778 596 775 q 504 779 539 785 q 486 774 494 778 q 471 763 476 769 q 465 747 467 757 q 463 726 463 739 z "},"±":{"ha":776,"x_min":46,"x_max":729,"o":"m 729 582 l 729 460 l 449 460 l 449 178 l 326 178 l 326 460 l 46 460 l 46 582 l 326 582 l 326 863 l 449 863 l 449 582 l 729 582 m 58 0 l 58 122 l 714 122 l 714 0 l 58 0 z "},"´":{"ha":363,"x_min":50,"x_max":310,"o":"m 310 994 l 310 965 l 83 810 l 50 843 l 192 994 l 310 994 z "},"¸":{"ha":478,"x_min":49,"x_max":426,"o":"m 308 -19 q 315 -44 313 -31 q 321 -90 321 -69 q 256 -221 321 -172 q 82 -276 193 -269 l 64 -278 l 49 -187 l 69 -185 q 135 -167 110 -181 q 164 -139 156 -154 q 172 -99 172 -122 q 168 -67 172 -83 l 168 -24 l 365 114 l 426 69 l 308 -19 z "},"»":{"ha":697,"x_min":44,"x_max":649,"o":"m 218 360 l 44 629 l 118 688 l 381 393 l 381 326 l 118 33 l 44 92 l 218 360 m 314 629 l 388 688 l 649 393 l 649 326 l 388 33 l 314 92 l 485 360 l 314 629 z "},"¿":{"ha":651,"x_min":43,"x_max":610,"o":"m 376 503 l 379 503 l 449 503 l 451 196 q 438 196 447 196 q 424 196 428 196 q 328 188 372 199 q 294 178 310 183 q 272 167 282 172 q 233 138 250 154 q 207 103 219 124 q 200 90 201 93 q 182 33 188 65 q 179 13 181 25 q 181 -57 175 -21 q 183 -78 182 -65 q 199 -124 189 -103 q 215 -150 207 -139 q 231 -168 225 -162 q 293 -206 256 -194 q 342 -214 317 -214 q 360 -212 354 -214 q 376 -210 369 -212 q 429 -174 411 -203 q 444 -118 442 -153 q 447 -82 446 -90 q 467 -32 453 -51 q 490 -11 475 -19 q 515 -3 501 -6 q 525 -1 521 -1 q 544 -3 536 -1 q 585 -22 568 -6 q 607 -81 606 -44 q 585 -160 608 -118 q 554 -199 574 -179 q 542 -210 544 -208 q 517 -229 532 -218 q 499 -239 500 -237 q 467 -254 479 -249 q 386 -274 429 -269 q 346 -276 364 -276 q 296 -272 322 -276 q 264 -265 279 -269 q 231 -254 250 -262 q 169 -219 199 -242 q 106 -156 132 -192 q 68 -90 83 -126 q 49 -21 56 -57 q 46 7 46 -3 q 46 61 43 33 q 79 192 51 136 q 104 235 92 217 q 132 267 117 251 q 163 293 143 278 q 186 310 169 299 q 288 349 232 336 q 369 360 325 357 l 376 503 m 511 676 q 503 625 514 650 q 429 571 481 578 q 386 575 408 568 q 343 604 360 583 q 322 650 326 625 q 331 704 318 679 q 366 744 342 729 q 417 760 390 760 q 478 735 450 760 q 511 676 507 710 z "},"À":{"ha":944,"x_min":47,"x_max":894,"o":"m 468 1240 l 610 1089 l 576 1056 l 351 1211 l 351 1240 l 468 1240 m 447 790 l 314 382 l 571 382 l 447 790 m 304 3 l 47 3 l 47 50 l 56 53 q 110 85 89 65 q 161 158 140 115 q 165 169 163 161 q 171 181 168 176 q 197 261 185 215 l 436 994 l 539 994 l 803 181 q 815 143 808 163 q 858 65 835 89 q 893 54 869 54 l 893 3 l 611 3 l 611 51 q 643 63 633 56 q 657 85 656 72 q 656 102 657 92 q 649 132 654 113 q 593 310 625 203 l 289 310 l 251 193 q 240 136 242 161 q 242 114 240 121 q 268 64 246 79 q 304 51 279 56 l 304 3 z "},"Á":{"ha":944,"x_min":47,"x_max":894,"o":"m 610 1240 l 610 1211 l 385 1056 l 351 1089 l 493 1240 l 610 1240 m 447 790 l 314 382 l 571 382 l 447 790 m 304 3 l 47 3 l 47 50 l 56 53 q 110 85 89 65 q 161 158 140 115 q 165 169 163 161 q 171 181 168 176 q 197 261 185 215 l 436 994 l 539 994 l 803 181 q 815 143 808 163 q 858 65 835 89 q 893 54 869 54 l 893 3 l 611 3 l 611 51 q 643 63 633 56 q 657 85 656 72 q 656 102 657 92 q 649 132 654 113 q 593 310 625 203 l 289 310 l 251 193 q 240 136 242 161 q 242 114 240 121 q 268 64 246 79 q 304 51 279 56 l 304 3 z "},"Â":{"ha":944,"x_min":47,"x_max":894,"o":"m 511 1274 l 671 1096 l 631 1056 l 464 1185 l 457 1185 l 289 1056 l 250 1096 l 418 1274 l 511 1274 m 447 790 l 314 381 l 571 381 l 447 790 m 304 1 l 47 1 l 47 49 l 56 51 q 110 85 89 64 q 161 157 140 114 q 165 167 163 160 q 171 179 168 175 q 197 260 185 214 l 436 993 l 539 993 l 803 179 q 815 142 808 161 q 858 64 835 88 q 893 53 869 54 l 893 1 l 611 1 l 611 50 q 643 63 633 56 q 657 83 656 71 q 656 101 657 90 q 649 131 654 111 q 593 308 625 201 l 289 308 l 251 192 q 240 135 242 160 q 242 113 240 119 q 268 63 246 78 q 304 50 279 56 l 304 1 z "},"Ã":{"ha":944,"x_min":47,"x_max":894,"o":"m 447 790 l 314 382 l 571 382 l 447 790 m 658 1229 q 658 1231 658 1229 l 658 1229 m 658 1229 l 713 1206 q 663 1118 685 1149 q 615 1075 638 1086 q 565 1064 593 1064 q 533 1068 547 1064 q 506 1079 518 1072 q 464 1106 492 1086 q 433 1125 436 1124 q 411 1137 422 1132 q 386 1142 400 1142 q 356 1135 368 1142 q 332 1110 343 1126 q 306 1064 318 1090 l 251 1088 q 306 1181 285 1154 q 349 1218 326 1207 q 401 1229 371 1229 q 432 1226 419 1229 q 457 1215 447 1221 q 496 1190 463 1213 q 528 1169 524 1172 q 553 1157 542 1161 q 581 1153 564 1153 q 621 1169 604 1153 q 658 1229 639 1188 m 304 3 l 47 3 l 47 50 l 56 53 q 110 85 89 65 q 161 158 140 115 q 165 169 163 161 q 171 181 168 176 q 197 261 185 215 l 436 994 l 539 994 l 803 181 q 815 143 808 163 q 858 65 835 89 q 893 54 869 54 l 893 3 l 611 3 l 611 51 q 643 63 633 56 q 657 85 656 72 q 656 102 657 92 q 649 132 654 113 q 593 310 625 203 l 289 310 l 251 193 q 240 136 242 161 q 242 114 240 121 q 268 64 246 79 q 304 51 279 56 l 304 3 z "},"Ä":{"ha":944,"x_min":47,"x_max":894,"o":"m 532 1053 l 532 1176 l 649 1176 l 649 1053 l 532 1053 m 275 1053 l 275 1176 l 392 1176 l 392 1053 l 275 1053 m 447 790 l 314 382 l 571 382 l 447 790 m 304 3 l 47 3 l 47 50 l 56 53 q 110 85 89 65 q 161 158 140 115 q 165 169 163 161 q 171 181 168 176 q 197 261 185 215 l 436 994 l 539 994 l 803 181 q 815 143 808 163 q 858 65 835 89 q 893 54 869 54 l 893 3 l 611 3 l 611 51 q 643 63 633 56 q 657 85 656 72 q 656 102 657 92 q 649 132 654 113 q 593 310 625 203 l 289 310 l 251 193 q 240 136 242 161 q 242 114 240 121 q 268 64 246 79 q 304 51 279 56 l 304 3 z "},"Å":{"ha":944,"x_min":47,"x_max":894,"o":"m 535 1114 l 535 1115 q 556 1183 556 1139 q 533 1257 556 1232 q 471 1283 510 1283 q 408 1259 429 1283 q 386 1189 386 1235 q 408 1116 386 1142 q 472 1090 429 1090 q 535 1114 513 1090 m 589 1292 q 628 1190 628 1257 q 586 1085 628 1122 q 467 1047 544 1047 q 351 1082 392 1047 q 313 1185 313 1117 q 333 1263 313 1231 q 390 1311 353 1294 q 472 1326 426 1326 q 589 1292 549 1326 m 447 790 l 314 382 l 571 382 l 447 790 m 304 3 l 47 3 l 47 50 l 56 53 q 110 85 89 65 q 161 158 140 115 q 165 169 163 161 q 171 181 168 176 q 197 261 185 215 l 436 994 l 539 994 l 803 181 q 815 143 808 163 q 858 65 835 89 q 893 54 869 54 l 893 3 l 611 3 l 611 51 q 643 63 633 56 q 657 85 656 72 q 656 102 657 92 q 649 132 654 113 q 593 310 625 203 l 289 310 l 251 193 q 240 136 242 161 q 242 114 240 121 q 268 64 246 79 q 304 51 279 56 l 304 3 z "},"Æ":{"ha":1349,"x_min":47,"x_max":1299,"o":"m 671 396 l 649 760 l 646 831 q 644 883 644 874 l 638 883 l 390 396 l 671 396 m 1238 994 l 1249 775 l 1207 775 q 1185 838 1197 810 q 1161 883 1174 864 q 1133 913 1150 900 q 1099 928 1118 924 q 1049 932 1079 932 l 847 932 q 826 923 835 932 q 818 901 818 914 l 819 594 l 1001 594 q 1057 603 1042 594 q 1097 632 1090 621 q 1117 686 1108 653 l 1156 686 l 1156 429 l 1126 429 q 1108 478 1121 454 q 1075 504 1101 489 q 1024 514 1058 514 l 821 514 l 826 94 q 835 75 826 83 q 854 67 843 67 l 1017 67 q 1099 76 1046 67 q 1200 147 1146 86 q 1263 240 1254 207 l 1299 218 l 1243 3 l 600 3 l 600 39 q 651 57 633 46 q 676 89 669 68 q 685 143 685 108 q 683 185 685 167 l 674 332 l 361 332 l 324 261 q 299 207 313 238 q 276 154 282 172 q 271 121 271 133 q 289 61 271 78 q 349 38 307 44 l 349 3 l 47 3 l 47 38 q 124 92 90 54 q 194 201 158 132 l 607 994 l 1238 994 z "},"Ç":{"ha":940,"x_min":46,"x_max":893,"o":"m 847 271 l 892 238 q 843 165 869 199 q 819 135 829 146 q 678 24 757 63 q 589 -7 636 4 l 529 -51 q 542 -87 538 -67 q 546 -129 546 -110 q 490 -244 546 -201 q 326 -296 433 -287 l 318 -243 q 390 -222 364 -237 q 428 -186 418 -207 q 439 -136 439 -165 q 435 -100 439 -119 l 435 -72 l 515 -15 q 447 -14 482 -17 q 343 6 392 -10 q 303 19 328 10 q 229 63 264 36 q 179 104 203 81 q 61 332 92 193 q 53 383 56 356 q 47 469 47 429 q 51 557 47 506 q 60 610 54 581 q 82 693 68 653 q 100 738 89 713 q 132 800 114 769 q 172 856 149 826 q 201 888 186 874 q 225 913 215 903 q 243 928 235 921 q 278 951 256 939 q 301 965 288 957 q 388 997 346 986 q 419 1004 401 1001 q 525 1011 475 1014 q 678 979 599 1008 q 847 890 754 951 l 790 710 l 739 715 q 729 744 735 731 q 674 850 707 807 q 647 879 660 867 q 625 897 638 889 q 571 928 599 917 q 478 944 528 944 q 363 915 415 946 q 314 876 336 900 q 299 861 306 868 q 242 761 263 818 q 211 629 219 706 q 211 463 201 547 q 260 288 224 364 q 383 138 306 190 q 403 125 392 131 q 435 110 418 117 q 471 97 454 101 q 549 88 508 88 q 597 92 578 88 q 642 101 615 94 q 669 113 663 108 q 742 156 710 129 q 847 271 797 201 z "},"È":{"ha":885,"x_min":47,"x_max":835,"o":"m 418 1236 l 560 1085 l 528 1050 l 301 1206 l 301 1236 l 418 1236 m 772 1 l 771 1 l 47 1 l 47 53 q 74 56 68 54 q 88 63 82 57 q 99 79 94 68 q 106 104 103 90 q 110 158 110 122 l 110 836 q 103 904 110 883 q 94 926 99 918 q 76 940 88 936 q 47 943 68 943 l 47 996 l 750 996 l 768 782 l 717 774 q 706 800 711 792 q 674 854 692 833 q 631 890 657 875 q 596 906 617 899 q 582 910 590 907 q 525 918 563 914 q 350 921 482 921 q 299 918 314 921 q 278 903 283 914 q 274 860 274 893 l 274 597 l 400 597 q 514 606 481 599 q 535 611 525 608 q 543 614 538 613 q 563 624 551 617 q 608 690 592 642 l 654 690 l 654 433 l 607 433 q 589 476 599 460 q 549 510 574 499 q 518 518 536 515 q 507 521 511 521 q 439 524 485 524 q 274 524 385 524 l 274 154 q 275 122 274 131 q 285 90 278 99 q 303 79 290 83 q 375 74 324 74 q 564 82 511 74 q 664 115 625 92 q 785 243 726 156 l 835 218 l 772 1 z "},"É":{"ha":885,"x_min":47,"x_max":835,"o":"m 558 1236 l 558 1206 l 332 1050 l 299 1085 l 442 1236 l 558 1236 m 772 1 l 771 1 l 47 1 l 47 53 q 74 56 68 54 q 88 63 82 57 q 99 79 94 68 q 106 104 103 90 q 110 158 110 122 l 110 836 q 103 904 110 883 q 94 926 99 918 q 76 940 88 936 q 47 943 68 943 l 47 996 l 750 996 l 768 782 l 717 774 q 706 800 711 792 q 674 854 692 833 q 631 890 657 875 q 596 906 617 899 q 582 910 590 907 q 525 918 563 914 q 350 921 482 921 q 299 918 314 921 q 278 903 283 914 q 274 860 274 893 l 274 597 l 400 597 q 514 606 481 599 q 535 611 525 608 q 543 614 538 613 q 563 624 551 617 q 608 690 592 642 l 654 690 l 654 433 l 607 433 q 589 476 599 460 q 549 510 574 499 q 518 518 536 515 q 507 521 511 521 q 439 524 485 524 q 274 524 385 524 l 274 154 q 275 122 274 131 q 285 90 278 99 q 303 79 290 83 q 375 74 324 74 q 564 82 511 74 q 664 115 625 92 q 785 243 726 156 l 835 218 l 772 1 z "},"Ê":{"ha":885,"x_min":47,"x_max":835,"o":"m 492 1268 l 651 1090 l 611 1050 l 446 1179 l 438 1179 l 269 1050 l 231 1090 l 399 1268 l 492 1268 m 772 1 l 771 1 l 47 1 l 47 53 q 74 56 68 54 q 88 63 82 57 q 99 79 94 68 q 106 104 103 90 q 110 158 110 122 l 110 836 q 103 904 110 883 q 94 926 99 918 q 76 940 88 936 q 47 943 68 943 l 47 996 l 750 996 l 768 782 l 717 774 q 706 800 711 792 q 674 854 692 833 q 631 890 657 875 q 596 906 617 899 q 582 910 590 907 q 525 918 563 914 q 350 921 482 921 q 299 918 314 921 q 278 903 283 914 q 274 860 274 893 l 274 597 l 400 597 q 514 606 481 599 q 535 611 525 608 q 543 614 538 613 q 563 624 551 617 q 608 690 592 642 l 654 690 l 654 433 l 607 433 q 589 476 599 460 q 549 510 574 499 q 518 518 536 515 q 507 521 511 521 q 439 524 485 524 q 274 524 385 524 l 274 154 q 275 122 274 131 q 285 90 278 99 q 303 79 290 83 q 375 74 324 74 q 564 82 511 74 q 664 115 625 92 q 785 243 726 156 l 835 218 l 772 1 z "},"Ë":{"ha":885,"x_min":47,"x_max":835,"o":"m 528 1053 l 528 1176 l 644 1176 l 644 1053 l 528 1053 m 269 1053 l 269 1176 l 386 1176 l 386 1053 l 269 1053 m 772 1 l 771 1 l 47 1 l 47 53 q 74 56 68 54 q 88 63 82 57 q 99 79 94 68 q 106 104 103 90 q 110 158 110 122 l 110 836 q 103 904 110 883 q 94 926 99 918 q 76 940 88 936 q 47 943 68 943 l 47 996 l 750 996 l 768 782 l 717 774 q 706 800 711 792 q 674 854 692 833 q 631 890 657 875 q 596 906 617 899 q 582 910 590 907 q 525 918 563 914 q 350 921 482 921 q 299 918 314 921 q 278 903 283 914 q 274 860 274 893 l 274 597 l 400 597 q 514 606 481 599 q 535 611 525 608 q 543 614 538 613 q 563 624 551 617 q 608 690 592 642 l 654 690 l 654 433 l 607 433 q 589 476 599 460 q 549 510 574 499 q 518 518 536 515 q 507 521 511 521 q 439 524 485 524 q 274 524 385 524 l 274 154 q 275 122 274 131 q 285 90 278 99 q 303 79 290 83 q 375 74 324 74 q 564 82 511 74 q 664 115 625 92 q 785 243 726 156 l 835 218 l 772 1 z "},"Ì":{"ha":392,"x_min":47,"x_max":339,"o":"m 179 1236 l 322 1085 l 289 1050 l 63 1206 l 63 1236 l 179 1236 m 338 1 l 47 1 l 47 54 q 74 57 68 56 q 88 64 82 58 q 99 81 94 69 q 106 106 103 92 q 110 160 110 124 l 110 838 q 103 904 110 883 q 93 926 99 918 q 76 940 88 936 q 47 943 68 943 l 47 996 l 338 996 l 338 943 q 330 943 336 943 q 321 943 324 943 q 303 938 311 942 q 283 911 292 931 q 279 893 282 904 q 276 838 276 874 l 276 158 q 282 90 276 113 q 290 71 286 78 q 308 57 297 61 q 338 54 317 54 l 338 1 z "},"Í":{"ha":392,"x_min":47,"x_max":339,"o":"m 322 1236 l 322 1206 l 96 1050 l 63 1085 l 206 1236 l 322 1236 m 338 1 l 47 1 l 47 54 q 74 57 68 56 q 88 64 82 58 q 99 81 94 69 q 106 106 103 92 q 110 160 110 124 l 110 838 q 103 904 110 883 q 93 926 99 918 q 76 940 88 936 q 47 943 68 943 l 47 996 l 338 996 l 338 943 q 330 943 336 943 q 321 943 324 943 q 303 938 311 942 q 283 911 292 931 q 279 893 282 904 q 276 838 276 874 l 276 158 q 282 90 276 113 q 290 71 286 78 q 308 57 297 61 q 338 54 317 54 l 338 1 z "},"Î":{"ha":514,"x_min":44,"x_max":465,"o":"m 306 1268 l 465 1090 l 425 1050 l 258 1179 l 251 1179 l 83 1050 l 44 1090 l 213 1268 l 306 1268 m 400 1 l 110 1 l 110 54 q 136 57 131 56 q 149 64 144 58 q 161 81 156 69 q 168 106 165 92 q 171 160 171 124 l 171 838 q 165 904 171 883 q 156 926 161 918 q 139 940 149 936 q 110 943 131 943 l 110 996 l 400 996 l 400 943 q 392 943 399 943 q 382 943 386 943 q 365 938 372 942 q 346 911 353 931 q 342 893 344 904 q 338 838 338 874 l 338 158 q 344 90 339 113 q 353 71 349 78 q 371 57 360 61 q 400 54 379 54 l 400 1 z "},"Ï":{"ha":467,"x_min":44,"x_max":419,"o":"m 301 1053 l 301 1176 l 418 1176 l 418 1053 l 301 1053 m 44 1053 l 44 1176 l 161 1176 l 161 1053 l 44 1053 m 376 1 l 86 1 l 86 54 q 113 57 107 56 q 126 64 121 58 q 138 81 133 69 q 144 106 142 92 q 149 160 149 124 l 149 838 q 142 904 149 883 q 132 926 138 918 q 115 940 126 936 q 86 943 107 943 l 86 996 l 376 996 l 376 943 q 369 943 375 943 q 360 943 363 943 q 342 938 350 942 q 322 911 331 931 q 318 893 321 904 q 315 838 315 874 l 315 158 q 321 90 315 113 q 329 71 325 78 q 347 57 336 61 q 376 54 356 54 l 376 1 z "},"Ð":{"ha":1063,"x_min":46,"x_max":1011,"o":"m 821 321 q 833 490 835 392 q 817 669 833 594 q 778 778 804 728 q 761 808 769 796 q 746 829 756 817 q 667 894 713 869 q 546 928 617 921 q 414 925 469 933 q 374 913 392 921 q 353 896 360 906 q 342 871 346 886 q 339 832 339 857 l 339 546 l 561 546 l 561 447 l 339 447 l 339 138 q 339 125 339 138 q 344 94 340 107 q 367 74 351 79 q 390 67 375 69 q 421 64 400 65 q 564 71 503 61 q 608 79 588 74 q 668 100 640 88 q 735 144 704 115 q 781 203 763 171 q 815 293 801 238 q 821 321 818 304 m 1000 585 l 1000 586 q 1010 482 1010 532 q 1008 436 1010 456 q 975 278 1003 349 q 957 239 965 254 q 925 186 943 211 q 885 139 910 165 q 856 113 872 125 q 799 71 829 89 q 663 17 738 35 q 483 -4 578 -4 l 113 -4 l 113 49 q 139 51 133 49 q 153 57 147 53 q 164 75 160 64 q 171 99 168 86 q 175 153 175 117 l 175 447 l 46 447 l 46 546 l 175 546 l 175 831 q 168 899 175 878 q 160 921 164 913 q 142 935 153 931 q 113 938 133 938 l 113 989 q 396 997 339 997 q 592 990 529 999 q 647 981 621 988 q 683 971 661 978 q 736 950 713 961 q 909 808 839 903 q 1000 585 979 713 z "},"Ñ":{"ha":997,"x_min":47,"x_max":949,"o":"m 132 149 q 138 218 138 176 l 138 833 q 135 874 138 857 q 133 888 135 879 q 121 921 129 907 q 94 943 110 936 q 57 949 83 947 l 57 1001 l 282 1001 l 804 272 l 804 707 q 788 878 803 826 q 778 900 783 888 q 758 929 769 918 q 704 951 740 944 l 704 1001 l 947 1001 l 947 954 q 901 910 915 935 q 890 885 894 897 q 885 860 886 871 q 882 843 883 853 q 878 744 878 804 q 878 370 878 744 q 878 -4 878 -4 l 801 -4 l 213 821 l 213 229 q 219 151 214 181 q 229 121 224 136 q 235 110 231 117 q 261 75 244 88 q 307 57 276 63 l 307 7 l 47 7 l 47 56 q 68 64 58 60 q 118 111 101 81 q 132 149 126 128 m 674 1228 q 674 1228 674 1228 m 674 1228 l 728 1204 q 678 1115 700 1146 q 632 1074 653 1085 q 582 1061 608 1061 q 549 1065 563 1061 q 521 1076 533 1069 q 479 1104 507 1083 q 449 1124 451 1122 q 426 1135 438 1131 q 401 1139 415 1139 q 371 1132 383 1139 q 347 1107 358 1124 q 321 1061 333 1088 l 267 1085 q 321 1178 300 1151 q 364 1215 342 1204 q 417 1228 386 1228 q 447 1224 435 1228 q 472 1214 463 1218 q 511 1189 479 1210 q 543 1167 539 1169 q 568 1154 557 1158 q 596 1150 579 1150 q 636 1168 619 1150 q 674 1228 654 1185 z "},"Ò":{"ha":990,"x_min":33,"x_max":939,"o":"m 431 1238 l 572 1086 l 539 1053 l 314 1208 l 314 1238 l 431 1238 m 424 57 q 536 51 476 43 q 575 60 557 54 q 596 68 588 64 q 665 122 638 88 q 711 201 692 153 q 753 424 744 289 q 740 700 761 593 q 721 774 733 739 q 656 888 699 843 q 601 926 631 911 q 517 949 564 944 q 446 946 479 951 q 372 915 406 938 q 338 886 354 903 q 306 846 322 871 q 296 831 301 840 q 254 728 271 785 q 247 697 251 717 q 228 496 228 613 q 238 331 226 399 q 249 271 242 304 q 263 225 256 246 q 329 111 285 156 q 363 83 344 94 q 424 57 390 65 m 578 -7 q 404 -8 494 -24 q 374 -3 393 -7 q 329 13 349 4 q 239 63 281 31 q 201 96 219 78 q 178 119 188 108 q 79 293 113 194 q 51 576 33 428 q 142 814 68 710 q 272 947 201 900 q 299 963 281 953 q 342 983 319 974 q 499 1013 418 1013 q 647 985 579 1013 q 688 967 669 976 q 711 954 703 960 q 747 929 729 943 q 769 908 758 921 q 814 860 794 883 q 892 729 864 799 q 915 664 907 696 q 925 621 922 640 q 936 544 933 586 q 938 500 938 522 q 933 433 936 461 q 900 294 925 361 q 874 236 889 267 q 854 201 865 221 q 729 60 797 113 q 701 42 714 49 q 610 1 658 15 q 578 -7 596 -3 z "},"Ó":{"ha":990,"x_min":33,"x_max":939,"o":"m 647 1238 l 647 1208 l 421 1053 l 388 1086 l 529 1238 l 647 1238 m 424 57 q 536 51 476 43 q 575 60 557 54 q 596 68 588 64 q 665 122 638 88 q 711 201 692 153 q 753 424 744 289 q 740 700 761 593 q 721 774 733 739 q 656 888 699 843 q 601 926 631 911 q 517 949 564 944 q 446 946 479 951 q 372 915 406 938 q 338 886 354 903 q 306 846 322 871 q 296 831 301 840 q 254 728 271 785 q 247 697 251 717 q 228 496 228 613 q 238 331 226 399 q 249 271 242 304 q 263 225 256 246 q 329 111 285 156 q 363 83 344 94 q 424 57 390 65 m 578 -7 q 404 -8 494 -24 q 374 -3 393 -7 q 329 13 349 4 q 239 63 281 31 q 201 96 219 78 q 178 119 188 108 q 79 293 113 194 q 51 576 33 428 q 142 814 68 710 q 272 947 201 900 q 299 963 281 953 q 342 983 319 974 q 499 1013 418 1013 q 647 985 579 1013 q 688 967 669 976 q 711 954 703 960 q 747 929 729 943 q 769 908 758 921 q 814 860 794 883 q 892 729 864 799 q 915 664 907 696 q 925 621 922 640 q 936 544 933 586 q 938 500 938 522 q 933 433 936 461 q 900 294 925 361 q 874 236 889 267 q 854 201 865 221 q 729 60 797 113 q 701 42 714 49 q 610 1 658 15 q 578 -7 596 -3 z "},"Ô":{"ha":990,"x_min":33,"x_max":939,"o":"m 533 1271 l 692 1093 l 653 1053 l 486 1182 l 479 1182 l 311 1053 l 272 1093 l 440 1271 l 533 1271 m 424 57 q 536 51 476 43 q 575 60 557 54 q 596 68 588 64 q 665 122 638 88 q 711 201 692 153 q 753 424 744 289 q 740 700 761 593 q 721 774 733 739 q 656 888 699 843 q 601 926 631 911 q 517 949 564 944 q 446 946 479 951 q 372 915 406 938 q 338 886 354 903 q 306 846 322 871 q 296 831 301 840 q 254 728 271 785 q 247 697 251 717 q 228 496 228 613 q 238 331 226 399 q 249 271 242 304 q 263 225 256 246 q 329 111 285 156 q 363 83 344 94 q 424 57 390 65 m 578 -7 q 404 -8 494 -24 q 374 -3 393 -7 q 329 13 349 4 q 239 63 281 31 q 201 96 219 78 q 178 119 188 108 q 79 293 113 194 q 51 576 33 428 q 142 814 68 710 q 272 947 201 900 q 299 963 281 953 q 342 983 319 974 q 499 1013 418 1013 q 647 985 579 1013 q 688 967 669 976 q 711 954 703 960 q 747 929 729 943 q 769 908 758 921 q 814 860 794 883 q 892 729 864 799 q 915 664 907 696 q 925 621 922 640 q 936 544 933 586 q 938 500 938 522 q 933 433 936 461 q 900 294 925 361 q 874 236 889 267 q 854 201 865 221 q 729 60 797 113 q 701 42 714 49 q 610 1 658 15 q 578 -7 596 -3 z "},"Õ":{"ha":990,"x_min":33,"x_max":939,"o":"m 424 57 q 536 51 476 43 q 575 60 557 54 q 596 68 588 64 q 665 122 638 88 q 711 201 692 153 q 753 424 744 289 q 740 700 761 593 q 721 774 733 739 q 656 888 699 843 q 601 926 631 911 q 517 949 564 944 q 446 946 479 951 q 372 915 406 938 q 338 886 354 903 q 306 846 322 871 q 296 831 301 840 q 254 728 271 785 q 247 697 251 717 q 228 496 228 613 q 238 331 226 399 q 249 271 242 304 q 263 225 256 246 q 329 111 285 156 q 363 83 344 94 q 424 57 390 65 m 578 -7 q 404 -8 494 -24 q 374 -3 393 -7 q 329 13 349 4 q 239 63 281 31 q 201 96 219 78 q 178 119 188 108 q 79 293 113 194 q 51 576 33 428 q 142 814 68 710 q 272 947 201 900 q 299 963 281 953 q 342 983 319 974 q 499 1013 418 1013 q 647 985 579 1013 q 688 967 669 976 q 711 954 703 960 q 747 929 729 943 q 769 908 758 921 q 814 860 794 883 q 892 729 864 799 q 915 664 907 696 q 925 621 922 640 q 936 544 933 586 q 938 500 938 522 q 933 433 936 461 q 900 294 925 361 q 874 236 889 267 q 854 201 865 221 q 729 60 797 113 q 701 42 714 49 q 610 1 658 15 q 578 -7 596 -3 m 669 1219 q 669 1219 669 1219 m 669 1219 l 724 1196 q 672 1107 696 1138 q 626 1065 649 1076 q 576 1053 604 1053 q 544 1057 557 1053 q 517 1068 529 1061 q 475 1096 503 1075 q 444 1115 447 1114 q 422 1126 433 1122 q 397 1131 411 1131 q 367 1124 379 1131 q 342 1099 354 1115 q 317 1053 329 1079 l 263 1076 q 317 1169 296 1143 q 360 1207 338 1196 q 413 1219 382 1219 q 442 1215 429 1219 q 467 1206 458 1210 q 507 1181 474 1201 q 539 1158 535 1161 q 564 1146 553 1150 q 592 1142 575 1142 q 632 1160 614 1142 q 669 1219 650 1176 z "},"Ö":{"ha":990,"x_min":33,"x_max":939,"o":"m 563 1060 l 563 1183 l 679 1183 l 679 1060 l 563 1060 m 306 1060 l 306 1183 l 422 1183 l 422 1060 l 306 1060 m 424 57 q 536 51 476 43 q 575 60 557 54 q 596 68 588 64 q 665 122 638 88 q 711 201 692 153 q 753 424 744 289 q 740 700 761 593 q 721 774 733 739 q 656 888 699 843 q 601 926 631 911 q 517 949 564 944 q 446 946 479 951 q 372 915 406 938 q 338 886 354 903 q 306 846 322 871 q 296 831 301 840 q 254 728 271 785 q 247 697 251 717 q 228 496 228 613 q 238 331 226 399 q 249 271 242 304 q 263 225 256 246 q 329 111 285 156 q 363 83 344 94 q 424 57 390 65 m 578 -7 q 404 -8 494 -24 q 374 -3 393 -7 q 329 13 349 4 q 239 63 281 31 q 201 96 219 78 q 178 119 188 108 q 79 293 113 194 q 51 576 33 428 q 142 814 68 710 q 272 947 201 900 q 299 963 281 953 q 342 983 319 974 q 499 1013 418 1013 q 647 985 579 1013 q 688 967 669 976 q 711 954 703 960 q 747 929 729 943 q 769 908 758 921 q 814 860 794 883 q 892 729 864 799 q 915 664 907 696 q 925 621 922 640 q 936 544 933 586 q 938 500 938 522 q 933 433 936 461 q 900 294 925 361 q 874 236 889 267 q 854 201 865 221 q 729 60 797 113 q 701 42 714 49 q 610 1 658 15 q 578 -7 596 -3 z "},"×":{"ha":667,"x_min":46,"x_max":619,"o":"m 619 296 l 533 210 l 333 406 l 136 206 l 49 292 l 246 492 l 46 689 l 132 776 l 332 579 l 528 779 l 615 693 l 419 493 l 619 296 z "},"Ø":{"ha":1096,"x_min":44,"x_max":1047,"o":"m 138 -32 l 44 15 l 189 176 q 132 294 154 229 q 106 579 88 429 q 194 815 121 711 q 326 949 256 901 q 353 965 335 954 q 396 985 372 975 q 552 1015 472 1015 q 700 988 632 1014 q 742 969 722 979 q 765 956 756 961 q 800 931 782 946 q 822 911 811 922 q 836 897 829 904 l 954 1029 l 1047 982 l 900 818 q 946 732 926 776 q 968 667 960 699 q 979 622 975 642 q 989 546 986 588 q 990 503 992 525 q 988 435 990 463 q 953 297 979 363 q 926 239 942 268 q 907 203 919 224 q 782 63 851 114 q 756 43 767 51 q 664 3 713 17 q 632 -6 649 -1 q 458 -7 547 -21 q 426 0 446 -6 q 382 14 401 7 q 293 65 335 33 q 254 97 274 79 q 254 99 254 97 l 138 -32 m 478 58 l 476 58 q 590 53 529 44 q 628 63 610 56 q 649 71 640 67 q 719 124 690 89 q 765 204 744 154 q 807 426 797 290 q 794 700 814 593 l 333 186 q 382 113 356 140 q 415 85 399 97 q 478 58 443 67 m 297 296 l 760 811 q 708 889 738 860 q 654 928 685 914 q 569 951 617 947 q 499 947 533 954 q 425 917 460 939 q 390 888 407 906 q 358 849 375 872 q 349 832 354 842 q 307 729 324 788 q 300 699 304 719 q 281 499 282 614 q 292 332 281 401 q 297 296 293 315 z "},"Ù":{"ha":979,"x_min":46,"x_max":928,"o":"m 447 1238 l 589 1086 l 556 1053 l 331 1208 l 331 1238 l 447 1238 m 107 388 l 107 838 q 100 904 107 883 q 92 925 97 917 q 75 939 85 935 q 46 943 67 943 l 46 994 l 335 994 l 335 943 q 327 942 333 942 q 317 942 321 942 q 300 936 306 940 q 282 910 289 931 q 278 892 278 900 q 274 836 274 874 l 274 361 q 279 257 274 297 q 286 219 282 238 q 293 196 292 201 q 318 144 303 168 q 368 99 339 115 q 400 85 383 92 q 421 79 406 83 q 515 71 460 69 q 551 72 533 71 q 574 75 563 74 q 625 86 603 79 q 651 97 639 90 q 690 121 674 108 q 703 132 697 126 q 732 169 718 147 q 749 210 743 189 q 754 228 753 221 q 768 394 768 289 q 769 506 769 447 q 769 638 769 565 q 768 749 768 710 q 767 793 768 771 q 758 858 764 835 q 744 897 753 882 q 725 924 736 914 q 675 944 710 939 l 675 994 l 928 994 l 928 946 q 919 943 925 944 q 911 940 914 942 q 872 911 886 932 q 847 842 854 886 q 842 743 842 810 l 842 431 q 842 407 842 428 q 842 382 842 386 q 842 359 842 378 q 841 334 842 340 q 840 311 840 328 q 838 286 839 294 q 835 263 836 278 q 831 238 833 247 q 826 215 829 228 q 819 190 822 201 q 810 163 815 176 q 799 139 804 149 q 794 132 797 138 q 790 124 792 126 q 778 107 783 114 q 758 83 769 96 q 733 61 747 72 q 708 43 719 50 q 692 32 699 36 q 563 -10 638 3 q 528 -12 547 -11 q 475 -15 504 -15 q 415 -12 446 -15 q 256 33 325 -6 q 142 147 176 78 q 119 213 126 178 q 111 256 114 236 q 107 388 106 313 z "},"Ú":{"ha":979,"x_min":46,"x_max":928,"o":"m 510 1238 l 626 1238 l 626 1208 l 400 1053 l 367 1086 l 510 1238 m 107 388 l 107 838 q 100 904 107 883 q 92 925 97 917 q 75 939 85 935 q 46 943 67 943 l 46 994 l 335 994 l 335 943 q 327 942 333 942 q 317 942 321 942 q 300 936 306 940 q 282 910 289 931 q 278 892 278 900 q 274 836 274 874 l 274 361 q 279 257 274 297 q 286 219 282 238 q 293 196 292 201 q 318 144 303 168 q 368 99 339 115 q 400 85 383 92 q 421 79 406 83 q 515 71 460 69 q 551 72 533 71 q 574 75 563 74 q 625 86 603 79 q 651 97 639 90 q 690 121 674 108 q 703 132 697 126 q 732 169 718 147 q 749 210 743 189 q 754 228 753 221 q 768 394 768 289 q 769 506 769 447 q 769 638 769 565 q 768 749 768 710 q 767 793 768 771 q 758 858 764 835 q 744 897 753 882 q 725 924 736 914 q 675 944 710 939 l 675 994 l 928 994 l 928 946 q 919 943 925 944 q 911 940 914 942 q 872 911 886 932 q 847 842 854 886 q 842 743 842 810 l 842 431 q 842 407 842 428 q 842 382 842 386 q 842 359 842 378 q 841 334 842 340 q 840 311 840 328 q 838 286 839 294 q 835 263 836 278 q 831 238 833 247 q 826 215 829 228 q 819 190 822 201 q 810 163 815 176 q 799 139 804 149 q 794 132 797 138 q 790 124 792 126 q 778 107 783 114 q 758 83 769 96 q 733 61 747 72 q 708 43 719 50 q 692 32 699 36 q 563 -10 638 3 q 528 -12 547 -11 q 475 -15 504 -15 q 415 -12 446 -15 q 256 33 325 -6 q 142 147 176 78 q 119 213 126 178 q 111 256 114 236 q 107 388 106 313 z "},"Û":{"ha":978,"x_min":46,"x_max":928,"o":"m 538 1260 l 697 1082 l 657 1042 l 492 1171 l 483 1171 l 317 1042 l 276 1082 l 444 1260 l 538 1260 m 107 388 l 107 838 q 100 904 107 883 q 92 925 97 917 q 75 939 85 935 q 46 943 67 943 l 46 994 l 335 994 l 335 943 q 327 942 333 942 q 317 942 321 942 q 300 936 306 940 q 282 910 289 931 q 278 892 278 900 q 274 836 274 874 l 274 361 q 279 257 274 297 q 286 219 282 238 q 293 196 292 201 q 318 144 303 168 q 368 99 339 115 q 400 85 383 92 q 421 79 406 83 q 515 71 460 69 q 551 72 533 71 q 574 75 563 74 q 625 86 603 79 q 651 97 639 90 q 690 121 674 108 q 703 132 697 126 q 732 169 718 147 q 749 210 743 189 q 754 228 753 221 q 768 394 768 289 q 769 506 769 447 q 769 638 769 565 q 768 749 768 710 q 767 793 768 771 q 758 858 764 835 q 744 897 753 882 q 725 924 736 914 q 675 944 710 939 l 675 994 l 928 994 l 928 946 q 919 943 925 944 q 911 940 914 942 q 872 911 886 932 q 847 842 854 886 q 842 743 842 810 l 842 431 q 842 407 842 428 q 842 382 842 386 q 842 359 842 378 q 841 334 842 340 q 840 311 840 328 q 838 286 839 294 q 835 263 836 278 q 831 238 833 247 q 826 215 829 228 q 819 190 822 201 q 810 163 815 176 q 799 139 804 149 q 794 132 797 138 q 790 124 792 126 q 778 107 783 114 q 758 83 769 96 q 733 61 747 72 q 708 43 719 50 q 692 32 699 36 q 563 -10 638 3 q 528 -12 547 -11 q 475 -15 504 -15 q 415 -12 446 -15 q 256 33 325 -6 q 142 147 176 78 q 119 213 126 178 q 111 256 114 236 q 107 388 106 313 z "},"Ü":{"ha":979,"x_min":46,"x_max":928,"o":"m 557 1056 l 557 1179 l 674 1179 l 674 1056 l 557 1056 m 300 1056 l 300 1179 l 417 1179 l 417 1056 l 300 1056 m 107 388 l 107 838 q 100 904 107 883 q 92 925 97 917 q 75 939 85 935 q 46 943 67 943 l 46 994 l 335 994 l 335 943 q 327 942 333 942 q 317 942 321 942 q 300 936 306 940 q 282 910 289 931 q 278 892 278 900 q 274 836 274 874 l 274 361 q 279 257 274 297 q 286 219 282 238 q 293 196 292 201 q 318 144 303 168 q 368 99 339 115 q 400 85 383 92 q 421 79 406 83 q 515 71 460 69 q 551 72 533 71 q 574 75 563 74 q 625 86 603 79 q 651 97 639 90 q 690 121 674 108 q 703 132 697 126 q 732 169 718 147 q 749 210 743 189 q 754 228 753 221 q 768 394 768 289 q 769 506 769 447 q 769 638 769 565 q 768 749 768 710 q 767 793 768 771 q 758 858 764 835 q 744 897 753 882 q 725 924 736 914 q 675 944 710 939 l 675 994 l 928 994 l 928 946 q 919 943 925 944 q 911 940 914 942 q 872 911 886 932 q 847 842 854 886 q 842 743 842 810 l 842 431 q 842 407 842 428 q 842 382 842 386 q 842 359 842 378 q 841 334 842 340 q 840 311 840 328 q 838 286 839 294 q 835 263 836 278 q 831 238 833 247 q 826 215 829 228 q 819 190 822 201 q 810 163 815 176 q 799 139 804 149 q 794 132 797 138 q 790 124 792 126 q 778 107 783 114 q 758 83 769 96 q 733 61 747 72 q 708 43 719 50 q 692 32 699 36 q 563 -10 638 3 q 528 -12 547 -11 q 475 -15 504 -15 q 415 -12 446 -15 q 256 33 325 -6 q 142 147 176 78 q 119 213 126 178 q 111 256 114 236 q 107 388 106 313 z "},"Ý":{"ha":965,"x_min":47,"x_max":914,"o":"m 657 1243 l 657 1214 l 431 1058 l 397 1092 l 540 1243 l 657 1243 m 621 0 l 332 0 l 332 53 q 358 56 353 54 q 372 63 367 57 q 385 81 379 68 q 392 104 389 92 q 396 157 396 125 l 396 400 l 172 801 q 113 903 133 874 q 89 929 100 919 q 47 944 74 942 l 47 994 l 346 994 l 346 944 q 326 942 333 943 q 308 935 314 939 q 303 918 301 929 q 307 900 303 910 q 349 813 317 874 l 522 496 l 669 767 q 693 819 683 793 q 707 869 703 844 q 707 897 708 889 q 699 921 706 910 q 646 943 683 942 l 646 994 l 913 994 l 913 944 q 878 938 889 942 q 854 922 867 932 q 832 899 843 913 q 765 788 808 867 l 558 410 l 558 157 q 565 90 560 113 q 574 69 569 76 q 590 56 581 60 q 621 53 600 53 l 621 0 z "},"ß":{"ha":897,"x_min":46,"x_max":846,"o":"m 819 301 q 846 208 846 261 q 825 107 846 149 q 765 39 803 64 q 678 1 729 13 q 572 -10 631 -10 q 374 18 475 -10 l 360 22 l 360 181 l 457 181 l 463 168 q 490 118 476 135 q 524 93 504 103 q 621 90 564 76 q 656 104 642 94 q 679 131 669 114 q 688 174 688 146 q 685 203 688 189 q 675 224 681 215 q 661 240 671 232 q 640 257 651 249 q 607 274 628 264 q 539 304 578 288 q 453 351 488 326 q 399 413 417 378 q 379 496 379 447 q 408 586 379 546 q 499 672 436 625 q 556 725 538 701 q 583 772 574 746 q 593 829 593 797 q 583 888 593 865 q 558 922 574 910 q 522 942 543 935 q 410 938 465 957 q 358 903 382 926 q 319 842 335 879 q 297 746 304 803 q 290 594 290 689 l 290 1 l 51 1 l 51 71 l 67 75 q 106 89 93 82 q 119 101 115 94 q 128 129 124 110 q 131 196 131 151 l 131 599 l 46 599 l 46 671 l 64 674 q 115 690 100 678 q 132 733 129 701 q 164 857 139 800 q 235 956 189 914 q 346 1021 282 997 q 492 1043 411 1043 q 676 989 610 1043 q 746 836 746 935 q 732 764 746 797 q 689 699 719 732 q 585 610 661 667 q 546 576 556 586 q 528 553 535 565 q 522 529 522 542 q 531 493 522 507 q 564 464 540 478 q 640 425 592 446 q 753 368 714 393 q 819 301 794 339 z "},"à":{"ha":711,"x_min":43,"x_max":664,"o":"m 307 994 l 449 843 l 417 810 l 190 965 l 190 994 l 307 994 m 418 163 l 418 396 q 299 338 342 365 q 249 297 274 321 q 204 229 214 264 q 200 167 196 199 q 229 104 206 129 q 310 83 263 71 q 335 93 321 88 q 418 163 376 111 m 617 107 l 618 106 l 663 71 q 565 -11 615 4 q 524 -18 544 -18 q 482 -12 501 -19 q 435 24 451 -3 q 421 69 424 42 q 374 36 393 49 q 349 21 364 29 q 314 4 331 11 q 278 -8 300 -1 q 239 -17 257 -14 q 183 -17 211 -19 q 167 -14 174 -15 q 122 3 143 -8 q 76 44 94 18 q 54 88 61 64 q 47 121 50 101 q 47 181 43 151 q 57 217 50 199 q 65 238 60 225 q 108 294 79 265 q 228 383 164 349 q 418 464 306 424 l 418 556 q 418 579 418 564 q 408 625 415 607 q 407 629 408 626 q 404 633 406 632 q 383 658 396 650 q 321 665 358 675 q 285 644 299 661 q 272 624 278 635 q 260 590 267 613 q 250 557 254 567 q 228 522 242 536 q 190 496 213 504 q 143 494 167 489 q 99 524 115 500 q 93 615 71 564 q 104 638 97 625 q 125 661 114 650 q 268 726 178 711 q 296 731 281 728 q 338 733 318 732 q 383 732 361 733 q 456 718 421 731 q 497 699 478 711 q 551 631 533 675 q 556 621 553 626 q 561 600 558 611 q 568 528 568 569 l 568 119 q 574 81 568 92 q 582 72 576 74 q 597 76 590 71 q 617 107 604 81 z "},"á":{"ha":711,"x_min":43,"x_max":664,"o":"m 514 994 l 514 965 l 288 810 l 256 843 l 397 994 l 514 994 m 418 163 l 418 396 q 299 338 342 365 q 249 297 274 321 q 204 229 214 264 q 200 167 196 199 q 229 104 206 129 q 310 83 263 71 q 335 93 321 88 q 418 163 376 111 m 617 107 l 618 106 l 663 71 q 565 -11 615 4 q 524 -18 544 -18 q 482 -12 501 -19 q 435 24 451 -3 q 421 69 424 42 q 374 36 393 49 q 349 21 364 29 q 314 4 331 11 q 278 -8 300 -1 q 239 -17 257 -14 q 183 -17 211 -19 q 167 -14 174 -15 q 122 3 143 -8 q 76 44 94 18 q 54 88 61 64 q 47 121 50 101 q 47 181 43 151 q 57 217 50 199 q 65 238 60 225 q 108 294 79 265 q 228 383 164 349 q 418 464 306 424 l 418 556 q 418 579 418 564 q 408 625 415 607 q 407 629 408 626 q 404 633 406 632 q 383 658 396 650 q 321 665 358 675 q 285 644 299 661 q 272 624 278 635 q 260 590 267 613 q 250 557 254 567 q 228 522 242 536 q 190 496 213 504 q 143 494 167 489 q 99 524 115 500 q 93 615 71 564 q 104 638 97 625 q 125 661 114 650 q 268 726 178 711 q 296 731 281 728 q 338 733 318 732 q 383 732 361 733 q 456 718 421 731 q 497 699 478 711 q 551 631 533 675 q 556 621 553 626 q 561 600 558 611 q 568 528 568 569 l 568 119 q 574 81 568 92 q 582 72 576 74 q 597 76 590 71 q 617 107 604 81 z "},"â":{"ha":711,"x_min":43,"x_max":664,"o":"m 404 1019 l 563 843 l 524 801 l 357 932 l 349 932 l 182 801 l 143 843 l 310 1019 l 404 1019 m 418 163 l 418 396 q 299 338 342 365 q 249 297 274 321 q 204 229 214 264 q 200 167 196 199 q 229 104 206 129 q 310 83 263 71 q 335 93 321 88 q 418 163 376 111 m 617 107 l 618 106 l 663 71 q 565 -11 615 4 q 524 -18 544 -18 q 482 -12 501 -19 q 435 24 451 -3 q 421 69 424 42 q 374 36 393 49 q 349 21 364 29 q 314 4 331 11 q 278 -8 300 -1 q 239 -17 257 -14 q 183 -17 211 -19 q 167 -14 174 -15 q 122 3 143 -8 q 76 44 94 18 q 54 88 61 64 q 47 121 50 101 q 47 181 43 151 q 57 217 50 199 q 65 238 60 225 q 108 294 79 265 q 228 383 164 349 q 418 464 306 424 l 418 556 q 418 579 418 564 q 408 625 415 607 q 407 629 408 626 q 404 633 406 632 q 383 658 396 650 q 321 665 358 675 q 285 644 299 661 q 272 624 278 635 q 260 590 267 613 q 250 557 254 567 q 228 522 242 536 q 190 496 213 504 q 143 494 167 489 q 99 524 115 500 q 93 615 71 564 q 104 638 97 625 q 125 661 114 650 q 268 726 178 711 q 296 731 281 728 q 338 733 318 732 q 383 732 361 733 q 456 718 421 731 q 497 699 478 711 q 551 631 533 675 q 556 621 553 626 q 561 600 558 611 q 568 528 568 569 l 568 119 q 574 81 568 92 q 582 72 576 74 q 597 76 590 71 q 617 107 604 81 z "},"ã":{"ha":711,"x_min":43,"x_max":664,"o":"m 418 163 l 418 396 q 299 338 342 365 q 249 297 274 321 q 204 229 214 264 q 200 167 196 199 q 229 104 206 129 q 310 83 263 71 q 335 93 321 88 q 418 163 376 111 m 617 107 l 618 106 l 663 71 q 565 -11 615 4 q 524 -18 544 -18 q 482 -12 501 -19 q 435 24 451 -3 q 421 69 424 42 q 374 36 393 49 q 349 21 364 29 q 314 4 331 11 q 278 -8 300 -1 q 239 -17 257 -14 q 183 -17 211 -19 q 167 -14 174 -15 q 122 3 143 -8 q 76 44 94 18 q 54 88 61 64 q 47 121 50 101 q 47 181 43 151 q 57 217 50 199 q 65 238 60 225 q 108 294 79 265 q 228 383 164 349 q 418 464 306 424 l 418 556 q 418 579 418 564 q 408 625 415 607 q 407 629 408 626 q 404 633 406 632 q 383 658 396 650 q 321 665 358 675 q 285 644 299 661 q 272 624 278 635 q 260 590 267 613 q 250 557 254 567 q 228 522 242 536 q 190 496 213 504 q 143 494 167 489 q 99 524 115 500 q 93 615 71 564 q 104 638 97 625 q 125 661 114 650 q 268 726 178 711 q 296 731 281 728 q 338 733 318 732 q 383 732 361 733 q 456 718 421 731 q 497 699 478 711 q 551 631 533 675 q 556 621 553 626 q 561 600 558 611 q 568 528 568 569 l 568 119 q 574 81 568 92 q 582 72 576 74 q 597 76 590 71 q 617 107 604 81 m 525 994 q 526 994 525 994 l 525 994 m 525 994 l 579 971 q 529 882 553 913 q 483 840 506 851 q 433 828 461 828 q 400 832 414 828 q 374 843 385 836 q 331 871 360 850 q 301 890 303 889 q 278 901 289 897 q 254 906 268 906 q 224 899 235 906 q 199 874 211 890 q 174 828 185 854 l 118 851 q 174 944 153 918 q 215 982 194 971 q 268 994 239 994 q 299 990 286 994 q 324 981 314 985 q 363 956 331 976 q 396 933 392 936 q 419 921 410 925 q 449 917 432 917 q 488 935 471 917 q 525 994 506 951 z "},"ä":{"ha":711,"x_min":43,"x_max":664,"o":"m 425 872 l 425 994 l 542 994 l 542 872 l 425 872 m 167 872 l 167 994 l 283 994 l 283 872 l 167 872 m 418 163 l 418 396 q 299 338 342 365 q 249 297 274 321 q 204 229 214 264 q 200 167 196 199 q 229 104 206 129 q 310 83 263 71 q 335 93 321 88 q 418 163 376 111 m 617 107 l 618 106 l 663 71 q 565 -11 615 4 q 524 -18 544 -18 q 482 -12 501 -19 q 435 24 451 -3 q 421 69 424 42 q 374 36 393 49 q 349 21 364 29 q 314 4 331 11 q 278 -8 300 -1 q 239 -17 257 -14 q 183 -17 211 -19 q 167 -14 174 -15 q 122 3 143 -8 q 76 44 94 18 q 54 88 61 64 q 47 121 50 101 q 47 181 43 151 q 57 217 50 199 q 65 238 60 225 q 108 294 79 265 q 228 383 164 349 q 418 464 306 424 l 418 556 q 418 579 418 564 q 408 625 415 607 q 407 629 408 626 q 404 633 406 632 q 383 658 396 650 q 321 665 358 675 q 285 644 299 661 q 272 624 278 635 q 260 590 267 613 q 250 557 254 567 q 228 522 242 536 q 190 496 213 504 q 143 494 167 489 q 99 524 115 500 q 93 615 71 564 q 104 638 97 625 q 125 661 114 650 q 268 726 178 711 q 296 731 281 728 q 338 733 318 732 q 383 732 361 733 q 456 718 421 731 q 497 699 478 711 q 551 631 533 675 q 556 621 553 626 q 561 600 558 611 q 568 528 568 569 l 568 119 q 574 81 568 92 q 582 72 576 74 q 597 76 590 71 q 617 107 604 81 z "},"å":{"ha":711,"x_min":43,"x_max":664,"o":"m 407 850 l 407 851 q 428 919 428 875 q 406 993 428 968 q 343 1019 382 1019 q 280 995 301 1019 q 258 925 258 971 q 280 852 258 878 q 344 826 301 826 q 407 850 385 826 m 461 1028 q 501 926 501 993 q 458 819 501 858 q 339 782 417 782 q 225 818 264 782 q 185 919 185 851 q 206 999 185 965 q 263 1046 226 1031 q 344 1063 299 1063 q 461 1028 422 1063 m 418 163 l 418 396 q 299 338 342 365 q 249 297 274 321 q 204 229 214 264 q 200 167 196 199 q 229 104 206 129 q 310 83 263 71 q 335 93 321 88 q 418 163 376 111 m 617 107 l 618 106 l 663 71 q 565 -11 615 4 q 524 -18 544 -18 q 482 -12 501 -19 q 435 24 451 -3 q 421 69 424 42 q 374 36 393 49 q 349 21 364 29 q 314 4 331 11 q 278 -8 300 -1 q 239 -17 257 -14 q 183 -17 211 -19 q 167 -14 174 -15 q 122 3 143 -8 q 76 44 94 18 q 54 88 61 64 q 47 121 50 101 q 47 181 43 151 q 57 217 50 199 q 65 238 60 225 q 108 294 79 265 q 228 383 164 349 q 418 464 306 424 l 418 556 q 418 579 418 564 q 408 625 415 607 q 407 629 408 626 q 404 633 406 632 q 383 658 396 650 q 321 665 358 675 q 285 644 299 661 q 272 624 278 635 q 260 590 267 613 q 250 557 254 567 q 228 522 242 536 q 190 496 213 504 q 143 494 167 489 q 99 524 115 500 q 93 615 71 564 q 104 638 97 625 q 125 661 114 650 q 268 726 178 711 q 296 731 281 728 q 338 733 318 732 q 383 732 361 733 q 456 718 421 731 q 497 699 478 711 q 551 631 533 675 q 556 621 553 626 q 561 600 558 611 q 568 528 568 569 l 568 119 q 574 81 568 92 q 582 72 576 74 q 597 76 590 71 q 617 107 604 81 z "},"æ":{"ha":1051,"x_min":44,"x_max":1004,"o":"m 588 554 l 588 553 q 579 457 579 514 l 771 457 q 813 458 799 457 q 825 463 822 460 q 829 476 829 465 q 826 531 829 508 q 818 575 824 557 q 811 593 815 585 q 800 618 806 608 q 789 635 797 625 q 696 674 756 679 q 650 660 669 671 q 611 617 628 646 q 588 554 596 590 m 419 163 l 419 396 q 300 338 343 365 q 250 297 275 321 q 206 229 215 264 q 203 167 197 199 q 231 104 207 129 q 313 83 264 71 q 338 93 324 88 q 419 163 379 111 m 953 188 l 1003 154 q 957 93 983 122 q 936 69 947 81 q 869 18 903 38 q 822 -3 847 6 q 751 -17 785 -14 q 642 -3 694 -21 q 567 35 601 10 q 544 51 557 42 q 496 107 517 78 q 489 119 493 111 q 483 128 485 126 q 449 97 471 118 q 422 71 428 75 q 375 38 394 49 q 350 22 365 31 q 315 4 332 11 q 279 -7 301 -1 q 240 -15 258 -12 q 185 -15 213 -19 q 168 -12 175 -14 q 124 4 144 -8 q 78 46 96 19 q 56 89 63 65 q 49 122 51 103 q 49 182 44 153 q 58 217 51 200 q 67 238 61 225 q 110 296 81 265 q 229 383 165 349 q 419 465 307 425 l 419 557 q 419 579 419 564 q 410 625 417 608 q 408 629 410 626 q 406 635 407 632 q 385 658 397 650 q 322 667 360 676 q 286 644 300 661 q 274 624 279 636 q 262 590 268 613 q 251 558 256 568 q 229 522 243 538 q 192 497 214 506 q 144 494 168 489 q 100 525 117 501 q 94 615 72 565 q 106 638 99 626 q 126 661 115 650 q 269 726 179 711 q 297 731 282 729 q 339 733 325 733 q 385 732 363 735 q 457 719 422 731 q 499 700 479 713 q 533 665 517 686 q 554 685 547 678 q 613 719 581 706 q 714 739 661 739 q 833 710 779 739 q 878 675 857 696 q 892 661 883 669 q 913 633 903 649 q 967 499 950 578 q 972 465 971 478 q 979 383 978 424 l 579 383 q 581 358 581 367 q 594 274 585 311 q 643 164 610 210 q 663 142 651 153 q 679 126 676 129 q 789 90 728 90 q 840 99 815 92 q 856 104 843 100 q 933 163 897 122 q 953 188 940 171 z "},"ç":{"ha":657,"x_min":39,"x_max":610,"o":"m 565 190 m 565 190 l 608 158 q 489 36 550 76 q 446 13 446 13 q 440 10 444 11 q 431 6 436 8 q 424 4 426 4 l 375 -33 q 386 -67 382 -47 q 390 -104 390 -87 q 339 -210 390 -169 q 190 -256 288 -249 l 182 -208 q 249 -189 224 -203 q 282 -157 272 -175 q 292 -111 292 -139 q 288 -79 292 -97 l 288 -53 l 347 -11 l 332 -11 q 253 1 289 -10 q 225 11 238 6 q 178 39 199 22 q 160 53 168 44 q 114 103 136 74 q 63 221 78 154 q 51 413 39 314 q 128 617 65 535 q 158 651 143 636 q 186 676 169 663 q 310 732 239 718 q 439 729 381 746 q 560 654 517 710 q 588 546 603 599 q 564 510 581 524 q 528 493 547 496 q 507 493 518 493 q 461 510 479 494 q 449 522 453 515 q 436 544 440 533 q 424 584 431 557 q 414 622 418 611 q 396 649 407 638 q 363 668 382 664 q 317 669 342 674 q 260 638 285 663 q 243 617 251 629 q 238 608 242 614 q 207 511 215 567 q 203 488 204 499 q 199 406 199 454 q 219 258 201 318 q 263 169 235 206 q 282 147 272 157 q 317 119 299 131 q 399 99 354 97 q 447 107 421 100 q 463 111 457 110 q 544 168 506 128 q 565 190 551 175 z "},"è":{"ha":679,"x_min":38,"x_max":632,"o":"m 288 1001 l 429 850 l 396 815 l 169 971 l 169 1001 l 288 1001 m 210 554 l 210 553 q 201 457 203 518 l 396 457 q 439 458 424 457 q 451 463 447 460 q 456 476 456 465 q 453 531 454 513 q 443 575 450 557 q 438 593 440 585 q 426 618 433 607 q 415 635 421 628 q 319 674 381 679 q 274 660 293 671 q 233 617 250 646 q 210 554 217 589 m 560 163 q 579 188 567 171 l 631 154 q 585 93 610 121 q 563 69 568 75 q 494 18 531 38 q 446 -3 474 6 q 375 -17 410 -14 q 264 -3 318 -21 q 188 35 224 10 q 165 51 178 42 q 117 107 136 78 q 51 278 67 178 q 63 492 38 385 q 125 632 82 572 q 151 663 138 649 q 176 685 168 678 q 235 718 203 706 q 338 738 285 738 q 458 708 404 739 q 504 675 482 696 q 518 661 510 669 q 539 633 531 647 q 594 497 578 578 q 600 465 597 482 q 607 383 606 422 l 201 383 q 203 357 203 365 q 215 274 207 311 q 267 164 232 210 q 286 142 275 153 q 303 126 294 132 q 414 90 351 89 q 465 99 440 92 q 481 104 469 99 q 560 163 524 121 z "},"é":{"ha":679,"x_min":38,"x_max":632,"o":"m 465 1001 l 465 971 l 239 815 l 207 850 l 349 1001 l 465 1001 m 210 554 l 210 553 q 201 457 203 518 l 396 457 q 439 458 424 457 q 451 463 447 460 q 456 476 456 465 q 453 531 454 513 q 443 575 450 557 q 438 593 440 585 q 426 618 433 607 q 415 635 421 628 q 319 674 381 679 q 274 660 293 671 q 233 617 250 646 q 210 554 217 589 m 560 163 q 579 188 567 171 l 631 154 q 585 93 610 121 q 563 69 568 75 q 494 18 531 38 q 446 -3 474 6 q 375 -17 410 -14 q 264 -3 318 -21 q 188 35 224 10 q 165 51 178 42 q 117 107 136 78 q 51 278 67 178 q 63 492 38 385 q 125 632 82 572 q 151 663 138 649 q 176 685 168 678 q 235 718 203 706 q 338 738 285 738 q 458 708 404 739 q 504 675 482 696 q 518 661 510 669 q 539 633 531 647 q 594 497 578 578 q 600 465 597 482 q 607 383 606 422 l 201 383 q 203 357 203 365 q 215 274 207 311 q 267 164 232 210 q 286 142 275 153 q 303 126 294 132 q 414 90 351 89 q 465 99 440 92 q 481 104 469 99 q 560 163 524 121 z "},"ê":{"ha":679,"x_min":38,"x_max":632,"o":"m 389 1033 l 549 857 l 508 815 l 343 944 l 335 944 l 168 815 l 129 857 l 296 1033 l 389 1033 m 210 556 l 210 554 q 201 458 203 519 l 396 458 q 439 460 424 458 q 451 464 447 461 q 456 478 456 467 q 453 532 454 514 q 443 576 450 558 q 438 596 440 588 q 426 621 433 608 q 415 636 421 629 q 319 675 381 681 q 274 661 293 672 q 233 618 250 647 q 210 556 217 590 m 560 164 q 579 189 567 172 l 631 157 q 585 94 610 122 q 563 71 568 76 q 494 19 531 39 q 446 -1 474 8 q 375 -15 410 -12 q 264 -1 318 -19 q 188 38 224 11 q 165 54 178 43 q 117 108 136 79 q 51 279 67 179 q 63 493 38 386 q 125 633 82 574 q 151 664 138 650 q 176 686 168 679 q 235 721 203 707 q 338 740 285 740 q 458 710 404 740 q 504 676 482 697 q 518 663 510 671 q 539 635 531 649 q 594 499 578 579 q 600 467 597 483 q 607 385 606 425 l 201 385 q 203 360 203 368 q 215 275 207 313 q 267 165 232 211 q 286 143 275 154 q 303 128 294 135 q 414 92 351 90 q 465 100 440 93 q 481 106 469 101 q 560 164 524 122 z "},"ë":{"ha":679,"x_min":38,"x_max":632,"o":"m 408 864 l 408 986 l 525 986 l 525 864 l 408 864 m 151 864 l 151 986 l 268 986 l 268 864 l 151 864 m 210 556 l 210 554 q 201 458 203 519 l 396 458 q 439 460 424 458 q 451 464 447 461 q 456 478 456 467 q 453 532 454 514 q 443 576 450 558 q 438 596 440 588 q 426 621 433 608 q 415 636 421 629 q 319 675 381 681 q 274 661 293 672 q 233 618 250 647 q 210 556 217 590 m 560 164 q 579 189 567 172 l 631 157 q 585 94 610 122 q 563 71 568 76 q 494 19 531 39 q 446 -1 474 8 q 375 -15 410 -12 q 264 -1 318 -19 q 188 38 224 11 q 165 54 178 43 q 117 108 136 79 q 51 279 67 179 q 63 493 38 386 q 125 633 82 574 q 151 664 138 650 q 176 686 168 679 q 235 721 203 707 q 338 740 285 740 q 458 710 404 740 q 504 676 482 697 q 518 663 510 671 q 539 635 531 649 q 594 499 578 579 q 600 467 597 483 q 607 385 606 425 l 201 385 q 203 360 203 368 q 215 275 207 313 q 267 165 232 211 q 286 143 275 154 q 303 128 294 135 q 414 92 351 90 q 465 100 440 93 q 481 106 469 101 q 560 164 524 122 z "},"ì":{"ha":367,"x_min":46,"x_max":315,"o":"m 163 993 l 306 842 l 272 807 l 46 964 l 46 993 l 163 993 m 315 1 l 314 1 l 68 1 l 68 54 l 81 54 q 92 56 88 54 q 106 65 100 57 q 115 86 111 71 q 118 126 118 100 l 118 515 q 117 538 118 522 q 114 560 115 553 q 104 576 110 571 q 65 586 96 583 l 65 631 q 149 663 110 640 q 221 721 189 686 l 265 721 l 265 126 q 272 74 265 90 q 281 60 275 65 q 315 54 289 54 l 315 1 z "},"í":{"ha":410,"x_min":46,"x_max":361,"o":"m 360 993 l 360 964 l 135 807 l 101 842 l 243 993 l 360 993 m 296 0 l 294 0 l 49 0 l 49 54 l 61 54 q 72 56 68 54 q 86 64 81 57 q 96 86 92 71 q 99 126 99 99 l 99 515 q 97 538 99 522 q 94 560 96 553 q 85 575 90 569 q 46 586 76 583 l 46 629 q 130 663 90 640 q 201 721 169 686 l 246 721 l 246 126 q 253 72 246 89 q 261 60 256 64 q 296 53 269 54 l 296 0 z "},"î":{"ha":513,"x_min":44,"x_max":465,"o":"m 306 1025 l 464 849 l 425 807 l 258 936 l 251 936 l 83 807 l 44 849 l 213 1025 l 306 1025 m 354 1 l 107 1 l 107 54 l 119 54 q 132 56 126 54 q 146 65 140 57 q 154 86 151 71 q 158 126 158 100 l 158 515 q 157 538 158 522 q 153 560 156 553 q 144 576 150 571 q 106 586 136 583 l 106 631 q 189 663 150 640 q 261 721 228 686 l 304 721 l 304 126 q 313 74 304 90 q 321 60 315 65 q 354 54 328 54 l 354 1 z "},"ï":{"ha":472,"x_min":47,"x_max":422,"o":"m 304 872 l 304 994 l 421 994 l 421 872 l 304 872 m 47 872 l 47 994 l 164 994 l 164 872 l 47 872 m 354 1 l 107 1 l 107 54 l 119 54 q 131 56 126 54 q 144 65 139 57 q 154 86 150 71 q 157 126 157 100 l 157 515 q 157 538 157 522 q 153 560 154 553 q 143 576 149 571 q 104 586 135 583 l 104 631 q 189 663 150 640 q 260 721 228 686 l 304 721 l 304 126 q 311 74 304 90 q 321 60 315 65 q 354 54 328 54 l 354 1 z "},"ñ":{"ha":724,"x_min":46,"x_max":674,"o":"m 307 1 m 554 989 m 554 989 l 608 965 q 558 876 582 907 q 513 835 535 846 q 463 822 490 822 q 429 826 443 822 q 401 838 414 831 q 360 865 388 844 q 331 885 332 883 q 307 896 318 892 q 282 900 296 900 q 253 893 264 900 q 228 868 239 885 q 201 822 214 849 l 147 846 q 201 939 181 913 q 244 976 222 965 q 297 989 267 989 q 328 985 315 989 q 353 975 343 979 q 392 950 360 971 q 424 928 419 931 q 449 915 439 919 q 478 911 461 911 q 517 929 500 911 q 554 989 535 946 m 307 1 l 49 1 l 49 58 l 61 58 q 74 60 69 58 q 89 69 83 63 q 99 93 94 78 q 101 135 101 107 l 101 521 q 96 572 101 556 q 83 588 92 582 q 46 596 75 593 l 46 642 q 111 664 81 650 q 138 678 126 671 q 211 738 178 701 l 254 738 l 254 621 q 360 686 304 653 q 411 713 394 704 q 459 731 428 722 q 517 736 490 740 q 600 679 572 731 q 614 643 610 663 q 617 629 615 636 q 619 589 619 610 l 619 135 q 628 78 619 96 q 638 64 631 68 q 672 57 644 57 l 672 1 l 414 1 l 414 57 q 440 60 435 57 q 456 68 450 61 q 464 92 461 76 q 467 135 467 106 l 467 528 q 465 564 467 551 q 460 588 464 579 q 446 604 456 599 q 425 608 438 608 q 411 608 425 608 q 388 606 407 608 q 353 596 371 601 q 254 546 313 581 l 254 135 q 261 78 254 96 q 271 64 265 68 q 307 57 279 57 l 307 1 z "},"ò":{"ha":736,"x_min":47,"x_max":683,"o":"m 310 999 l 453 846 l 419 813 l 193 968 l 193 999 l 310 999 m 354 47 q 386 49 372 46 q 401 51 394 50 q 444 78 426 60 q 467 107 456 89 q 497 193 485 139 q 511 358 511 260 q 500 510 511 450 q 486 565 494 543 q 431 651 467 625 q 388 668 411 664 q 346 668 365 672 q 331 665 338 667 q 286 638 306 658 q 258 597 271 621 q 235 532 244 568 q 231 510 232 519 q 219 360 219 450 q 228 229 219 281 q 235 185 229 210 q 240 168 236 181 q 271 99 253 125 q 304 64 285 76 q 354 47 325 50 m 501 13 l 500 13 q 366 -19 439 -19 q 229 13 293 -19 q 193 35 215 21 q 171 53 181 44 q 58 251 86 128 q 51 292 56 267 q 47 359 47 325 q 51 426 47 393 q 58 467 54 443 q 67 500 63 485 q 169 664 96 600 q 192 682 179 674 q 271 721 229 708 q 308 731 286 726 q 383 736 346 738 q 460 721 424 733 q 538 682 501 708 q 560 664 547 675 q 672 468 644 592 q 679 426 675 450 q 683 360 683 394 q 679 293 683 325 q 671 251 676 275 q 663 218 668 235 q 560 53 633 118 q 538 36 553 47 q 501 13 521 24 z "},"ó":{"ha":736,"x_min":47,"x_max":683,"o":"m 538 999 l 538 968 l 311 813 l 278 846 l 421 999 l 538 999 m 354 47 q 386 49 372 46 q 401 51 394 50 q 444 78 426 60 q 467 107 456 89 q 497 193 485 139 q 511 358 511 260 q 500 510 511 450 q 486 565 494 543 q 431 651 467 625 q 388 668 411 664 q 346 668 365 672 q 331 665 338 667 q 286 638 306 658 q 258 597 271 621 q 235 532 244 568 q 231 510 232 519 q 219 360 219 450 q 228 229 219 281 q 235 185 229 210 q 240 168 236 181 q 271 99 253 125 q 304 64 285 76 q 354 47 325 50 m 501 13 l 500 13 q 366 -19 439 -19 q 229 13 293 -19 q 193 35 215 21 q 171 53 181 44 q 58 251 86 128 q 51 292 56 267 q 47 359 47 325 q 51 426 47 393 q 58 467 54 443 q 67 500 63 485 q 169 664 96 600 q 192 682 179 674 q 271 721 229 708 q 308 731 286 726 q 383 736 346 738 q 460 721 424 733 q 538 682 501 708 q 560 664 547 675 q 672 468 644 592 q 679 426 675 450 q 683 360 683 394 q 679 293 683 325 q 671 251 676 275 q 663 218 668 235 q 560 53 633 118 q 538 36 553 47 q 501 13 521 24 z "},"ô":{"ha":736,"x_min":47,"x_max":683,"o":"m 415 1006 l 575 829 l 535 788 l 369 918 l 361 918 l 194 788 l 156 829 l 322 1006 l 415 1006 m 354 47 q 386 49 372 46 q 401 51 394 50 q 444 78 426 60 q 467 107 456 89 q 497 193 485 139 q 511 358 511 260 q 500 510 511 450 q 486 565 494 543 q 431 651 467 625 q 388 668 411 664 q 346 668 365 672 q 331 665 338 667 q 286 638 306 658 q 258 597 271 621 q 235 532 244 568 q 231 510 232 519 q 219 360 219 450 q 228 229 219 281 q 235 185 229 210 q 240 168 236 181 q 271 99 253 125 q 304 64 285 76 q 354 47 325 50 m 501 13 l 500 13 q 366 -19 439 -19 q 229 13 293 -19 q 193 35 215 21 q 171 53 181 44 q 58 251 86 128 q 51 292 56 267 q 47 359 47 325 q 51 426 47 393 q 58 467 54 443 q 67 500 63 485 q 169 664 96 600 q 192 682 179 674 q 271 721 229 708 q 308 731 286 726 q 383 736 346 738 q 460 721 424 733 q 538 682 501 708 q 560 664 547 675 q 672 468 644 592 q 679 426 675 450 q 683 360 683 394 q 679 293 683 325 q 671 251 676 275 q 663 218 668 235 q 560 53 633 118 q 538 36 553 47 q 501 13 521 24 z "},"õ":{"ha":736,"x_min":47,"x_max":683,"o":"m 354 47 q 386 49 372 46 q 401 51 394 50 q 444 78 426 60 q 467 107 456 89 q 497 193 485 139 q 511 358 511 260 q 500 510 511 450 q 486 565 494 543 q 431 651 467 625 q 388 668 411 664 q 346 668 365 672 q 331 665 338 667 q 286 638 306 658 q 258 597 271 621 q 235 532 244 568 q 231 510 232 519 q 219 360 219 450 q 228 229 219 281 q 235 185 229 210 q 240 168 236 181 q 271 99 253 125 q 304 64 285 76 q 354 47 325 50 m 501 13 l 500 13 q 366 -19 439 -19 q 229 13 293 -19 q 193 35 215 21 q 171 53 181 44 q 58 251 86 128 q 51 292 56 267 q 47 359 47 325 q 51 426 47 393 q 58 467 54 443 q 67 500 63 485 q 169 664 96 600 q 192 682 179 674 q 271 721 229 708 q 308 731 286 726 q 383 736 346 738 q 460 721 424 733 q 538 682 501 708 q 560 664 547 675 q 672 468 644 592 q 679 426 675 450 q 683 360 683 394 q 679 293 683 325 q 671 251 676 275 q 663 218 668 235 q 560 53 633 118 q 538 36 553 47 q 501 13 521 24 m 542 992 q 543 993 542 992 l 542 992 m 542 992 l 596 968 q 546 881 569 911 q 500 838 522 849 q 450 826 478 826 q 417 831 431 826 q 390 842 401 835 q 347 868 376 849 q 318 888 319 886 q 295 899 306 894 q 271 904 285 904 q 240 896 251 904 q 215 872 228 889 q 190 826 201 853 l 135 850 q 190 943 169 917 q 232 981 211 969 q 285 992 256 992 q 315 988 303 992 q 340 978 331 983 q 379 953 347 975 q 413 932 408 935 q 436 919 426 924 q 465 915 449 915 q 504 932 488 915 q 542 992 522 950 z "},"ö":{"ha":736,"x_min":47,"x_max":683,"o":"m 436 872 l 436 994 l 553 994 l 553 872 l 436 872 m 179 872 l 179 994 l 296 994 l 296 872 l 179 872 m 354 47 q 386 49 372 46 q 401 51 394 50 q 444 78 426 60 q 467 107 456 89 q 497 193 485 139 q 511 358 511 260 q 500 510 511 450 q 486 565 494 543 q 431 651 467 625 q 388 668 411 664 q 346 668 365 672 q 331 665 338 667 q 286 638 306 658 q 258 597 271 621 q 235 532 244 568 q 231 510 232 519 q 219 360 219 450 q 228 229 219 281 q 235 185 229 210 q 240 168 236 181 q 271 99 253 125 q 304 64 285 76 q 354 47 325 50 m 501 13 l 500 13 q 366 -19 439 -19 q 229 13 293 -19 q 193 35 215 21 q 171 53 181 44 q 58 251 86 128 q 51 292 56 267 q 47 359 47 325 q 51 426 47 393 q 58 467 54 443 q 67 500 63 485 q 169 664 96 600 q 192 682 179 674 q 271 721 229 708 q 308 731 286 726 q 383 736 346 738 q 460 721 424 733 q 538 682 501 708 q 560 664 547 675 q 672 468 644 592 q 679 426 675 450 q 683 360 683 394 q 679 293 683 325 q 671 251 676 275 q 663 218 668 235 q 560 53 633 118 q 538 36 553 47 q 501 13 521 24 z "},"÷":{"ha":757,"x_min":51,"x_max":704,"o":"m 311 224 l 311 346 l 433 346 l 433 224 l 311 224 m 311 636 l 311 758 l 433 758 l 433 636 l 311 636 m 51 432 l 51 554 l 704 554 l 704 432 l 51 432 z "},"ø":{"ha":751,"x_min":46,"x_max":701,"o":"m 506 193 l 504 193 q 518 360 518 261 q 511 478 518 426 l 261 131 q 278 99 268 111 q 311 64 292 76 q 361 49 332 51 q 394 49 379 47 q 410 53 401 50 q 451 79 433 60 q 474 108 464 90 q 506 193 493 139 m 228 361 q 233 240 228 292 l 485 588 q 438 651 465 633 q 394 669 419 665 q 353 669 372 672 q 338 665 346 668 q 293 639 314 658 q 265 597 278 622 q 243 532 251 569 q 239 511 240 521 q 228 361 228 451 m 679 467 q 686 426 683 449 q 690 359 690 393 q 686 292 690 325 q 679 251 685 275 q 671 218 675 233 q 567 53 642 118 q 544 35 561 47 q 508 13 529 22 q 374 -20 447 -19 q 238 13 301 -21 q 201 35 224 19 q 196 39 196 39 l 133 -49 l 46 -22 l 135 100 q 67 251 88 161 q 60 292 63 267 q 56 359 56 325 q 60 426 56 393 q 67 467 61 443 q 75 500 69 483 q 178 664 104 600 q 200 682 188 672 q 278 721 238 707 q 317 731 294 726 q 392 735 353 738 q 468 721 432 733 q 546 682 508 707 q 550 678 550 678 l 614 765 l 700 739 l 613 617 q 679 467 660 556 z "},"ù":{"ha":806,"x_min":44,"x_max":756,"o":"m 374 994 l 515 843 l 483 810 l 257 965 l 257 994 l 374 994 m 754 -1 l 511 -1 l 511 90 q 474 65 493 78 q 276 -17 354 -6 q 240 -19 254 -19 q 224 -19 235 -19 q 131 35 161 -14 q 115 69 121 50 q 113 83 114 75 q 108 121 108 101 l 108 515 q 108 529 108 519 q 103 558 106 550 q 92 575 99 569 q 44 586 81 583 l 44 629 q 132 658 92 640 q 226 721 183 682 l 275 721 l 275 181 q 278 142 275 156 q 288 124 282 129 q 300 114 293 117 q 318 108 308 110 q 349 108 335 107 q 513 164 413 115 l 513 492 q 507 549 513 532 q 500 563 504 557 q 483 578 493 572 q 451 586 476 581 l 451 631 q 633 721 542 653 l 681 721 l 681 154 q 688 93 682 111 q 696 74 690 81 q 718 57 704 63 q 754 50 728 53 l 754 -1 z "},"ú":{"ha":806,"x_min":44,"x_max":756,"o":"m 569 994 l 569 965 l 343 810 l 310 843 l 453 994 l 569 994 m 754 -1 l 511 -1 l 511 90 q 474 65 493 78 q 276 -17 354 -6 q 240 -19 254 -19 q 224 -19 235 -19 q 131 35 161 -14 q 115 69 121 50 q 113 83 114 75 q 108 121 108 101 l 108 515 q 108 529 108 519 q 103 558 106 550 q 92 575 99 569 q 44 586 81 583 l 44 629 q 132 658 92 640 q 226 721 183 682 l 275 721 l 275 181 q 278 142 275 156 q 288 124 282 129 q 300 114 293 117 q 318 108 308 110 q 349 108 335 107 q 513 164 413 115 l 513 492 q 507 549 513 532 q 500 563 504 557 q 483 578 493 572 q 451 586 476 581 l 451 631 q 633 721 542 653 l 681 721 l 681 154 q 688 93 682 111 q 696 74 690 81 q 718 57 704 63 q 754 50 728 53 l 754 -1 z "},"û":{"ha":806,"x_min":44,"x_max":756,"o":"m 446 994 l 604 817 l 564 776 l 399 906 l 390 906 l 224 776 l 185 817 l 351 994 l 446 994 m 754 -1 l 511 -1 l 511 90 q 474 65 493 78 q 276 -17 354 -6 q 240 -19 254 -19 q 224 -19 235 -19 q 131 35 161 -14 q 115 69 121 50 q 113 83 114 75 q 108 121 108 101 l 108 515 q 108 529 108 519 q 103 558 106 550 q 92 575 99 569 q 44 586 81 583 l 44 629 q 132 658 92 640 q 226 721 183 682 l 275 721 l 275 181 q 278 142 275 156 q 288 124 282 129 q 300 114 293 117 q 318 108 308 110 q 349 108 335 107 q 513 164 413 115 l 513 492 q 507 549 513 532 q 500 563 504 557 q 483 578 493 572 q 451 586 476 581 l 451 631 q 633 721 542 653 l 681 721 l 681 154 q 688 93 682 111 q 696 74 690 81 q 718 57 704 63 q 754 50 728 53 l 754 -1 z "},"ü":{"ha":806,"x_min":44,"x_max":756,"o":"m 464 872 l 464 994 l 581 994 l 581 872 l 464 872 m 207 872 l 207 994 l 324 994 l 324 872 l 207 872 m 754 -1 l 511 -1 l 511 90 q 474 65 493 78 q 276 -17 354 -6 q 240 -19 254 -19 q 224 -19 235 -19 q 131 35 161 -14 q 115 69 121 50 q 113 83 114 75 q 108 121 108 101 l 108 515 q 108 529 108 519 q 103 558 106 550 q 92 575 99 569 q 44 586 81 583 l 44 629 q 132 658 92 640 q 226 721 183 682 l 275 721 l 275 181 q 278 142 275 156 q 288 124 282 129 q 300 114 293 117 q 318 108 308 110 q 349 108 335 107 q 513 164 413 115 l 513 492 q 507 549 513 532 q 500 563 504 557 q 483 578 493 572 q 451 586 476 581 l 451 631 q 633 721 542 653 l 681 721 l 681 154 q 688 93 682 111 q 696 74 690 81 q 718 57 704 63 q 754 50 728 53 l 754 -1 z "},"ý":{"ha":717,"x_min":46,"x_max":668,"o":"m 551 994 l 551 965 l 325 810 l 292 843 l 435 994 l 551 994 m 269 -86 l 268 -86 q 303 32 281 -60 l 117 579 q 93 635 106 615 q 71 661 83 651 q 46 669 64 665 l 46 721 l 300 721 l 300 669 q 272 661 279 665 q 260 640 261 654 q 260 631 258 636 q 317 453 272 593 q 386 238 361 314 l 483 539 q 490 563 488 551 q 493 585 492 572 q 494 599 494 593 q 493 631 496 617 q 492 639 493 633 q 478 657 486 650 q 465 665 471 664 q 446 669 458 667 l 446 721 l 667 721 l 667 671 l 658 668 q 611 626 636 661 q 588 589 599 610 q 549 489 567 546 l 360 -43 q 324 -143 343 -96 q 290 -208 307 -182 q 281 -221 282 -219 q 225 -275 251 -260 q 186 -290 207 -286 q 163 -292 178 -292 q 144 -290 154 -292 q 111 -281 128 -289 q 64 -197 57 -254 q 79 -160 67 -176 q 96 -140 88 -147 q 144 -126 118 -124 q 169 -132 157 -126 q 211 -146 203 -144 q 238 -135 225 -147 q 264 -97 250 -124 q 266 -92 264 -96 q 269 -86 268 -87 z "},"ÿ":{"ha":717,"x_min":46,"x_max":668,"o":"m 428 872 l 428 994 l 544 994 l 544 872 l 428 872 m 169 872 l 169 994 l 286 994 l 286 872 l 169 872 m 269 -86 l 268 -86 q 303 32 281 -60 l 117 579 q 93 635 106 615 q 71 661 83 651 q 46 669 64 665 l 46 721 l 300 721 l 300 669 q 272 661 279 665 q 260 640 261 654 q 260 631 258 636 q 317 453 272 593 q 386 238 361 314 l 483 539 q 490 563 488 551 q 493 585 492 572 q 494 599 494 593 q 493 631 496 617 q 492 639 493 633 q 478 657 486 650 q 465 665 471 664 q 446 669 458 667 l 446 721 l 667 721 l 667 671 l 658 668 q 611 626 636 661 q 588 589 599 610 q 549 489 567 546 l 360 -43 q 324 -143 343 -96 q 290 -208 307 -182 q 281 -221 282 -219 q 225 -275 251 -260 q 186 -290 207 -286 q 163 -292 178 -292 q 144 -290 154 -292 q 111 -281 128 -289 q 64 -197 57 -254 q 79 -160 67 -176 q 96 -140 88 -147 q 144 -126 118 -124 q 169 -132 157 -126 q 211 -146 203 -144 q 238 -135 225 -147 q 264 -97 250 -124 q 266 -92 264 -96 q 269 -86 268 -89 z "}}}
